<?xml version="1.0" standalone="no"?>
<!DOCTYPE svg PUBLIC "-//W3C//DTD SVG 20010904//EN"
 "http://www.w3.org/TR/2001/REC-SVG-20010904/DTD/svg10.dtd">
<svg version="1.0" xmlns="http://www.w3.org/2000/svg"
 width="64.000000pt" height="64.000000pt" viewBox="0 0 64.000000 64.000000"
 preserveAspectRatio="xMidYMid meet">

<g transform="translate(0.000000,64.000000) scale(0.100000,-0.100000)"
  stroke="none">
<path d="M82 547 l-82 -82 0 -228 0 -227 320 0 320 0 0 233 -1 232 -79 80 -80
79 -78 -77 -77 -77 -75 75 c-41 41 -77 75 -80 75 -3 0 -42 -37 -88 -83z m155
-29 l63 -62 0 -208 0 -208 -135 0 -135 0 0 202 0 202 67 68 c37 38 70 68 72
68 3 0 34 -28 68 -62z m305 -5 l68 -67 0 -203 0 -203 -135 0 -135 0 0 206 0
206 62 64 c33 35 64 64 67 64 3 0 36 -30 73 -67z"/>
<path d="M50 380 l0 -50 55 0 55 0 0 50 0 50 -55 0 -55 0 0 -50z m80 0 c0 -15
-7 -20 -25 -20 -18 0 -25 5 -25 20 0 15 7 20 25 20 18 0 25 -5 25 -20z"/>
<path d="M180 380 l0 -50 55 0 55 0 0 50 0 50 -55 0 -55 0 0 -50z m70 0 c0
-13 -7 -20 -20 -20 -13 0 -20 7 -20 20 0 13 7 20 20 20 13 0 20 -7 20 -20z"/>
<path d="M57 304 c-4 -4 -7 -29 -7 -56 l0 -48 56 0 55 0 -3 53 -3 52 -45 3
c-25 2 -49 0 -53 -4z m73 -54 c0 -15 -7 -20 -25 -20 -18 0 -25 5 -25 20 0 15
7 20 25 20 18 0 25 -5 25 -20z"/>
<path d="M187 304 c-4 -4 -7 -29 -7 -56 l0 -48 56 0 55 0 -3 53 -3 52 -45 3
c-25 2 -49 0 -53 -4z m63 -54 c0 -13 -7 -20 -20 -20 -13 0 -20 7 -20 20 0 13
7 20 20 20 13 0 20 -7 20 -20z"/>
<path d="M50 126 l0 -56 56 0 55 0 -3 53 -3 52 -52 3 -53 3 0 -55z m75 -1 c0
-13 -8 -21 -22 -23 -17 -3 -23 2 -23 16 0 10 3 22 7 26 13 13 38 1 38 -19z"/>
<path d="M180 125 l0 -55 55 0 55 0 0 55 0 55 -55 0 -55 0 0 -55z m68 -3 c3
-17 -2 -22 -17 -22 -14 0 -21 6 -21 18 0 38 33 41 38 4z"/>
<path d="M360 380 l0 -50 55 0 55 0 0 50 0 50 -55 0 -55 0 0 -50z m70 0 c0
-13 -7 -20 -20 -20 -13 0 -20 7 -20 20 0 13 7 20 20 20 13 0 20 -7 20 -20z"/>
<path d="M484 416 c-3 -8 -4 -29 -2 -48 3 -32 4 -33 56 -36 l52 -3 0 50 0 51
-50 0 c-34 0 -52 -5 -56 -14z m76 -36 c0 -13 -7 -20 -20 -20 -13 0 -20 7 -20
20 0 13 7 20 20 20 13 0 20 -7 20 -20z"/>
<path d="M360 256 l0 -56 56 0 55 0 -3 53 -3 52 -52 3 -53 3 0 -55z m70 -6 c0
-13 -7 -20 -20 -20 -13 0 -20 7 -20 20 0 13 7 20 20 20 13 0 20 -7 20 -20z"/>
<path d="M484 286 c-3 -13 -4 -37 -2 -52 3 -27 6 -29 56 -32 l52 -3 0 55 0 56
-50 0 c-44 0 -50 -3 -56 -24z m76 -36 c0 -13 -7 -20 -20 -20 -13 0 -20 7 -20
20 0 13 7 20 20 20 13 0 20 -7 20 -20z"/>
<path d="M360 126 l0 -56 56 0 55 0 -3 53 -3 52 -52 3 -53 3 0 -55z m68 -4 c3
-17 -2 -22 -17 -22 -14 0 -21 6 -21 18 0 38 33 41 38 4z"/>
<path d="M484 166 c-3 -8 -4 -31 -2 -52 l3 -39 53 -3 52 -3 0 55 0 56 -50 0
c-34 0 -52 -5 -56 -14z m74 -44 c3 -17 -2 -22 -17 -22 -16 0 -21 6 -21 26 0
33 33 30 38 -4z"/>
</g>
</svg>
