<svg id="svg" xmlns="http://www.w3.org/2000/svg" xmlns:xlink="http://www.w3.org/1999/xlink" width="400" height="400" viewBox="0, 0, 400,400" version="1.1"><g id="svgg"><path id="path0" d="M218.007 6.292 C 212.442 9.543,204.402 20.622,200.140 30.911 C 192.528 49.288,192.065 49.450,173.898 40.055 C 153.565 29.540,130.443 30.307,126.721 41.618 C 125.410 45.602,132.924 50.747,143.419 53.052 C 169.412 58.761,167.449 63.570,133.408 77.572 C 93.636 93.931,54.330 133.746,40.313 171.875 C 33.994 189.063,22.339 209.319,14.412 216.889 C -5.306 235.721,-4.239 262.224,17.188 285.840 C 26.641 296.259,41.582 317.067,50.390 332.079 C 103.588 422.753,296.412 422.753,349.610 332.079 C 358.418 317.067,373.359 296.259,382.813 285.840 C 405.450 260.890,406.103 230.708,384.375 213.617 C 375.781 206.857,368.688 197.512,368.613 192.850 C 367.830 144.535,297.377 77.032,235.647 65.451 C 222.916 63.063,212.500 59.831,212.500 58.269 C 212.500 51.045,227.696 27.610,235.287 23.127 C 245.924 16.845,246.403 -0.065,235.938 0.190 C 231.641 0.295,223.572 3.040,218.007 6.292 M250.630 94.613 C 297.690 110.370,331.571 147.735,344.588 198.236 C 348.653 214.009,355.893 226.028,362.614 228.161 C 382.684 234.531,384.905 268.750,365.249 268.750 C 360.621 268.750,351.430 280.969,344.823 295.904 C 295.104 408.303,104.472 408.856,58.364 296.735 C 52.045 281.369,43.458 268.786,39.282 268.773 C 16.237 268.702,18.288 238.302,42.188 225.716 C 50.212 221.490,56.309 212.366,56.387 204.468 C 57.159 126.664,164.701 65.843,250.630 94.613 M116.277 219.716 C 99.485 243.689,123.595 270.381,149.512 256.511 C 165.323 248.049,167.480 215.748,152.614 210.044 C 135.307 203.402,125.961 205.890,116.277 219.716 M245.000 213.750 C 231.815 226.935,236.172 249.663,253.390 257.508 C 266.998 263.708,271.198 262.830,282.639 251.389 C 294.080 239.948,294.958 235.748,288.758 222.140 C 280.913 204.922,258.185 200.565,245.000 213.750 M143.750 313.841 C 143.750 336.049,210.304 345.420,244.060 327.964 C 270.786 314.144,267.929 303.513,239.063 309.368 C 208.729 315.520,189.154 315.569,164.063 309.555 C 148.177 305.748,143.750 306.682,143.750 313.841 " stroke="none"   fill-rule="evenodd"></path></g></svg>
