<svg id="svg" xmlns="http://www.w3.org/2000/svg" xmlns:xlink="http://www.w3.org/1999/xlink" width="400" height="400" viewBox="0, 0, 400,400" version="1.1"><g id="svgg"><path id="path0" d="M158.116 12.247 C 135.578 25.989,118.750 54.018,118.750 77.815 C 118.750 92.770,116.829 93.750,87.500 93.750 C 70.313 93.750,56.101 94.453,55.918 95.313 C 55.736 96.172,47.795 163.672,38.273 245.312 L 20.959 393.750 201.526 393.750 C 370.487 393.750,381.897 393.047,379.049 382.813 C 377.375 376.797,374.231 352.188,372.063 328.125 C 366.664 268.196,350.008 125.025,346.433 107.813 C 343.876 95.502,339.633 93.750,312.381 93.750 C 282.592 93.750,281.249 93.009,281.227 76.563 C 281.148 18.812,209.089 -18.833,158.116 12.247 M242.036 39.214 C 249.687 46.865,257.773 62.266,260.005 73.438 L 264.063 93.750 200.285 93.750 L 136.507 93.750 140.824 73.438 C 151.715 22.196,206.495 3.673,242.036 39.214 M114.414 140.625 C 111.075 161.201,111.889 162.500,128.125 162.500 C 144.361 162.500,145.175 161.201,141.836 140.625 L 138.286 118.750 199.752 118.750 L 261.218 118.750 260.297 139.063 C 259.557 155.364,261.994 159.749,272.642 161.268 C 287.617 163.405,297.977 145.477,287.705 135.205 C 275.597 123.097,281.226 117.993,304.548 119.935 L 327.847 121.875 341.720 240.625 C 349.350 305.938,355.741 362.891,355.921 367.188 C 356.176 373.239,320.869 375.000,199.304 375.000 L 42.359 375.000 45.806 354.688 C 47.702 343.516,53.867 292.188,59.507 240.625 C 73.668 111.162,71.359 118.750,96.601 118.750 C 117.525 118.750,117.891 119.199,114.414 140.625 " stroke="none"   fill-rule="evenodd"></path></g></svg>
