<svg id="svg" xmlns="http://www.w3.org/2000/svg" xmlns:xlink="http://www.w3.org/1999/xlink" width="400" height="400" viewBox="0, 0, 400,400" version="1.1"><g id="svgg"><path id="path0" d="M146.875 8.365 C -84.279 84.957,-26.442 411.484,216.025 398.758 C 421.538 387.971,473.081 101.359,284.476 18.119 C 246.557 1.384,181.798 -3.206,146.875 8.365 M187.500 22.124 C 187.500 23.980,181.620 37.023,174.434 51.110 C 155.693 87.844,143.750 138.618,143.750 181.555 C 143.750 221.304,141.121 223.737,107.813 214.811 C 95.612 211.541,93.750 206.914,93.750 179.861 C 93.750 162.711,89.341 131.666,83.953 110.872 C 74.649 74.965,74.747 72.475,85.914 61.308 C 104.387 42.835,187.500 10.777,187.500 22.124 M257.578 31.279 C 312.204 51.989,311.905 51.249,280.016 86.717 C 245.396 125.222,230.052 156.230,226.277 195.313 L 223.410 225.000 192.955 225.000 L 162.500 225.000 162.500 194.603 C 162.500 148.582,173.255 101.211,193.551 57.840 C 214.212 13.688,212.764 14.289,257.578 31.279 M342.929 89.751 C 355.550 103.186,381.250 160.317,381.250 174.940 C 381.250 187.692,283.292 224.312,247.588 224.908 C 228.014 225.234,256.906 144.670,291.822 101.563 C 316.560 71.021,323.768 69.355,342.929 89.751 M68.163 146.460 C 79.629 208.651,79.308 209.471,50.000 192.999 C 20.963 176.679,19.539 168.137,38.506 124.046 C 53.990 88.054,57.946 91.045,68.163 146.460 M58.477 220.232 C 77.770 227.207,78.758 249.163,61.700 291.821 L 54.680 309.375 39.886 277.576 C 17.816 230.134,13.353 202.774,28.696 208.965 C 35.257 211.613,48.658 216.683,58.477 220.232 M379.079 234.483 C 366.474 326.447,326.143 346.745,272.968 287.887 C 240.366 251.801,242.509 246.703,295.313 234.732 C 320.234 229.081,347.656 220.461,356.250 215.576 C 380.437 201.825,383.238 204.144,379.079 234.483 M134.884 242.283 C 138.601 244.809,145.401 265.156,149.994 287.500 C 154.588 309.844,163.399 340.078,169.576 354.688 C 183.122 386.728,176.925 388.920,131.250 368.244 C 84.535 347.098,67.402 326.986,78.243 306.021 C 83.138 296.556,88.989 277.267,91.245 263.156 C 95.394 237.212,114.188 228.223,134.884 242.283 M230.804 264.275 C 238.323 287.057,263.690 317.301,289.420 334.160 C 312.471 349.264,310.990 352.672,274.560 368.344 C 211.841 395.324,187.924 374.242,170.119 276.280 L 164.206 243.750 194.119 243.750 C 222.387 243.750,224.403 244.878,230.804 264.275 " stroke="none"   fill-rule="evenodd"></path></g></svg>
