<svg id="svg" xmlns="http://www.w3.org/2000/svg" xmlns:xlink="http://www.w3.org/1999/xlink" width="400" height="400" viewBox="0, 0, 400,400" version="1.1"><g id="svgg"><path id="path0" d="M100.041 42.588 C -7.549 89.017,-14.244 95.785,18.152 125.374 L 37.500 143.045 37.500 230.529 C 37.500 282.109,34.935 319.598,31.250 321.875 C 27.813 323.999,25.000 330.520,25.000 336.365 C 25.000 342.211,19.375 350.506,12.500 354.800 C 4.525 359.780,0.000 369.375,0.000 381.303 L 0.000 400.000 200.000 400.000 L 400.000 400.000 400.000 381.604 C 400.000 371.274,395.162 359.628,388.966 355.042 C 367.693 339.296,362.500 314.294,362.500 227.620 L 362.500 143.329 381.670 124.590 C 392.213 114.283,399.948 101.348,398.857 95.846 C 397.355 88.262,206.794 -2.352,198.134 0.400 C 197.442 0.620,153.300 19.604,100.041 42.588 M278.904 56.819 C 319.726 74.319,354.297 89.788,355.729 91.194 C 357.161 92.600,285.443 93.651,196.354 93.530 L 34.375 93.311 112.500 59.375 C 207.092 18.286,189.648 18.554,278.904 56.819 M70.219 204.673 C 67.269 313.254,64.778 323.882,63.627 232.813 C 63.007 183.828,64.609 143.744,67.188 143.736 C 69.766 143.728,71.130 171.150,70.219 204.673 M125.000 231.250 L 125.000 318.750 109.375 318.750 L 93.750 318.750 93.750 231.250 L 93.750 143.750 109.375 143.750 L 125.000 143.750 125.000 231.250 M156.250 231.619 C 156.250 288.607,154.053 318.130,150.000 315.625 C 141.605 310.437,141.605 143.750,150.000 143.750 C 153.870 143.750,156.250 177.206,156.250 231.619 M218.750 231.250 L 218.750 318.750 200.000 318.750 L 181.250 318.750 181.250 231.250 L 181.250 143.750 200.000 143.750 L 218.750 143.750 218.750 231.250 M256.250 227.756 C 256.250 277.018,253.665 313.360,250.000 315.625 C 245.947 318.130,243.750 288.607,243.750 231.619 C 243.750 177.206,246.130 143.750,250.000 143.750 C 253.857 143.750,256.250 175.919,256.250 227.756 M306.250 231.250 L 306.250 318.750 290.625 318.750 L 275.000 318.750 275.000 231.250 L 275.000 143.750 290.625 143.750 L 306.250 143.750 306.250 231.250 M337.500 231.619 C 337.500 288.607,335.303 318.130,331.250 315.625 C 327.585 313.360,325.000 277.018,325.000 227.756 C 325.000 175.919,327.393 143.750,331.250 143.750 C 335.120 143.750,337.500 177.206,337.500 231.619 M356.250 343.750 C 356.250 347.750,300.000 350.000,200.000 350.000 C 100.000 350.000,43.750 347.750,43.750 343.750 C 43.750 339.750,100.000 337.500,200.000 337.500 C 300.000 337.500,356.250 339.750,356.250 343.750 M378.125 375.000 C 380.666 379.112,319.857 381.250,200.369 381.250 C 83.456 381.250,18.750 379.023,18.750 375.000 C 18.750 366.453,372.843 366.453,378.125 375.000 " stroke="none"   fill-rule="evenodd"></path></g></svg>
