<svg id="svg" xmlns="http://www.w3.org/2000/svg" xmlns:xlink="http://www.w3.org/1999/xlink" width="400" height="400" viewBox="0, 0, 400,400" version="1.1"><g id="svgg"><path id="path0" d="M216.892 3.942 C 210.318 10.515,211.598 48.705,218.536 52.993 C 222.251 55.288,221.224 64.445,215.867 76.799 C 211.080 87.841,205.571 101.975,203.625 108.209 C 201.680 114.442,197.133 117.716,193.520 115.483 C 189.908 113.251,183.236 114.508,178.693 118.278 C 172.613 123.325,165.679 122.653,152.405 115.730 C 111.425 94.358,62.754 113.681,41.271 159.850 C 34.751 173.861,23.501 187.924,16.271 191.100 C -0.179 198.327,-5.697 245.535,8.034 261.576 C 12.882 267.241,20.526 285.938,25.019 303.125 C 29.512 320.313,38.579 349.141,45.168 367.187 L 57.148 400.000 200.365 400.000 L 343.582 400.000 351.871 379.688 C 356.430 368.516,365.296 339.688,371.573 315.625 C 377.850 291.563,386.814 267.435,391.493 262.008 C 412.292 237.884,398.660 187.500,371.335 187.500 C 359.808 187.500,356.990 182.853,353.327 157.813 C 350.939 141.484,342.577 112.121,334.745 92.560 C 325.938 70.567,322.728 54.772,326.332 51.168 C 329.538 47.962,331.253 35.841,330.143 24.232 L 328.125 3.125 274.704 1.338 C 245.322 0.355,219.307 1.526,216.892 3.942 M306.250 28.125 C 306.250 35.322,298.264 37.500,271.875 37.500 C 245.486 37.500,237.500 35.322,237.500 28.125 C 237.500 20.928,245.486 18.750,271.875 18.750 C 298.264 18.750,306.250 20.928,306.250 28.125 M312.785 98.438 C 330.624 145.293,336.092 187.617,324.250 187.185 C 308.096 186.595,221.849 132.292,223.741 123.901 C 234.595 75.768,245.082 62.500,272.275 62.500 L 299.102 62.500 312.785 98.438 M143.600 137.275 C 159.522 147.344,108.903 186.916,79.688 187.240 C 53.066 187.535,52.863 187.178,65.625 162.500 C 80.535 133.667,118.482 121.391,143.600 137.275 M228.220 163.097 C 272.366 188.011,272.917 187.500,201.899 187.500 L 141.298 187.500 162.500 165.625 C 188.177 139.133,185.913 139.220,228.220 163.097 M381.250 228.125 L 381.250 243.750 200.000 243.750 L 18.750 243.750 18.750 228.125 L 18.750 212.500 200.000 212.500 L 381.250 212.500 381.250 228.125 M93.750 319.127 L 93.750 369.505 117.188 367.565 L 140.625 365.625 144.166 315.625 L 147.708 265.625 148.854 317.188 L 150.000 368.750 171.875 368.750 L 193.750 368.750 193.750 318.750 C 193.750 289.583,196.354 268.750,200.000 268.750 C 203.646 268.750,206.250 289.583,206.250 318.750 L 206.250 368.750 228.125 368.750 L 250.000 368.750 250.000 318.750 C 250.000 289.583,252.604 268.750,256.250 268.750 C 259.896 268.750,262.500 289.583,262.500 318.750 L 262.500 368.750 284.375 368.750 L 306.250 368.750 306.250 318.750 L 306.250 268.750 331.250 268.750 C 361.234 268.750,361.586 270.878,342.188 334.926 L 328.125 381.358 200.575 379.741 L 73.024 378.125 58.387 334.720 C 37.701 273.377,38.427 268.750,68.750 268.750 L 93.750 268.750 93.750 319.127 M125.000 309.375 C 125.000 341.319,122.997 350.000,115.625 350.000 C 108.253 350.000,106.250 341.319,106.250 309.375 C 106.250 277.431,108.253 268.750,115.625 268.750 C 122.997 268.750,125.000 277.431,125.000 309.375 M181.250 309.375 C 181.250 332.292,178.526 350.000,175.000 350.000 C 171.474 350.000,168.750 332.292,168.750 309.375 C 168.750 286.458,171.474 268.750,175.000 268.750 C 178.526 268.750,181.250 286.458,181.250 309.375 M237.500 309.375 C 237.500 332.292,234.776 350.000,231.250 350.000 C 227.724 350.000,225.000 332.292,225.000 309.375 C 225.000 286.458,227.724 268.750,231.250 268.750 C 234.776 268.750,237.500 286.458,237.500 309.375 M293.750 309.896 C 293.750 364.973,278.941 362.788,276.264 307.316 C 274.747 275.872,276.190 268.750,284.077 268.750 C 291.828 268.750,293.750 276.925,293.750 309.896 " stroke="none"   fill-rule="evenodd"></path></g></svg>
