<svg id="svg" xmlns="http://www.w3.org/2000/svg" xmlns:xlink="http://www.w3.org/1999/xlink" width="400" height="400" viewBox="0, 0, 400,400" version="1.1"><g id="svgg"><path id="path0" d="M134.375 7.675 C 127.500 11.687,109.429 15.407,94.217 15.941 C 56.327 17.273,34.287 41.394,40.762 74.444 C 43.179 86.781,46.949 159.166,49.141 235.300 C 54.302 414.628,42.205 400.000,185.344 400.000 C 313.945 400.000,318.591 397.990,318.976 342.188 C 319.200 309.846,319.581 309.195,345.539 296.875 C 420.555 261.270,421.604 131.250,346.875 131.250 C 315.575 131.250,312.534 125.499,331.250 101.705 C 364.260 59.740,327.106 0.128,279.274 18.313 C 267.900 22.638,257.123 22.646,245.797 18.340 C 236.611 14.848,225.132 13.510,220.289 15.369 C 215.447 17.227,205.462 14.529,198.102 9.374 C 182.247 -1.731,151.880 -2.541,134.375 7.675 M183.575 31.737 C 195.283 40.947,205.107 43.621,217.352 40.932 C 227.998 38.594,239.345 40.596,246.947 46.155 C 257.747 54.052,261.350 53.944,276.008 45.285 C 305.264 28.003,340.731 63.019,317.500 86.250 C 308.403 95.347,283.464 96.139,278.125 87.500 C 255.860 51.474,225.347 111.138,239.677 162.681 C 250.662 202.194,247.251 218.750,228.125 218.750 C 209.305 218.750,205.870 202.493,216.183 162.238 C 228.040 115.954,217.034 75.359,195.128 84.581 C 172.122 94.266,154.719 95.043,139.788 87.052 C 127.526 80.489,121.680 80.317,112.199 86.237 C 87.300 101.787,62.500 91.259,62.500 65.140 C 62.500 42.833,77.699 34.513,100.896 44.121 C 118.621 51.463,121.560 51.019,130.806 39.601 C 139.958 28.298,152.103 20.670,163.220 19.243 C 165.334 18.972,174.494 24.594,183.575 31.737 M172.812 116.466 C 198.376 112.962,200.000 113.634,200.000 127.733 C 200.000 160.710,196.588 162.500,133.706 162.500 L 75.000 162.500 75.000 140.625 C 75.000 122.135,77.176 118.735,89.063 118.654 C 96.797 118.602,107.192 115.985,112.163 112.840 C 117.767 109.295,125.842 109.606,133.412 113.657 C 140.128 117.252,157.858 118.515,172.812 116.466 M292.188 118.665 C 296.933 118.716,300.000 127.337,300.000 140.625 C 300.000 164.826,268.371 174.316,260.044 152.614 C 250.814 128.562,255.619 110.873,270.313 114.811 C 278.047 116.883,287.891 118.618,292.188 118.665 M369.820 160.344 C 397.145 185.072,365.693 281.250,330.281 281.250 C 315.870 281.250,312.319 159.887,326.563 154.139 C 342.145 147.852,358.629 150.216,369.820 160.344 M182.750 192.376 C 181.856 196.777,185.273 208.400,190.344 218.206 C 210.291 256.779,263.975 244.306,270.811 199.509 C 272.321 189.616,277.234 184.375,284.998 184.375 C 296.008 184.375,297.002 190.655,298.614 270.393 C 301.014 389.068,308.850 381.250,187.500 381.250 C 66.840 381.250,75.000 389.398,75.000 268.918 L 75.000 180.763 129.688 182.569 C 170.083 183.903,183.950 186.466,182.750 192.376 " stroke="none"   fill-rule="evenodd"></path></g></svg>
