<svg id="svg" xmlns="http://www.w3.org/2000/svg" xmlns:xlink="http://www.w3.org/1999/xlink" width="400" height="400" viewBox="0, 0, 400,400" version="1.1"><g id="svgg"><path id="path0" d="M272.718 25.454 C 261.832 34.016,256.250 44.426,256.250 56.161 C 256.250 73.365,255.659 73.691,237.152 66.706 C 215.007 58.347,187.661 71.060,136.610 113.447 C 88.272 153.581,90.417 184.527,143.917 218.857 L 176.398 239.700 172.270 281.599 C 168.033 324.590,175.458 343.750,196.353 343.750 C 239.064 343.750,254.033 197.557,212.667 184.428 C 196.099 179.170,196.917 174.411,216.893 159.838 L 233.393 147.800 249.964 167.650 C 281.841 205.834,392.728 193.434,377.367 153.404 C 371.631 138.456,354.031 131.250,323.255 131.250 C 304.485 131.250,292.386 127.602,285.344 119.820 C 270.943 103.907,272.126 102.175,295.532 104.907 C 340.479 110.154,364.061 63.100,332.369 31.407 C 310.146 9.185,295.286 7.701,272.718 25.454 M317.500 45.000 C 328.749 56.249,326.541 73.736,312.953 81.008 C 297.688 89.177,282.846 83.624,277.847 67.873 C 270.436 44.523,299.981 27.481,317.500 45.000 M258.554 121.875 L 281.378 156.250 319.183 156.250 C 342.795 156.250,355.538 158.596,353.125 162.500 C 342.368 179.905,282.242 169.325,264.329 146.875 C 242.374 119.359,235.083 119.524,195.199 148.438 C 155.764 177.025,155.835 176.156,191.277 196.927 C 216.782 211.874,219.663 215.750,216.609 231.019 C 214.714 240.495,211.237 262.767,208.883 280.514 C 201.884 333.274,191.216 327.692,196.097 273.824 L 200.341 226.987 162.671 203.736 C 111.185 171.957,111.712 160.479,166.557 118.960 C 220.405 78.195,229.749 78.492,258.554 121.875 M42.301 225.367 C -30.442 263.775,-2.514 381.250,79.360 381.250 C 167.350 381.250,194.520 263.193,115.351 224.867 C 83.832 209.609,71.993 209.690,42.301 225.367 M287.625 223.447 C 203.158 265.884,234.424 387.345,327.737 379.277 C 407.741 372.360,429.595 266.635,359.256 226.798 C 329.187 209.767,316.074 209.154,287.625 223.447 M108.780 244.616 C 132.903 255.607,146.271 289.048,137.348 316.084 C 118.137 374.295,34.690 370.847,21.612 311.302 C 10.740 261.804,61.416 223.036,108.780 244.616 M367.121 260.548 C 406.365 309.586,354.087 377.433,295.817 353.086 C 234.921 327.642,261.385 230.675,326.829 239.453 C 345.495 241.956,357.110 248.037,367.121 260.548 " stroke="none"   fill-rule="evenodd"></path></g></svg>
