<svg id="svg" xmlns="http://www.w3.org/2000/svg" xmlns:xlink="http://www.w3.org/1999/xlink" width="400" height="400" viewBox="0, 0, 400,400" version="1.1"><g id="svgg"><path id="path0" d="M213.891 65.979 C 188.568 83.716,198.701 102.473,224.801 86.174 C 231.473 82.007,238.866 80.533,241.231 82.898 C 247.919 89.585,231.107 106.250,217.674 106.250 C 200.937 106.250,171.014 122.586,166.579 134.144 C 161.182 148.206,142.839 145.897,118.750 128.125 C 80.329 99.779,3.125 110.335,3.125 143.935 C 3.125 155.705,7.597 160.696,21.941 164.934 L 40.757 170.493 20.379 190.871 C -26.284 237.534,5.720 318.750,70.770 318.750 C 100.777 318.750,133.093 298.730,140.437 275.591 C 143.527 265.856,147.819 264.949,170.459 269.246 C 198.850 274.635,243.750 266.300,243.750 255.640 C 243.750 252.132,246.563 251.001,250.000 253.125 C 253.437 255.249,256.250 262.155,256.250 268.471 C 256.250 314.401,341.619 334.631,378.750 297.500 C 427.538 248.712,394.959 168.750,326.294 168.750 C 304.320 168.750,294.023 165.976,291.490 159.375 C 288.944 152.739,292.036 150.000,302.071 150.000 C 320.890 150.000,331.250 138.733,331.250 118.265 C 331.250 95.596,317.004 85.134,291.723 89.236 C 273.312 92.224,270.303 90.604,264.194 74.420 C 256.309 53.530,236.428 50.194,213.891 65.979 M306.250 118.750 C 306.250 122.188,300.625 125.000,293.750 125.000 C 286.875 125.000,281.250 122.188,281.250 118.750 C 281.250 115.313,286.875 112.500,293.750 112.500 C 300.625 112.500,306.250 115.313,306.250 118.750 M256.250 137.753 C 256.250 144.767,250.313 158.537,243.056 168.353 C 235.799 178.168,228.418 199.001,226.655 214.648 C 221.779 257.904,153.755 263.607,142.660 221.690 C 133.029 185.307,93.305 148.194,58.894 143.430 L 28.125 139.170 60.937 138.335 C 85.311 137.715,96.720 140.470,105.299 149.049 C 127.615 171.365,169.302 172.207,187.409 150.707 C 209.246 124.776,256.250 115.932,256.250 137.753 M275.000 184.006 C 275.000 188.960,272.232 194.723,268.849 196.814 C 265.466 198.905,260.095 209.618,256.913 220.620 L 251.127 240.625 250.564 220.228 C 250.009 200.153,260.959 175.000,270.253 175.000 C 272.864 175.000,275.000 179.053,275.000 184.006 M108.617 210.322 C 117.732 219.437,124.039 228.045,122.633 229.451 C 121.226 230.857,112.874 224.806,104.072 216.004 C 73.514 185.445,31.250 201.548,31.250 243.750 C 31.250 285.952,73.514 302.055,104.072 271.496 C 112.874 262.694,121.482 256.899,123.201 258.617 C 124.920 260.336,119.124 268.944,110.322 277.746 C 74.634 313.434,13.199 286.626,20.968 238.754 C 28.119 194.684,77.093 178.798,108.617 210.322 M356.792 201.761 C 398.754 233.979,379.030 293.750,326.436 293.750 C 288.355 293.750,258.330 240.365,284.293 218.818 C 292.391 212.098,292.709 213.621,286.769 230.660 C 273.664 268.254,314.065 300.286,349.567 280.449 C 385.303 260.482,372.854 210.099,329.649 199.843 L 309.375 195.030 328.125 194.589 C 338.438 194.346,351.337 197.574,356.792 201.761 M73.438 231.751 C 58.125 240.669,59.809 254.862,76.563 258.089 C 90.031 260.683,90.064 260.834,77.328 261.649 C 58.464 262.856,45.999 246.727,56.250 234.375 C 60.529 229.219,68.608 225.086,74.203 225.190 C 83.123 225.357,83.029 226.164,73.438 231.751 " stroke="none"   fill-rule="evenodd"></path></g></svg>
