<?xml version="1.0" standalone="no"?>
<!DOCTYPE svg PUBLIC "-//W3C//DTD SVG 20010904//EN"
 "http://www.w3.org/TR/2001/REC-SVG-20010904/DTD/svg10.dtd">
<svg version="1.0" xmlns="http://www.w3.org/2000/svg"
 width="64.000000pt" height="64.000000pt" viewBox="0 0 64.000000 64.000000"
 preserveAspectRatio="xMidYMid meet">

<g transform="translate(0.000000,64.000000) scale(0.100000,-0.100000)"
  stroke="none">
<path d="M167 472 c-127 -127 -167 -173 -167 -192 0 -36 244 -280 280 -280 19
0 65 40 193 168 l167 167 0 141 c0 95 -4 144 -12 152 -8 8 -57 12 -153 12
l-140 0 -168 -168z m441 9 l3 -124 -163 -164 -163 -163 -128 128 -127 128 163
162 164 163 124 -3 124 -3 3 -124z"/>
<path d="M492 569 c-35 -13 -48 -53 -29 -83 22 -33 52 -41 81 -22 61 39 17
130 -52 105z m37 -65 c-9 -11 -15 -12 -25 -3 -11 9 -12 15 -3 25 9 11 15 12
25 3 11 -9 12 -15 3 -25z"/>
<path d="M311 414 c-20 -14 -23 -23 -18 -60 3 -33 0 -48 -15 -63 -10 -12 -23
-21 -28 -21 -13 0 -13 27 0 35 13 8 1 35 -16 35 -17 0 -25 -33 -21 -89 l3 -44
56 -4 c74 -5 93 12 85 76 -5 40 -2 48 19 64 l25 19 -3 -29 c-2 -20 1 -28 12
-28 11 0 16 14 18 56 l3 56 -38 7 c-53 8 -56 8 -82 -10z m53 -38 c-7 -19 -34
-29 -34 -12 0 7 3 16 7 19 12 13 32 7 27 -7z m-45 -128 c-9 -18 -30 -24 -41
-12 -3 3 4 15 16 27 23 24 40 14 25 -15z"/>
</g>
</svg>
