<svg id="svg" xmlns="http://www.w3.org/2000/svg" xmlns:xlink="http://www.w3.org/1999/xlink" width="400" height="400" viewBox="0, 0, 400,400" version="1.1"><g id="svgg"><path id="path0" d="M27.765 88.083 C 25.442 91.841,35.409 107.008,49.915 121.788 C 82.225 154.710,80.727 175.887,43.193 216.818 C 29.982 231.224,17.367 250.209,15.159 259.006 C 12.951 267.803,8.637 275.000,5.572 275.000 C 2.508 275.000,0.000 280.983,0.000 288.295 C 0.000 300.491,2.596 301.341,31.387 298.574 C 68.778 294.982,67.392 300.793,29.653 305.845 C 12.500 308.142,2.623 312.838,1.384 319.285 C -0.323 328.165,20.290 329.195,199.740 329.195 C 389.855 329.195,400.000 328.614,400.000 317.723 C 400.000 308.649,395.099 306.230,376.563 306.154 C 363.672 306.102,349.371 303.679,344.783 300.771 C 339.920 297.688,349.692 296.756,368.221 298.537 C 397.424 301.343,400.000 300.513,400.000 288.295 C 400.000 277.134,396.238 274.968,376.563 274.801 C 337.754 274.472,328.105 262.669,345.505 236.811 C 415.244 133.173,416.654 99.634,350.471 118.615 C 333.968 123.348,317.733 121.786,278.637 111.706 C 237.613 101.128,217.885 99.433,173.604 102.678 C 126.175 106.154,115.842 105.021,94.166 93.962 C 67.035 80.121,34.467 77.238,27.765 88.083 M248.859 128.289 C 263.700 130.600,274.244 134.089,272.290 136.043 C 264.930 143.403,93.750 185.151,93.750 179.586 C 93.750 142.495,157.079 111.962,212.500 122.333 C 217.656 123.297,234.018 125.978,248.859 128.289 M365.009 157.813 C 323.466 239.641,281.919 282.488,257.031 269.168 C 247.149 263.879,240.374 263.867,230.558 269.121 C 222.988 273.171,206.338 274.575,191.495 272.414 C 159.337 267.732,153.163 267.732,121.005 272.414 C 106.162 274.575,89.512 273.171,81.942 269.121 C 72.210 263.912,65.331 263.890,55.715 269.036 C 26.632 284.601,38.867 246.777,70.688 222.744 C 82.205 214.046,340.297 141.085,370.473 137.996 C 373.139 137.723,370.680 146.641,365.009 157.813 M226.064 198.438 C 217.942 214.230,223.846 225.000,240.625 225.000 C 248.646 225.000,256.469 221.484,258.010 217.188 C 262.013 206.023,251.166 187.500,240.625 187.500 C 235.711 187.500,229.158 192.422,226.064 198.438 M179.167 204.167 C 171.249 212.084,175.036 229.926,185.485 233.936 C 198.761 239.031,215.441 222.929,210.426 209.860 C 206.627 199.960,186.956 196.378,179.167 204.167 M127.428 215.187 C 121.205 231.403,129.928 244.807,145.285 242.626 C 165.313 239.782,165.313 210.218,145.285 207.374 C 136.833 206.174,129.687 209.300,127.428 215.187 M145.909 301.563 C 142.187 307.585,86.652 307.508,77.159 301.467 C 73.191 298.941,87.688 296.875,109.375 296.875 C 131.062 296.875,147.503 298.984,145.909 301.563 M235.356 301.467 C 225.843 307.508,170.307 307.585,166.613 301.563 C 165.032 298.984,181.479 296.875,203.162 296.875 C 224.846 296.875,239.333 298.941,235.356 301.467 M322.841 301.467 C 318.872 303.992,304.375 306.059,290.625 306.059 C 276.875 306.059,262.378 303.992,258.409 301.467 C 254.441 298.941,268.938 296.875,290.625 296.875 C 312.312 296.875,326.809 298.941,322.841 301.467 " stroke="none"   fill-rule="evenodd"></path></g></svg>
