<svg id="svg" xmlns="http://www.w3.org/2000/svg" xmlns:xlink="http://www.w3.org/1999/xlink" width="400" height="400" viewBox="0, 0, 400,400" version="1.1"><g id="svgg"><path id="path0" d="M37.500 26.755 C 37.500 43.826,34.341 48.452,18.638 54.379 L -0.225 61.499 1.450 213.562 L 3.125 365.625 77.401 367.393 C 140.100 368.886,154.112 371.077,167.306 381.456 C 187.239 397.135,212.761 397.135,232.694 381.456 C 245.888 371.077,259.900 368.886,322.599 367.393 L 396.875 365.625 398.550 213.562 L 400.225 61.499 381.362 54.379 C 365.436 48.368,362.500 43.927,362.500 25.853 L 362.500 4.446 315.687 7.986 C 285.214 10.291,256.937 16.992,234.673 27.185 L 200.471 42.843 175.921 30.982 C 109.636 -1.044,37.500 -3.247,37.500 26.755 M117.357 34.434 C 138.935 39.522,163.544 48.241,172.045 53.811 L 187.500 63.938 187.500 188.640 C 187.500 304.500,186.724 313.107,176.563 310.028 C 147.576 301.246,107.083 294.041,85.938 293.903 L 62.500 293.750 62.500 159.375 C 62.500 55.992,64.302 25.021,70.313 25.092 C 74.609 25.143,95.779 29.347,117.357 34.434 M343.750 159.375 L 343.750 293.750 317.188 293.903 C 293.385 294.040,253.650 300.874,223.438 310.028 C 213.276 313.107,212.500 304.500,212.500 188.640 L 212.500 63.938 228.127 53.698 C 244.139 43.207,304.527 26.452,329.688 25.521 L 343.750 25.000 343.750 159.375 M37.500 193.750 C 37.500 259.063,39.609 312.550,42.188 312.611 C 81.109 313.533,158.936 326.483,176.826 335.014 C 198.987 345.582,201.013 345.582,223.174 335.014 C 241.064 326.483,318.891 313.533,357.813 312.611 C 360.391 312.550,362.500 259.063,362.500 193.750 C 362.500 92.361,363.871 75.000,371.875 75.000 C 379.924 75.000,381.250 94.444,381.250 212.500 L 381.250 350.000 309.122 350.000 C 244.730 350.000,235.010 351.467,218.497 363.675 L 200.000 377.351 181.503 363.675 C 164.990 351.467,155.270 350.000,90.878 350.000 L 18.750 350.000 18.750 212.500 C 18.750 94.444,20.076 75.000,28.125 75.000 C 36.129 75.000,37.500 92.361,37.500 193.750 " stroke="none"   fill-rule="evenodd"></path></g></svg>
