<svg id="svg" xmlns="http://www.w3.org/2000/svg" xmlns:xlink="http://www.w3.org/1999/xlink" width="400" height="400" viewBox="0, 0, 400,400" version="1.1"><g id="svgg"><path id="path0" d="M162.500 49.234 C 162.500 96.314,161.467 100.071,143.622 117.916 L 124.744 136.794 126.435 266.835 L 128.125 396.875 206.250 396.875 L 284.375 396.875 284.375 263.513 L 284.375 130.151 267.460 115.609 C 252.139 102.439,250.372 96.454,248.710 52.097 L 246.875 3.125 204.688 1.277 L 162.500 -0.571 162.500 49.234 M225.000 21.875 C 225.000 28.125,218.750 31.250,206.250 31.250 C 193.750 31.250,187.500 28.125,187.500 21.875 C 187.500 15.625,193.750 12.500,206.250 12.500 C 218.750 12.500,225.000 15.625,225.000 21.875 M225.000 80.291 C 225.000 99.310,229.570 109.038,246.875 126.856 L 268.750 149.380 268.750 265.315 L 268.750 381.250 206.250 381.250 L 143.750 381.250 143.750 264.800 L 143.750 148.351 165.625 127.720 C 183.658 110.713,187.500 102.624,187.500 81.670 C 187.500 57.592,188.490 56.250,206.250 56.250 C 223.834 56.250,225.000 57.745,225.000 80.291 M160.664 197.669 C 158.237 200.097,156.250 233.958,156.250 272.917 L 156.250 343.750 206.448 343.750 L 256.647 343.750 254.886 270.313 L 253.125 196.875 209.102 195.065 C 184.889 194.069,163.092 195.241,160.664 197.669 M237.500 228.125 C 237.500 235.208,229.861 237.500,206.250 237.500 C 182.639 237.500,175.000 235.208,175.000 228.125 C 175.000 221.042,182.639 218.750,206.250 218.750 C 229.861 218.750,237.500 221.042,237.500 228.125 M237.500 290.625 L 237.500 325.000 206.250 325.000 L 175.000 325.000 175.000 290.625 L 175.000 256.250 206.250 256.250 L 237.500 256.250 237.500 290.625 " stroke="none"   fill-rule="evenodd"></path></g></svg>
