<svg id="svg" xmlns="http://www.w3.org/2000/svg" xmlns:xlink="http://www.w3.org/1999/xlink" width="400" height="400" viewBox="0, 0, 400,400" version="1.1"><g id="svgg"><path id="path0" d="M74.060 76.854 C 16.808 121.649,-23.788 201.075,15.625 191.183 L 31.250 187.262 31.250 271.756 L 31.250 356.250 158.393 356.250 L 285.537 356.250 320.893 311.564 C 355.181 268.229,356.250 265.717,356.250 228.491 C 356.250 193.205,358.017 188.231,378.125 166.913 C 405.706 137.671,405.454 130.659,375.099 82.813 L 350.318 43.750 232.971 44.042 L 115.625 44.334 74.060 76.854 M296.875 87.500 L 278.911 106.250 178.518 106.082 L 78.125 105.914 100.000 87.500 L 121.875 69.086 218.357 68.918 L 314.839 68.750 296.875 87.500 M359.407 103.744 L 376.252 132.488 355.650 153.744 C 329.942 180.268,331.331 180.458,311.537 147.688 L 295.040 120.376 317.728 97.688 C 345.072 70.345,339.347 69.513,359.407 103.744 M268.750 231.250 L 268.750 331.250 159.375 331.250 L 50.000 331.250 50.000 231.250 L 50.000 131.250 159.375 131.250 L 268.750 131.250 268.750 231.250 M110.471 160.362 C 99.543 171.290,122.575 181.244,158.578 181.154 C 198.963 181.053,216.946 174.750,209.807 163.199 C 205.212 155.764,117.572 153.261,110.471 160.362 M324.493 209.062 C 338.641 217.805,331.934 259.921,312.500 284.375 L 293.750 307.969 293.773 236.797 L 293.797 165.625 305.767 185.256 C 312.350 196.052,320.777 206.765,324.493 209.062 " stroke="none"   fill-rule="evenodd"></path></g></svg>
