<svg id="svg" xmlns="http://www.w3.org/2000/svg" xmlns:xlink="http://www.w3.org/1999/xlink" width="400" height="400" viewBox="0, 0, 400,400" version="1.1"><g id="svgg"><path id="path0" d="M169.752 77.120 L 92.817 154.241 103.199 189.954 C 116.308 235.048,114.598 238.893,72.607 258.758 C 28.757 279.503,5.325 309.281,1.496 349.131 C -6.504 432.391,109.116 411.250,146.138 322.683 C 160.336 288.718,169.428 284.993,209.615 296.676 C 238.685 305.127,246.511 305.490,254.620 298.765 C 274.225 282.505,400.000 154.539,400.000 150.852 C 400.000 146.197,254.632 -0.000,250.004 -0.000 C 248.180 -0.000,212.067 34.704,169.752 77.120 M313.325 91.447 L 373.749 151.644 355.409 169.572 C 331.465 192.978,325.000 192.186,325.000 165.845 C 325.000 140.772,311.936 130.702,285.871 135.684 C 265.865 139.509,265.895 139.610,278.269 109.996 C 294.163 71.956,270.897 48.501,240.257 71.676 C 208.713 95.535,198.236 80.738,226.226 51.860 C 251.680 25.599,243.494 21.878,313.325 91.447 M259.160 98.438 C 241.969 138.633,255.587 166.384,288.910 159.065 C 307.073 155.076,307.419 155.451,303.209 174.620 C 300.708 186.004,301.710 197.655,305.591 202.331 C 310.438 208.171,309.820 213.713,303.356 222.388 C 294.915 233.715,290.977 230.954,231.824 172.229 C 182.547 123.308,170.714 108.289,176.223 101.652 C 181.077 95.802,185.215 95.215,189.735 99.735 C 198.729 108.729,218.873 107.523,237.500 96.875 C 258.509 84.865,264.771 85.317,259.160 98.438 M259.898 265.652 C 244.574 282.186,242.252 282.780,219.532 275.973 C 166.598 260.113,148.688 268.357,122.119 320.811 C 91.381 381.496,20.351 403.119,22.758 351.059 C 24.091 322.224,46.304 296.396,89.350 273.631 C 133.081 250.504,137.873 239.161,125.191 188.795 C 118.472 162.110,118.979 159.820,135.403 142.677 L 152.686 124.637 214.421 186.373 L 276.157 248.108 259.898 265.652 M44.698 330.532 C 32.047 338.549,38.761 359.091,54.779 361.376 C 71.575 363.772,79.820 347.714,68.684 334.295 C 59.845 323.645,56.414 323.107,44.698 330.532 " stroke="none"   fill-rule="evenodd"></path></g></svg>
