<svg id="svg" xmlns="http://www.w3.org/2000/svg" xmlns:xlink="http://www.w3.org/1999/xlink" width="400" height="400" viewBox="0, 0, 400,400" version="1.1"><g id="svgg"><path id="path0" d="M51.971 6.294 C 33.187 13.862,25.000 31.619,25.000 64.793 C 25.000 87.419,22.560 93.682,12.500 96.875 C -6.408 102.876,-6.408 190.616,12.500 195.561 C 24.037 198.578,25.036 204.290,25.463 269.727 C 25.718 308.721,27.827 353.281,30.151 368.750 L 34.375 396.875 71.875 396.875 C 104.769 396.875,110.133 395.148,115.545 382.813 C 125.797 359.444,278.655 361.110,287.619 384.688 C 293.274 399.563,296.073 400.501,329.570 398.750 L 365.462 396.875 370.887 371.875 C 373.870 358.125,377.652 312.422,379.290 270.313 C 381.646 209.780,384.126 193.750,391.135 193.750 C 404.364 193.750,403.881 101.097,390.625 96.010 C 385.469 94.032,381.234 84.979,381.215 75.894 C 381.156 47.694,368.754 12.942,356.387 6.324 C 341.799 -1.484,71.341 -1.511,51.971 6.294 M342.359 28.479 C 360.862 41.439,364.615 339.203,346.364 346.206 C 326.613 353.785,59.177 350.427,51.250 342.500 C 40.364 331.614,40.651 50.047,51.563 36.289 C 64.008 20.596,71.418 19.763,203.297 19.243 C 307.038 18.834,330.847 20.416,342.359 28.479 M103.175 37.344 C 91.843 73.048,98.636 75.463,205.158 73.594 L 303.125 71.875 303.125 50.000 L 303.125 28.125 205.158 26.406 C 111.506 24.763,107.015 25.245,103.175 37.344 M281.250 50.000 C 281.250 53.833,251.042 56.250,203.125 56.250 C 155.208 56.250,125.000 53.833,125.000 50.000 C 125.000 46.167,155.208 43.750,203.125 43.750 C 251.042 43.750,281.250 46.167,281.250 50.000 M63.750 88.750 C 53.465 99.035,53.465 225.965,63.750 236.250 C 75.432 247.932,318.568 246.705,334.743 234.883 C 349.079 224.404,355.887 128.320,344.410 98.438 L 337.809 81.250 204.530 81.250 C 109.201 81.250,69.114 83.386,63.750 88.750 M323.661 160.084 L 325.446 217.042 301.786 220.952 C 271.340 225.984,97.866 226.187,84.886 221.206 C 74.572 217.248,69.633 113.700,79.298 104.036 C 81.661 101.672,137.208 100.500,202.735 101.432 L 321.875 103.125 323.661 160.084 M66.594 273.930 C 54.537 287.252,52.918 319.168,63.750 330.000 C 85.383 351.633,131.250 330.510,131.250 298.914 C 131.250 266.906,88.055 250.215,66.594 273.930 M281.250 275.000 C 265.735 290.515,265.347 306.913,280.065 325.089 C 303.397 353.902,345.833 337.335,345.833 299.413 C 345.833 264.782,306.382 249.868,281.250 275.000 M106.250 299.631 C 106.250 316.460,94.427 322.105,83.036 310.714 C 71.645 299.323,77.290 287.500,94.119 287.500 C 101.960 287.500,106.250 291.790,106.250 299.631 M322.901 297.295 C 324.968 302.682,323.944 309.806,320.625 313.125 C 311.651 322.099,293.750 312.912,293.750 299.331 C 293.750 284.684,317.427 283.030,322.901 297.295 M90.625 375.000 C 92.872 378.636,86.646 381.250,75.738 381.250 C 65.425 381.250,55.249 378.438,53.125 375.000 C 50.878 371.364,57.104 368.750,68.012 368.750 C 78.325 368.750,88.501 371.563,90.625 375.000 M350.000 375.000 C 350.000 378.438,341.563 381.250,331.250 381.250 C 320.938 381.250,312.500 378.438,312.500 375.000 C 312.500 371.563,320.938 368.750,331.250 368.750 C 341.563 368.750,350.000 371.563,350.000 375.000 " stroke="none"   fill-rule="evenodd"></path></g></svg>
