<svg id="svg" xmlns="http://www.w3.org/2000/svg" xmlns:xlink="http://www.w3.org/1999/xlink" width="400" height="400" viewBox="0, 0, 400,400" version="1.1"><g id="svgg"><path id="path0" d="M18.750 27.456 C 18.750 46.096,21.760 56.068,28.125 58.510 C 36.138 61.585,37.500 86.645,37.500 231.054 L 37.500 400.000 68.750 400.000 L 100.000 400.000 100.000 378.125 L 100.000 356.250 200.000 356.250 L 300.000 356.250 300.000 378.125 L 300.000 400.000 331.250 400.000 L 362.500 400.000 362.500 231.919 C 362.500 88.279,363.863 63.314,371.875 60.240 C 378.300 57.774,381.250 47.730,381.250 28.321 L 381.250 0.000 200.000 0.000 L 18.750 0.000 18.750 27.456 M356.250 28.125 C 356.250 36.208,334.722 37.500,200.000 37.500 C 65.278 37.500,43.750 36.208,43.750 28.125 C 43.750 20.042,65.278 18.750,200.000 18.750 C 334.722 18.750,356.250 20.042,356.250 28.125 M187.500 196.875 L 187.500 331.250 121.875 331.250 L 56.250 331.250 56.250 196.875 L 56.250 62.500 121.875 62.500 L 187.500 62.500 187.500 196.875 M343.750 196.875 L 343.750 331.250 278.125 331.250 L 212.500 331.250 212.500 196.875 L 212.500 62.500 278.125 62.500 L 343.750 62.500 343.750 196.875 M152.936 170.115 C 147.292 184.821,152.258 234.375,159.375 234.375 C 167.863 234.375,171.129 174.879,163.083 166.833 C 158.685 162.435,155.485 163.470,152.936 170.115 M234.186 170.115 C 228.542 184.821,233.508 234.375,240.625 234.375 C 249.113 234.375,252.379 174.879,244.333 166.833 C 239.935 162.435,236.735 163.470,234.186 170.115 M75.000 369.271 C 75.000 384.502,60.395 382.349,57.354 366.670 C 56.158 360.502,59.346 356.250,65.167 356.250 C 70.964 356.250,75.000 361.594,75.000 369.271 M343.750 368.750 C 343.750 375.694,339.583 381.250,334.375 381.250 C 329.167 381.250,325.000 375.694,325.000 368.750 C 325.000 361.806,329.167 356.250,334.375 356.250 C 339.583 356.250,343.750 361.806,343.750 368.750 " stroke="none"   fill-rule="evenodd"></path></g></svg>
