<svg id="svg" xmlns="http://www.w3.org/2000/svg" xmlns:xlink="http://www.w3.org/1999/xlink" width="400" height="400" viewBox="0, 0, 400,400" version="1.1"><g id="svgg"><path id="path0" d="M168.750 43.750 C 161.875 50.625,156.250 58.755,156.250 61.816 C 156.250 68.528,113.402 74.370,111.036 67.980 C 104.688 50.834,44.787 61.046,22.812 83.021 L -0.000 105.833 -0.000 206.352 C -0.000 362.039,-7.603 356.250,196.875 356.250 C 406.894 356.250,400.000 361.132,400.000 212.411 C 400.000 103.770,393.760 81.250,363.660 81.250 C 359.584 81.250,356.250 78.110,356.250 74.271 C 356.250 70.198,349.746 68.536,340.625 70.280 C 332.031 71.922,325.000 70.710,325.000 67.585 C 325.000 33.149,198.628 13.872,168.750 43.750 M311.210 70.313 C 317.470 83.399,323.893 87.500,338.125 87.500 C 379.922 87.500,387.500 106.474,387.500 211.126 C 387.500 340.642,403.188 330.691,197.809 331.456 C -0.535 332.196,18.750 345.121,18.750 211.444 L 18.750 105.669 37.460 95.022 C 47.751 89.166,56.189 82.266,56.210 79.688 C 56.232 77.109,66.094 75.000,78.125 75.000 C 90.156 75.000,100.000 77.813,100.000 81.250 C 100.000 99.181,165.930 87.710,173.174 68.518 L 180.339 49.536 241.664 51.331 C 301.663 53.086,303.165 53.496,311.210 70.313 M180.469 121.493 C 118.189 163.814,127.506 269.368,196.278 300.601 C 312.935 353.580,402.020 190.223,293.746 121.872 C 259.657 100.353,211.816 100.193,180.469 121.493 M41.887 116.447 C 36.695 121.638,48.664 143.750,56.666 143.750 C 67.137 143.750,71.127 124.090,61.848 118.215 C 51.381 111.587,47.123 111.210,41.887 116.447 M272.080 127.808 C 364.294 166.337,334.250 293.750,232.951 293.750 C 183.227 293.750,156.250 264.074,156.250 209.375 C 156.250 143.240,213.138 103.180,272.080 127.808 " stroke="none"   fill-rule="evenodd"></path></g></svg>
