<svg id="svg" xmlns="http://www.w3.org/2000/svg" xmlns:xlink="http://www.w3.org/1999/xlink" width="400" height="400" viewBox="0, 0, 400,400" version="1.1"><g id="svgg"><path id="path0" d="M237.545 53.706 C 207.773 66.617,191.215 83.363,177.530 114.406 C 171.172 128.826,163.173 142.574,159.755 144.957 C 156.336 147.339,152.040 164.032,150.207 182.053 L 146.875 214.818 107.978 178.764 C 81.861 154.556,69.540 138.552,70.478 130.052 C 73.518 102.506,52.127 101.636,24.925 128.198 C -4.725 157.150,-6.544 177.011,20.173 180.089 C 44.802 182.927,150.000 312.422,150.000 339.902 C 150.000 357.398,173.189 362.500,252.714 362.500 C 350.667 362.500,356.250 358.947,356.250 296.602 C 356.250 261.627,358.515 253.262,371.890 238.837 C 454.962 149.247,350.183 4.860,237.545 53.706 M332.104 78.567 C 374.737 100.613,394.074 174.341,367.188 212.328 L 356.250 227.781 356.250 194.070 C 356.250 141.466,349.829 137.500,264.656 137.500 C 184.083 137.500,180.284 134.522,213.135 97.107 C 243.262 62.794,288.092 55.807,332.104 78.567 M80.430 183.180 C 134.646 239.476,168.750 250.873,168.750 212.696 L 168.750 193.750 250.000 193.750 L 331.250 193.750 331.250 265.625 L 331.250 337.500 253.209 337.500 L 175.168 337.500 166.581 317.188 C 154.574 288.783,84.221 197.267,55.483 172.668 C 36.736 156.622,33.199 150.551,39.139 144.611 C 45.079 138.671,47.234 138.772,49.102 145.078 C 50.412 149.504,64.510 166.650,80.430 183.180 M292.188 167.135 C 268.984 168.337,231.016 168.337,207.813 167.135 C 184.609 165.932,203.594 164.948,250.000 164.948 C 296.406 164.948,315.391 165.932,292.188 167.135 " stroke="none"   fill-rule="evenodd"></path></g></svg>
