<svg id="svg" xmlns="http://www.w3.org/2000/svg" xmlns:xlink="http://www.w3.org/1999/xlink" width="400" height="400" viewBox="0, 0, 400,400" version="1.1"><g id="svgg"><path id="path0" d="M99.028 101.563 C 93.742 105.859,83.191 119.826,75.580 132.600 C 64.881 150.558,56.513 156.767,38.684 159.978 C 3.613 166.293,-0.000 171.806,0.000 219.004 C 0.000 270.297,3.612 281.250,20.526 281.250 C 27.642 281.250,40.900 290.156,49.987 301.042 C 72.854 328.432,101.416 328.432,125.890 301.042 C 143.317 281.538,144.409 281.250,201.019 281.250 C 257.874 281.250,258.635 281.453,274.987 301.042 C 297.955 328.553,327.045 328.553,350.013 301.042 C 359.100 290.156,370.690 281.250,375.768 281.250 C 392.948 281.250,400.000 266.383,400.000 230.161 C 400.000 189.743,394.992 184.788,337.500 168.312 C 318.935 162.992,297.317 148.950,273.901 127.001 L 238.428 93.750 173.534 93.750 C 130.910 93.750,105.341 96.431,99.028 101.563 M165.625 137.500 L 165.625 159.375 128.646 159.375 C 86.729 159.375,81.231 153.405,100.541 128.857 C 122.371 101.104,165.625 106.848,165.625 137.500 M250.481 130.769 C 277.933 158.222,274.422 163.367,229.688 161.236 L 190.625 159.375 188.685 135.938 C 186.052 104.127,220.922 101.210,250.481 130.769 M360.938 195.473 C 379.174 205.437,381.250 209.429,381.250 234.536 C 381.250 267.517,374.156 269.609,350.000 243.750 C 326.185 218.256,298.815 218.256,275.000 243.750 C 258.042 261.904,255.691 262.500,201.098 262.500 C 146.780 262.500,144.024 261.812,125.962 243.750 C 113.000 230.789,101.084 225.000,87.363 225.000 C 73.369 225.000,62.350 230.530,50.000 243.750 C 23.910 271.680,18.750 268.004,18.750 221.491 L 18.750 180.482 179.688 182.428 C 319.673 184.122,343.269 185.820,360.938 195.473 M112.280 255.839 C 122.436 274.815,119.987 286.401,103.544 297.175 C 75.491 315.556,47.170 286.664,65.627 258.494 C 77.504 240.368,103.217 238.904,112.280 255.839 M333.929 253.571 C 350.032 269.675,335.154 306.250,312.500 306.250 C 304.185 306.250,281.250 283.013,281.250 274.589 C 281.250 247.121,314.294 233.937,333.929 253.571 " stroke="none"   fill-rule="evenodd"></path></g></svg>
