<svg id="svg" xmlns="http://www.w3.org/2000/svg" xmlns:xlink="http://www.w3.org/1999/xlink" width="400" height="400" viewBox="0, 0, 400,400" version="1.1"><g id="svgg"><path id="path0" d="M18.269 68.269 L 0.000 86.538 -0.000 195.305 L -0.000 304.071 16.116 319.223 C 32.124 334.274,33.243 334.388,183.303 336.301 C 414.391 339.247,400.000 348.694,400.000 194.062 L 400.000 82.361 380.770 66.181 L 361.541 50.000 199.040 50.000 L 36.538 50.000 18.269 68.269 M369.820 85.344 C 398.489 111.288,390.910 112.500,200.000 112.500 C 100.312 112.500,18.750 110.313,18.750 107.641 C 18.750 104.968,23.128 96.531,28.479 88.891 C 41.699 70.017,349.352 66.820,369.820 85.344 M381.250 226.070 C 381.250 318.775,394.331 312.500,201.086 312.500 C 5.792 312.500,18.750 318.565,18.750 227.156 L 18.750 162.500 200.000 162.500 L 381.250 162.500 381.250 226.070 " stroke="none"   fill-rule="evenodd"></path></g></svg>
