<svg id="svg" xmlns="http://www.w3.org/2000/svg" xmlns:xlink="http://www.w3.org/1999/xlink" width="400" height="400" viewBox="0, 0, 400,400" version="1.1"><g id="svgg"><path id="path0" d="M112.625 10.947 C 69.444 32.642,49.441 90.213,70.827 131.250 C 76.703 142.525,77.322 152.964,73.052 168.750 C 58.020 224.314,79.527 394.566,102.128 398.919 C 124.113 403.153,129.785 389.014,134.392 318.485 C 136.857 280.757,141.001 248.574,143.601 246.967 C 156.474 239.011,168.424 269.237,173.869 323.523 C 183.449 419.028,218.418 435.018,226.348 347.518 C 232.433 280.376,234.775 277.067,240.292 327.818 C 246.656 386.371,252.462 400.000,271.043 400.000 C 289.397 400.000,291.467 392.976,297.367 310.655 L 301.754 249.435 321.703 241.100 C 361.977 224.272,379.345 185.752,372.253 128.985 C 366.000 78.939,360.695 74.490,335.913 98.510 C 307.612 125.940,279.349 126.539,265.625 100.000 C 254.485 78.457,240.841 75.830,231.430 93.414 C 225.292 104.882,223.604 105.029,201.956 95.984 C 180.551 87.040,168.480 87.297,132.813 97.453 C 121.769 100.598,118.750 98.916,118.750 89.620 C 118.750 50.477,166.938 33.054,210.817 56.331 C 244.613 74.260,258.931 66.606,243.532 38.842 C 223.567 2.844,156.990 -11.343,112.625 10.947 M162.500 24.562 C 105.827 35.894,74.402 86.803,106.276 115.648 C 117.516 125.820,121.383 126.132,143.953 118.683 C 193.188 102.434,214.919 114.498,219.324 160.525 C 223.649 205.722,235.154 226.173,262.667 237.569 C 281.032 245.176,282.269 247.518,278.845 268.215 C 276.806 280.541,275.107 305.391,275.069 323.438 C 274.968 371.380,264.971 363.521,260.156 311.714 C 255.276 259.214,253.891 256.250,234.226 256.250 C 213.117 256.250,206.250 273.280,206.250 325.631 C 206.250 384.210,202.456 379.134,194.910 310.461 C 183.110 203.077,124.228 184.973,115.406 286.016 C 106.429 388.827,95.672 367.850,94.489 245.228 C 94.005 195.041,96.351 164.415,101.285 156.515 C 107.513 146.542,106.725 142.134,96.740 131.100 C 59.504 89.955,103.909 18.153,165.625 19.713 C 183.883 20.175,183.800 20.302,162.500 24.562 M295.577 141.513 C 321.967 142.232,330.168 139.868,338.924 129.013 C 349.441 115.973,349.726 116.612,349.861 153.598 C 350.104 219.864,269.561 253.740,247.632 196.595 C 238.431 172.616,243.466 114.723,253.588 128.125 C 260.709 137.554,271.026 140.843,295.577 141.513 M264.599 166.045 C 260.088 177.800,271.149 190.618,280.705 184.712 C 291.007 178.345,288.852 156.250,277.929 156.250 C 272.665 156.250,266.666 160.658,264.599 166.045 M304.490 164.322 C 302.656 169.100,303.425 176.679,306.197 181.165 C 313.208 192.509,332.648 183.749,330.078 170.403 C 327.479 156.911,309.017 152.524,304.490 164.322 " stroke="none"   fill-rule="evenodd"></path></g></svg>
