<svg id="svg" xmlns="http://www.w3.org/2000/svg" xmlns:xlink="http://www.w3.org/1999/xlink" width="400" height="400" viewBox="0, 0, 400,400" version="1.1"><g id="svgg"><path id="path0" d="M322.238 5.663 C 320.313 8.778,313.115 9.856,306.244 8.059 C 297.853 5.865,293.750 7.871,293.750 14.167 C 293.750 19.323,288.125 25.013,281.250 26.811 C 274.375 28.609,268.750 34.562,268.750 40.040 C 268.750 45.518,266.082 50.000,262.822 50.000 C 254.213 50.000,225.000 78.311,225.000 86.654 C 225.000 90.557,220.781 93.750,215.625 93.750 C 210.469 93.750,206.250 97.641,206.250 102.396 C 206.250 111.332,185.345 120.681,168.568 119.248 C 163.311 118.799,149.735 128.002,138.397 139.699 L 117.784 160.966 102.926 146.108 C 65.819 109.001,27.926 145.021,53.020 193.548 C 63.909 214.604,54.936 244.190,31.126 265.737 C 12.017 283.031,0.000 308.434,0.000 331.538 C -0.000 395.151,73.675 423.502,123.419 379.031 C 136.320 367.498,150.007 359.167,153.835 360.518 C 162.156 363.453,275.000 252.583,275.000 241.472 C 275.000 227.453,290.478 200.098,298.438 200.049 C 302.734 200.022,306.250 196.109,306.250 191.354 C 306.250 186.599,311.875 181.237,318.750 179.439 C 325.625 177.641,331.250 171.688,331.250 166.210 C 331.250 160.732,335.469 156.250,340.625 156.250 C 345.781 156.250,350.000 152.031,350.000 146.875 C 350.000 141.719,353.111 137.500,356.913 137.500 C 363.098 137.500,389.811 108.373,391.165 100.153 C 391.462 98.350,394.077 91.419,396.977 84.750 C 400.424 76.822,399.700 71.775,394.885 70.170 C 390.446 68.690,389.027 61.716,391.313 52.608 C 394.054 41.688,392.521 37.500,385.781 37.500 C 380.654 37.500,374.891 31.510,372.977 24.188 C 370.735 15.617,366.187 12.146,360.205 14.442 C 355.095 16.403,347.551 13.955,343.442 9.003 C 334.879 -1.314,327.289 -2.510,322.238 5.663 M350.606 50.841 C 366.278 64.763,364.549 64.691,335.642 50.224 C 318.330 41.560,317.618 42.012,262.981 96.396 C 229.532 129.690,206.121 148.598,203.533 144.409 C 201.184 140.609,202.096 137.500,205.559 137.500 C 214.450 137.500,243.750 109.379,243.750 100.846 C 243.750 96.943,246.418 93.750,249.678 93.750 C 258.287 93.750,287.500 65.439,287.500 57.096 C 287.500 53.193,291.719 50.000,296.875 50.000 C 302.031 50.000,306.250 47.188,306.250 43.750 C 306.250 32.542,335.220 37.174,350.606 50.841 M333.524 73.107 C 339.148 78.731,243.641 175.000,232.438 175.000 C 218.905 175.000,225.276 165.913,273.898 115.865 C 319.475 68.951,325.236 64.820,333.524 73.107 M355.246 100.004 C 350.683 110.314,343.416 118.750,339.099 118.750 C 334.782 118.750,331.250 122.641,331.250 127.396 C 331.250 132.151,325.625 137.513,318.750 139.311 C 311.875 141.109,306.250 147.062,306.250 152.540 C 306.250 158.018,302.031 162.500,296.875 162.500 C 291.719 162.500,287.500 166.719,287.500 171.875 C 287.500 177.031,283.711 181.250,279.080 181.250 C 274.449 181.250,267.608 187.578,263.878 195.313 C 260.060 203.230,256.911 205.465,256.673 200.427 C 256.440 195.505,278.750 168.427,306.250 140.253 C 333.750 112.079,356.472 83.762,356.743 77.326 C 357.021 70.734,358.614 69.038,360.391 73.441 C 362.125 77.740,359.810 89.694,355.246 100.004 M229.578 206.754 L 256.031 235.383 206.663 285.553 L 157.296 335.722 111.708 289.828 L 66.120 243.933 87.411 221.967 C 113.741 194.801,112.534 194.717,131.250 225.000 C 145.948 248.781,158.064 255.984,164.863 244.982 C 166.569 242.223,159.293 226.634,148.694 210.340 L 129.423 180.716 146.919 162.454 L 164.415 144.192 183.770 161.158 C 194.415 170.490,215.029 191.008,229.578 206.754 M89.498 164.783 C 96.723 175.808,97.382 181.368,92.092 186.658 C 81.671 197.079,77.818 195.532,69.674 177.657 C 57.017 149.879,72.953 139.531,89.498 164.783 M62.500 281.250 C 62.500 284.688,59.760 287.500,56.411 287.500 C 48.789 287.500,31.250 320.706,31.250 335.135 C 31.250 368.458,80.702 380.320,106.250 353.125 C 114.323 344.531,123.954 337.576,127.652 337.669 C 144.349 338.089,86.656 381.250,69.397 381.250 C 36.015 381.250,10.582 339.988,25.803 310.527 C 40.157 282.744,62.500 264.919,62.500 281.250 M96.934 306.315 C 107.975 318.515,107.880 319.334,93.688 334.440 C 65.868 364.054,39.286 345.236,63.216 312.868 C 79.909 290.290,82.054 289.873,96.934 306.315 " stroke="none"   fill-rule="evenodd"></path></g></svg>
