<svg id="svg" xmlns="http://www.w3.org/2000/svg" xmlns:xlink="http://www.w3.org/1999/xlink" width="400" height="400" viewBox="0, 0, 400,400" version="1.1"><g id="svgg"><path id="path0" d="M141.220 15.625 C 125.096 26.567,109.764 31.250,90.063 31.250 C 33.306 31.250,9.241 91.452,49.790 132.001 C 70.081 152.293,70.208 157.920,51.861 223.870 C 40.310 265.389,44.084 280.736,73.515 311.928 C 86.363 325.544,104.604 346.389,114.051 358.250 C 161.975 418.418,257.348 410.093,296.436 342.329 C 302.925 331.080,317.869 313.740,329.644 303.798 C 353.666 283.516,355.034 262.019,337.138 185.992 L 328.692 150.109 348.721 129.444 C 387.514 89.420,364.041 31.250,309.097 31.250 C 290.292 31.250,274.645 26.391,258.780 15.625 C 226.335 -6.393,173.665 -6.393,141.220 15.625 M241.456 36.076 C 248.788 42.016,258.063 53.269,262.066 61.083 C 268.818 74.262,270.331 74.601,282.939 65.771 C 301.476 52.786,320.862 53.819,334.147 68.498 C 349.914 85.921,342.285 111.482,318.882 119.640 C 301.428 125.725,300.847 127.177,304.274 156.111 L 307.843 186.245 252.749 190.834 C 222.448 193.359,173.649 192.938,144.308 189.899 L 90.960 184.375 92.616 156.250 C 94.124 130.658,92.560 127.166,75.261 117.478 C 54.843 106.044,48.952 78.548,63.750 63.750 C 74.663 52.837,100.245 54.570,114.483 67.188 C 125.057 76.557,127.290 76.790,130.060 68.810 C 143.673 29.593,209.553 10.234,241.456 36.076 M286.444 231.390 C 288.097 242.142,291.505 244.100,303.382 241.119 C 335.684 233.012,337.676 274.591,305.665 288.761 C 294.157 293.855,284.977 304.331,280.720 317.229 C 255.859 392.560,139.036 390.266,115.900 313.994 C 113.543 306.222,103.417 295.624,93.398 290.443 C 61.321 273.856,60.885 240.625,92.743 240.625 C 104.611 240.625,109.888 237.045,111.167 228.125 C 114.058 207.954,283.326 211.106,286.444 231.390 M127.102 247.286 C 118.469 269.785,140.356 286.634,159.628 272.325 C 169.421 265.054,170.495 260.967,164.987 251.929 C 155.649 236.605,132.299 233.744,127.102 247.286 M233.352 247.286 C 224.719 269.785,246.606 286.634,265.878 272.325 C 275.671 265.054,276.745 260.967,271.237 251.929 C 261.899 236.605,238.549 233.744,233.352 247.286 " stroke="none"   fill-rule="evenodd"></path></g></svg>
