<svg id="svg" xmlns="http://www.w3.org/2000/svg" xmlns:xlink="http://www.w3.org/1999/xlink" width="400" height="400" viewBox="0, 0, 400,400" version="1.1"><g id="svgg"><path id="path0" d="M98.047 4.036 C 87.132 14.951,93.675 50.000,106.627 50.000 C 117.645 50.000,119.224 46.685,117.565 27.046 C 115.705 5.037,107.141 -5.058,98.047 4.036 M143.750 25.000 C 143.750 43.056,146.354 50.000,153.125 50.000 C 159.896 50.000,162.500 43.056,162.500 25.000 C 162.500 6.944,159.896 0.000,153.125 0.000 C 146.354 0.000,143.750 6.944,143.750 25.000 M191.395 9.622 C 182.961 31.600,187.054 50.000,200.377 50.000 C 211.395 50.000,212.974 46.685,211.315 27.046 C 209.253 2.652,197.885 -7.291,191.395 9.622 M241.667 4.167 C 233.027 12.806,237.253 50.000,246.875 50.000 C 253.646 50.000,256.250 43.056,256.250 25.000 C 256.250 1.541,251.326 -5.493,241.667 4.167 M291.667 4.167 C 283.027 12.806,287.253 50.000,296.875 50.000 C 303.646 50.000,306.250 43.056,306.250 25.000 C 306.250 1.541,301.326 -5.493,291.667 4.167 M63.750 63.750 C 58.385 69.115,56.250 109.239,56.250 204.700 L 56.250 338.150 75.000 344.687 C 91.593 350.471,93.750 354.081,93.750 376.070 C 93.750 396.392,95.742 400.522,104.688 398.751 C 112.761 397.152,115.625 390.483,115.625 373.288 C 115.625 353.294,117.619 349.992,129.688 349.996 C 141.926 349.999,143.750 353.242,143.750 375.000 C 143.750 393.056,146.354 400.000,153.125 400.000 C 159.896 400.000,162.500 393.056,162.500 375.000 C 162.500 353.242,164.324 349.999,176.563 349.996 C 188.631 349.992,190.625 353.294,190.625 373.288 C 190.625 390.483,193.489 397.152,201.563 398.751 C 210.544 400.529,212.500 396.363,212.500 375.458 C 212.500 354.167,214.546 350.000,225.000 350.000 C 235.417 350.000,237.500 354.167,237.500 375.000 C 237.500 393.056,240.104 400.000,246.875 400.000 C 253.646 400.000,256.250 393.056,256.250 375.000 C 256.250 352.500,257.813 350.000,271.875 350.000 C 285.938 350.000,287.500 352.500,287.500 375.000 C 287.500 393.056,290.104 400.000,296.875 400.000 C 303.607 400.000,306.250 393.123,306.250 375.611 C 306.250 354.384,308.572 350.413,324.168 344.977 C 335.552 341.008,343.572 332.808,346.162 322.490 C 349.697 308.406,353.541 306.250,375.119 306.250 C 393.069 306.250,400.000 303.638,400.000 296.875 C 400.000 290.104,393.056 287.500,375.000 287.500 C 352.500 287.500,350.000 285.938,350.000 271.875 C 350.000 257.813,352.500 256.250,375.000 256.250 C 393.783 256.250,400.000 253.755,400.000 246.219 C 400.000 238.284,394.773 236.686,375.000 238.571 C 352.457 240.721,350.000 239.557,350.000 226.728 C 350.000 214.253,353.136 212.500,375.458 212.500 C 396.363 212.500,400.529 210.544,398.751 201.563 C 397.152 193.489,390.483 190.625,373.288 190.625 C 353.294 190.625,349.992 188.631,349.996 176.563 C 349.999 164.324,353.242 162.500,375.000 162.500 C 393.056 162.500,400.000 159.896,400.000 153.125 C 400.000 146.354,393.056 143.750,375.000 143.750 C 353.242 143.750,349.999 141.926,349.996 129.688 C 349.992 117.619,353.294 115.625,373.288 115.625 C 390.483 115.625,397.152 112.761,398.751 104.688 C 400.524 95.731,396.383 93.750,375.879 93.750 C 355.382 93.750,350.047 91.200,346.454 79.688 C 344.040 71.953,338.929 63.559,335.095 61.033 C 322.672 52.849,72.143 55.357,63.750 63.750 M323.570 201.563 L 325.264 325.000 200.132 325.000 L 75.000 325.000 75.000 204.167 C 75.000 137.708,76.934 81.399,79.298 79.036 C 81.661 76.672,137.208 75.500,202.735 76.432 L 321.875 78.125 323.570 201.563 M3.125 100.000 C -3.769 111.154,6.508 118.750,28.494 118.750 C 45.833 118.750,50.000 116.328,50.000 106.250 C 50.000 92.604,10.917 87.393,3.125 100.000 M120.094 201.563 L 121.875 265.625 200.000 265.625 L 278.125 265.625 279.906 201.563 L 281.687 137.500 200.000 137.500 L 118.313 137.500 120.094 201.563 M0.000 153.125 C 0.000 159.896,6.944 162.500,25.000 162.500 C 43.056 162.500,50.000 159.896,50.000 153.125 C 50.000 146.354,43.056 143.750,25.000 143.750 C 6.944 143.750,0.000 146.354,0.000 153.125 M259.375 203.125 L 259.375 246.875 201.563 248.672 L 143.750 250.469 143.750 203.125 L 143.750 155.781 201.563 157.578 L 259.375 159.375 259.375 203.125 M7.813 191.503 C -10.731 199.309,0.355 212.500,25.458 212.500 C 46.328 212.500,50.543 210.529,48.842 201.563 C 46.773 190.651,23.431 184.929,7.813 191.503 M4.167 241.667 C -5.493 251.326,1.541 256.250,25.000 256.250 C 43.056 256.250,50.000 253.646,50.000 246.875 C 50.000 237.253,12.806 233.027,4.167 241.667 M4.167 291.667 C -5.493 301.326,1.541 306.250,25.000 306.250 C 43.056 306.250,50.000 303.646,50.000 296.875 C 50.000 287.253,12.806 283.027,4.167 291.667 " stroke="none"   fill-rule="evenodd"></path></g></svg>
