<svg id="svg" xmlns="http://www.w3.org/2000/svg" xmlns:xlink="http://www.w3.org/1999/xlink" width="400" height="400" viewBox="0, 0, 400,400" version="1.1"><g id="svgg"><path id="path0" d="M82.302 16.271 C -59.767 87.067,-8.383 304.465,150.777 305.976 C 232.324 306.750,294.231 250.740,305.906 165.625 L 310.193 134.375 320.721 168.322 C 328.205 192.452,331.250 224.714,331.250 279.884 L 331.250 357.500 352.500 378.750 C 373.871 400.121,400.000 407.205,400.000 391.628 C 400.000 387.024,392.823 379.986,384.050 375.989 C 358.616 364.401,347.958 330.269,352.555 275.131 C 367.928 90.730,219.049 -51.873,82.302 16.271 M214.888 39.358 C 308.907 91.933,304.401 222.446,206.863 271.796 C 182.673 284.034,105.634 283.134,92.964 270.464 C 87.444 264.944,88.765 264.001,98.461 266.537 C 131.043 275.057,152.076 240.480,134.723 206.923 C 126.610 191.233,120.772 187.500,104.355 187.500 C 60.752 187.500,43.477 219.011,70.313 249.597 L 84.375 265.625 66.579 250.000 C -2.469 189.375,12.284 77.177,95.002 33.842 C 121.259 20.086,134.174 22.076,118.750 37.500 C 84.801 71.449,139.480 123.032,177.617 93.033 C 206.548 70.276,198.911 36.683,162.500 26.540 L 134.375 18.705 162.321 22.148 C 177.692 24.041,201.347 31.786,214.888 39.358 M171.306 55.329 C 173.117 58.260,170.636 65.995,165.791 72.517 C 155.755 86.027,136.000 78.790,132.354 60.268 C 130.176 49.201,164.805 44.811,171.306 55.329 M44.204 97.718 C 29.929 115.865,27.038 149.538,38.750 161.250 C 61.583 184.083,117.930 153.734,110.162 122.787 C 100.171 82.980,66.010 69.996,44.204 97.718 M212.659 93.591 C 181.360 124.890,198.188 168.750,241.495 168.750 C 266.328 168.750,278.090 151.387,272.429 123.084 C 264.637 84.120,236.174 70.076,212.659 93.591 M81.319 118.879 C 89.491 134.149,84.639 143.750,68.750 143.750 C 53.413 143.750,50.259 137.573,56.782 120.313 C 63.374 102.871,72.468 102.340,81.319 118.879 M246.206 116.136 C 253.091 134.078,250.171 143.750,237.869 143.750 C 222.583 143.750,216.813 134.700,221.893 118.694 C 226.618 103.805,240.898 102.303,246.206 116.136 M137.789 140.277 C 126.380 154.024,134.426 168.750,153.344 168.750 C 167.358 168.750,169.310 166.405,167.603 151.616 C 165.342 132.033,149.600 126.046,137.789 140.277 M176.268 195.347 C 144.372 233.780,175.986 281.489,218.709 259.396 C 262.930 236.529,254.857 187.500,206.871 187.500 C 193.621 187.500,179.850 191.031,176.268 195.347 M219.261 212.500 C 229.970 212.500,225.066 228.202,211.763 236.510 C 195.262 246.815,184.541 237.920,190.569 218.927 C 193.327 210.237,198.236 206.634,204.201 208.923 C 209.328 210.890,216.105 212.500,219.261 212.500 M115.161 222.920 C 117.360 228.651,116.557 235.943,113.376 239.124 C 105.654 246.846,81.250 233.576,81.250 221.655 C 81.250 208.852,110.177 209.931,115.161 222.920 " stroke="none"   fill-rule="evenodd"></path></g></svg>
