<svg id="svg" xmlns="http://www.w3.org/2000/svg" xmlns:xlink="http://www.w3.org/1999/xlink" width="400" height="400" viewBox="0, 0, 400,400" version="1.1"><g id="svgg"><path id="path0" d="M174.056 3.028 C 171.837 5.247,152.157 11.126,130.323 16.092 C 67.667 30.345,47.051 48.768,6.870 126.408 C -10.313 159.611,42.280 194.608,66.699 166.220 L 80.979 149.618 82.677 270.122 L 84.375 390.625 193.750 390.625 L 303.125 390.625 306.250 272.123 C 309.308 156.165,309.612 153.983,320.406 170.483 L 331.437 187.345 362.593 164.961 C 399.601 138.374,398.393 145.934,372.120 105.316 C 336.919 50.895,324.923 37.635,302.353 28.205 C 267.278 13.550,180.553 -3.469,174.056 3.028 M218.750 18.140 L 234.375 22.534 217.494 33.661 C 200.301 44.992,181.067 43.351,163.233 29.031 C 148.421 17.139,187.752 9.423,218.750 18.140 M157.390 40.625 C 180.830 60.348,202.690 60.449,228.253 40.951 C 246.235 27.235,250.663 26.373,271.031 32.625 C 293.369 39.480,300.365 51.424,286.913 59.738 C 282.536 62.443,281.665 73.257,284.490 89.794 C 286.918 104.001,290.097 174.687,291.555 246.875 L 294.206 378.125 197.103 378.125 L 100.000 378.125 100.000 248.564 C 100.000 145.161,101.990 114.029,109.857 94.367 C 117.284 75.805,118.055 66.629,112.982 57.151 C 103.435 39.311,110.297 30.084,136.598 25.396 C 137.820 25.178,147.177 32.031,157.390 40.625 M91.589 89.197 C 89.130 109.956,81.878 127.175,68.453 144.126 L 48.897 168.816 30.456 155.684 L 12.014 142.553 28.726 113.464 C 73.742 35.112,99.157 25.301,91.589 89.197 M355.090 102.749 L 379.349 141.441 356.682 154.486 L 334.015 167.532 320.249 146.531 C 304.464 122.450,296.585 83.208,302.669 58.969 C 308.127 37.220,320.462 47.522,355.090 102.749 " stroke="none"   fill-rule="evenodd"></path></g></svg>
