<svg id="svg" xmlns="http://www.w3.org/2000/svg" xmlns:xlink="http://www.w3.org/1999/xlink" width="400" height="400" viewBox="0, 0, 400,400" version="1.1"><g id="svgg"><path id="path0" d="M64.005 12.104 C 3.906 49.816,3.433 139.778,63.127 179.281 C 86.174 194.534,116.020 196.713,163.847 186.634 C 190.346 181.051,231.250 248.603,231.250 297.950 L 231.250 342.863 198.438 352.469 C 97.997 381.873,115.277 400.000,243.750 400.000 C 331.627 400.000,350.000 398.457,350.000 391.079 C 350.000 381.342,321.303 356.271,310.095 356.215 C 306.261 356.196,292.578 353.251,279.688 349.671 L 256.250 343.162 256.250 299.534 L 256.250 255.905 318.750 179.034 C 397.455 82.232,398.742 88.233,298.826 86.119 L 216.402 84.375 211.512 65.468 C 197.396 10.898,114.004 -19.271,64.005 12.104 M159.906 34.148 C 182.203 48.758,197.291 80.284,184.361 85.245 C 178.956 87.319,169.653 84.598,163.687 79.199 C 156.286 72.502,149.906 71.238,143.607 75.220 C 129.125 84.379,125.000 82.400,125.000 66.294 C 125.000 50.635,109.481 39.715,102.737 50.628 C 100.584 54.111,100.423 63.334,102.378 71.125 C 105.546 83.748,103.991 85.004,88.082 82.669 C 62.785 78.956,57.504 92.253,80.445 101.899 C 94.724 107.902,97.873 112.027,93.482 118.970 C 84.650 132.934,86.386 143.750,97.460 143.750 C 102.938 143.750,108.891 138.125,110.689 131.250 C 112.487 124.375,115.739 118.750,117.916 118.750 C 124.814 118.751,156.425 161.666,151.544 164.404 C 112.450 186.327,56.787 159.953,43.938 113.418 C 26.074 48.720,102.459 -3.493,159.906 34.148 M342.195 114.063 C 337.955 126.817,152.664 128.458,147.801 115.784 C 144.615 107.483,157.114 106.250,244.467 106.250 C 321.945 106.250,344.200 108.029,342.195 114.063 M294.591 173.438 C 251.117 227.182,244.755 234.229,242.402 231.250 C 241.044 229.531,226.729 212.353,210.591 193.076 C 172.665 147.773,170.762 150.000,247.400 150.000 L 313.550 150.000 294.591 173.438 M290.625 375.547 C 298.138 378.499,279.644 380.616,244.271 380.854 C 182.102 381.272,175.782 378.796,215.996 369.775 C 240.616 364.252,267.083 366.299,290.625 375.547 " stroke="none"   fill-rule="evenodd"></path></g></svg>
