<svg id="svg" xmlns="http://www.w3.org/2000/svg" xmlns:xlink="http://www.w3.org/1999/xlink" width="400" height="400" viewBox="0, 0, 400,400" version="1.1"><g id="svgg"><path id="path0" d="M166.667 4.167 C 164.375 6.458,162.500 12.446,162.500 17.472 C 162.500 22.498,152.656 37.506,140.625 50.823 C 119.931 73.728,110.764 106.250,125.000 106.250 C 128.438 106.250,131.250 100.633,131.250 93.768 C 131.250 86.903,140.894 70.612,152.680 57.565 C 179.542 27.832,192.510 -21.676,166.667 4.167 M210.247 35.587 C 208.049 37.785,206.250 43.855,206.250 49.076 C 206.250 54.298,200.948 64.376,194.468 71.472 C 179.927 87.398,171.581 112.500,180.829 112.500 C 184.498 112.500,187.500 109.356,187.500 105.513 C 187.500 101.670,195.938 88.915,206.250 77.170 C 216.563 65.425,225.000 51.860,225.000 47.026 C 225.000 36.765,216.027 29.807,210.247 35.587 M58.129 151.415 C 60.089 162.668,67.499 205.201,74.596 245.934 C 81.693 286.666,87.500 331.148,87.500 344.782 C 87.500 390.995,91.895 393.750,165.625 393.750 C 239.858 393.750,243.673 391.255,243.846 342.598 C 243.968 308.214,247.921 302.760,276.538 297.498 C 347.367 284.474,356.518 193.750,287.003 193.750 C 267.898 193.750,267.348 193.022,271.652 173.438 C 280.863 131.523,288.644 134.536,166.346 132.665 L 54.567 130.955 58.129 151.415 M260.778 157.973 C 253.330 177.383,241.778 245.462,235.145 309.045 L 227.939 378.125 165.532 378.125 L 103.125 378.125 98.417 325.000 C 93.793 272.820,78.056 177.735,71.000 159.348 C 67.910 151.295,81.020 150.000,165.625 150.000 C 242.681 150.000,263.178 151.717,260.778 157.973 M312.500 218.750 C 336.868 243.118,308.487 287.500,268.535 287.500 C 246.807 287.500,247.037 289.246,260.085 223.438 C 264.330 202.030,293.198 199.448,312.500 218.750 " stroke="none"   fill-rule="evenodd"></path></g></svg>
