<svg id="svg" xmlns="http://www.w3.org/2000/svg" xmlns:xlink="http://www.w3.org/1999/xlink" width="400" height="400" viewBox="0, 0, 400,400" version="1.1"><g id="svgg"><path id="path0" d="M74.763 67.195 C -9.741 111.340,-29.830 228.110,34.777 299.622 C 47.336 313.523,60.117 323.348,63.181 321.454 C 66.244 319.561,68.750 320.685,68.750 323.953 C 68.750 345.027,271.890 363.951,284.206 344.023 C 286.238 340.736,292.029 339.630,297.075 341.567 C 302.121 343.503,306.250 341.808,306.250 337.800 C 306.250 333.792,308.717 332.037,311.732 333.901 C 321.578 339.986,358.926 309.711,379.688 278.815 C 429.694 204.400,395.404 94.917,311.053 59.673 C 266.903 41.226,115.231 46.054,74.763 67.195 M176.650 81.235 C 285.255 121.869,295.883 257.805,194.475 309.215 C 171.804 320.708,84.055 323.131,90.888 312.075 C 92.246 309.876,86.507 304.956,78.132 301.141 C -6.380 262.634,9.214 127.055,103.125 83.848 C 141.689 66.105,136.687 66.283,176.650 81.235 M318.180 169.838 C 331.702 218.135,306.883 277.171,262.479 302.332 L 240.625 314.716 254.300 299.545 C 300.914 247.832,305.022 147.857,262.128 109.038 C 255.457 103.002,250.000 93.665,250.000 88.290 C 250.000 68.860,310.001 140.625,318.180 169.838 M362.753 141.035 C 393.997 191.588,369.300 277.307,315.640 304.560 L 296.875 314.090 310.550 299.233 C 358.789 246.820,362.042 167.871,318.278 111.678 C 308.556 99.195,302.154 87.430,304.051 85.533 C 309.025 80.559,348.365 117.754,362.753 141.035 M131.250 137.417 C 126.094 140.404,116.953 144.369,110.938 146.228 C 96.278 150.758,97.082 160.731,112.500 165.625 C 131.675 171.711,131.108 240.695,111.842 245.733 C 86.007 252.489,103.198 265.577,140.467 267.527 C 183.179 269.761,198.513 260.410,176.563 245.517 C 163.857 236.896,162.500 230.921,162.500 183.613 C 162.500 128.614,157.979 121.931,131.250 137.417 " stroke="none"   fill-rule="evenodd"></path></g></svg>
