<svg id="svg" xmlns="http://www.w3.org/2000/svg" xmlns:xlink="http://www.w3.org/1999/xlink" width="400" height="400" viewBox="0, 0, 400,400" version="1.1"><g id="svgg"><path id="path0" d="M149.283 43.750 C 136.203 57.500,121.619 68.750,116.874 68.750 C 105.898 68.750,31.660 105.075,17.188 117.527 C 2.772 129.930,3.345 144.734,18.750 157.925 C 37.321 173.826,35.414 192.813,15.625 189.030 C -5.658 184.961,-5.658 204.408,15.625 212.500 C 30.150 218.022,31.250 221.394,31.250 260.396 C 31.250 346.323,66.178 368.750,200.000 368.750 C 333.822 368.750,368.750 346.323,368.750 260.396 C 368.750 221.394,369.850 218.022,384.375 212.500 C 392.969 209.233,400.000 201.966,400.000 196.352 C 400.000 188.585,396.264 187.083,384.375 190.067 C 364.418 195.075,362.377 174.084,381.250 157.925 C 396.655 144.734,397.228 129.930,382.813 117.527 C 369.207 105.822,294.390 68.750,284.371 68.750 C 280.311 68.750,265.512 57.500,251.485 43.750 C 229.845 22.537,221.974 18.750,199.523 18.750 C 176.785 18.750,169.720 22.265,149.283 43.750 M222.243 46.676 C 233.384 55.103,231.567 55.852,200.000 55.852 C 168.433 55.852,166.616 55.103,177.757 46.676 C 184.430 41.629,194.439 37.500,200.000 37.500 C 205.561 37.500,215.570 41.629,222.243 46.676 M268.386 88.006 C 328.674 100.935,308.496 106.250,199.119 106.250 C 129.639 106.250,93.402 104.098,97.295 100.205 C 114.331 83.169,213.021 76.132,268.386 88.006 M358.774 128.759 C 367.494 132.105,367.550 133.975,359.285 145.775 C 352.451 155.532,350.000 177.006,350.000 227.126 L 350.000 295.221 325.735 319.485 L 301.471 343.750 201.578 343.750 C 63.938 343.750,50.000 332.413,50.000 220.451 C 50.000 175.996,47.413 155.338,40.633 145.659 C 33.417 135.356,33.059 131.563,39.071 129.136 C 50.280 124.613,347.056 124.263,358.774 128.759 " stroke="none"   fill-rule="evenodd"></path></g></svg>
