<svg id="svg" xmlns="http://www.w3.org/2000/svg" xmlns:xlink="http://www.w3.org/1999/xlink" width="400" height="400" viewBox="0, 0, 400,400" version="1.1"><g id="svgg"><path id="path0" d="M45.141 22.229 C 32.922 30.788,31.250 37.506,31.250 78.045 C 31.250 121.079,30.319 124.263,17.187 126.128 C 3.263 128.105,3.108 129.247,1.422 242.188 L -0.282 356.250 90.685 356.250 C 171.445 356.250,182.156 355.023,186.139 345.313 C 192.755 329.181,273.531 329.181,278.633 345.312 C 281.607 354.715,290.392 356.250,341.218 356.250 L 400.343 356.250 398.609 267.462 C 396.993 184.740,396.021 178.441,384.375 175.274 C 372.810 172.129,371.875 166.575,371.875 101.054 C 371.875 38.162,370.517 29.241,359.743 21.367 C 341.065 7.716,64.780 8.473,45.141 22.229 M348.649 107.813 C 349.625 144.766,348.218 175.006,345.524 175.014 C 342.830 175.022,341.510 148.798,342.591 116.739 C 345.220 38.756,354.183 43.133,196.079 45.183 L 65.625 46.875 63.764 85.938 C 61.330 137.039,50.000 136.611,50.000 85.417 C 50.000 33.537,38.480 37.042,202.717 38.950 L 346.875 40.625 348.649 107.813 M318.750 121.875 C 318.750 174.173,318.510 175.000,303.345 175.000 C 285.503 175.000,275.000 190.869,275.000 217.826 L 275.000 236.474 231.236 238.550 L 187.472 240.625 187.486 186.606 C 187.502 123.940,188.560 125.000,126.006 125.000 L 84.285 125.000 86.522 96.875 L 88.759 68.750 203.754 68.750 L 318.750 68.750 318.750 121.875 M167.350 242.188 L 169.076 337.500 135.579 337.500 C 109.972 337.500,102.083 335.292,102.083 328.125 C 102.083 321.224,109.280 318.750,129.353 318.750 L 156.623 318.750 154.874 239.063 L 153.125 159.375 90.625 159.375 L 28.125 159.375 26.376 239.063 L 24.627 318.750 52.938 318.750 C 73.938 318.750,81.250 321.171,81.250 328.125 C 81.250 335.322,73.264 337.500,46.875 337.500 L 12.500 337.500 12.500 244.792 C 12.500 133.836,5.074 142.983,93.417 145.125 L 165.625 146.875 167.350 242.188 M143.750 234.375 L 143.750 293.750 93.750 293.750 L 43.750 293.750 43.750 234.375 L 43.750 175.000 93.750 175.000 L 143.750 175.000 143.750 234.375 M384.375 265.625 L 384.375 334.375 367.188 336.353 C 354.911 337.765,350.000 335.533,350.000 328.540 C 350.000 322.917,355.320 318.750,362.500 318.750 C 374.074 318.750,375.000 314.583,375.000 262.500 L 375.000 206.250 340.625 206.250 L 306.250 206.250 306.250 262.500 C 306.250 314.583,307.176 318.750,318.750 318.750 C 325.694 318.750,331.250 322.917,331.250 328.125 C 331.250 334.375,325.000 337.500,312.500 337.500 L 293.750 337.500 293.750 269.792 C 293.750 189.745,291.747 192.756,343.485 195.057 L 384.375 196.875 384.375 265.625 M356.250 259.375 C 356.250 291.875,355.398 293.750,340.625 293.750 C 325.852 293.750,325.000 291.875,325.000 259.375 C 325.000 226.875,325.852 225.000,340.625 225.000 C 355.398 225.000,356.250 226.875,356.250 259.375 M278.125 262.500 C 276.001 265.938,264.585 268.750,252.756 268.750 C 233.027 268.750,231.250 270.299,231.250 287.500 C 231.250 304.762,232.986 306.250,253.125 306.250 C 265.156 306.250,275.000 309.191,275.000 312.786 C 275.000 316.870,259.178 318.628,232.813 317.473 L 190.625 315.625 188.622 294.718 C 185.211 259.107,188.854 256.250,237.673 256.250 C 265.625 256.250,280.561 258.558,278.125 262.500 M275.000 287.500 C 275.000 290.938,269.375 293.750,262.500 293.750 C 255.625 293.750,250.000 290.938,250.000 287.500 C 250.000 284.063,255.625 281.250,262.500 281.250 C 269.375 281.250,275.000 284.063,275.000 287.500 " stroke="none"   fill-rule="evenodd"></path></g></svg>
