<svg id="svg" xmlns="http://www.w3.org/2000/svg" xmlns:xlink="http://www.w3.org/1999/xlink" width="400" height="400" viewBox="0, 0, 400,400" version="1.1"><g id="svgg"><path id="path0" d="M94.149 5.871 C 70.211 21.019,76.345 153.975,101.805 171.814 C 115.221 181.214,115.560 184.300,113.412 277.444 C 110.922 385.428,114.529 400.000,143.750 400.000 C 175.300 400.000,184.383 357.185,175.570 250.000 C 170.319 186.128,170.558 184.041,184.499 171.875 C 214.290 145.877,221.826 35.219,195.592 8.985 C 185.377 -1.230,109.073 -3.572,94.149 5.871 M235.351 190.035 C 230.775 398.981,230.879 400.000,256.775 400.000 C 292.319 400.000,310.286 325.262,291.331 256.250 C 281.907 221.936,281.925 221.803,301.560 181.250 C 334.069 114.109,326.672 54.804,280.995 16.369 C 239.235 -18.770,239.987 -21.631,235.351 190.035 M151.277 60.439 C 153.848 118.437,168.750 123.304,168.750 66.146 C 168.750 23.042,176.917 11.150,183.594 44.531 C 194.049 96.810,188.408 140.875,169.052 158.121 L 150.604 174.559 153.857 270.092 C 156.945 360.754,152.738 392.430,139.402 378.919 C 136.637 376.118,134.375 327.980,134.375 271.947 L 134.375 170.068 117.188 154.082 C 99.169 137.324,93.953 94.299,103.906 44.531 C 110.551 11.307,118.750 22.959,118.750 65.625 C 118.750 97.569,120.753 106.250,128.125 106.250 C 135.565 106.250,137.500 97.222,137.500 62.500 C 137.500 6.755,148.822 5.062,151.277 60.439 M291.037 63.297 C 306.129 92.481,302.281 133.628,280.557 175.370 C 265.340 204.610,262.033 217.117,265.342 232.926 C 280.512 305.399,273.712 394.962,254.499 375.749 C 249.542 370.792,249.722 340.036,255.152 264.141 C 259.274 206.519,262.614 130.202,262.574 94.547 C 262.495 25.267,268.157 19.051,291.037 63.297 " stroke="none"   fill-rule="evenodd"></path></g></svg>
