<svg id="svg" xmlns="http://www.w3.org/2000/svg" xmlns:xlink="http://www.w3.org/1999/xlink" width="400" height="400" viewBox="0, 0, 400,400" version="1.1"><g id="svgg"><path id="path0" d="M258.791 46.477 C 244.179 61.726,231.302 80.693,230.174 88.625 C 226.169 116.812,80.621 121.306,71.801 93.516 C 66.148 75.707,31.248 49.111,16.326 51.241 C -3.511 54.072,-3.843 78.004,15.634 101.151 C 26.692 114.292,30.982 125.122,28.582 133.839 C 19.182 167.982,18.781 193.105,27.197 220.478 C 35.300 246.831,35.281 252.527,27.037 269.053 C 4.252 314.727,42.112 396.797,80.367 384.655 C 98.957 378.755,101.498 363.274,87.574 340.745 C 75.129 320.609,70.391 287.500,79.954 287.500 C 82.678 287.500,88.269 300.069,92.378 315.431 C 101.778 350.575,124.208 367.715,147.131 357.271 C 164.298 349.449,167.332 330.541,153.290 318.887 C 140.026 307.879,135.122 273.020,143.336 248.131 L 150.410 226.696 177.757 236.530 L 205.104 246.364 207.239 300.812 C 209.098 348.197,211.340 357.350,224.527 371.380 C 252.631 401.280,283.083 383.761,264.722 348.255 C 259.672 338.489,256.403 320.121,257.458 307.437 L 259.375 284.375 270.957 317.615 C 284.675 356.988,305.931 371.747,323.546 354.132 C 332.399 345.280,332.840 341.480,326.239 330.912 C 310.208 305.242,300.171 166.802,312.072 135.501 C 317.288 121.782,320.701 120.495,344.884 123.133 C 394.685 128.565,424.186 73.373,377.853 61.454 C 367.391 58.763,352.541 48.054,344.853 37.656 C 322.780 7.799,292.917 10.860,258.791 46.477 M333.983 59.654 C 339.714 68.401,351.991 78.455,361.264 81.996 C 386.315 91.561,364.538 106.172,331.779 101.778 C 301.223 97.680,289.499 112.816,283.730 163.813 C 280.695 190.634,274.785 206.416,261.531 223.095 C 251.596 235.596,241.879 253.092,239.937 261.975 C 233.411 291.826,232.239 290.784,231.743 254.688 L 231.250 218.750 210.938 218.613 C 199.766 218.537,178.365 212.912,163.380 206.113 C 124.671 188.548,114.325 189.962,109.151 213.521 C 106.552 225.354,93.805 243.307,77.404 258.233 C 57.291 276.537,49.734 288.321,49.000 302.524 L 48.000 321.875 45.505 301.908 C 44.047 290.247,47.164 275.600,52.996 266.699 C 62.165 252.705,62.133 249.335,52.593 225.494 C 45.035 206.603,43.330 190.656,46.337 166.953 C 48.609 149.035,50.528 127.344,50.601 118.750 C 50.727 103.727,50.942 103.643,56.187 116.572 C 63.955 135.721,163.309 143.700,212.914 129.158 C 231.145 123.814,248.514 120.957,251.511 122.809 C 272.295 135.654,306.250 100.374,306.250 65.935 C 306.250 44.205,288.893 45.165,283.632 67.188 C 277.296 93.712,256.250 113.380,256.250 92.777 C 256.250 55.051,314.659 30.162,333.983 59.654 M128.396 336.188 C 124.900 339.683,112.377 309.154,112.745 298.031 C 112.879 293.958,117.141 300.191,122.216 311.883 C 127.290 323.575,130.071 334.512,128.396 336.188 M68.551 361.652 C 68.124 370.182,50.002 340.782,50.039 331.618 C 50.060 326.259,54.278 329.931,59.414 339.777 C 64.549 349.623,68.661 359.467,68.551 361.652 " stroke="none"   fill-rule="evenodd"></path></g></svg>
