<svg id="svg" xmlns="http://www.w3.org/2000/svg" xmlns:xlink="http://www.w3.org/1999/xlink" width="400" height="400" viewBox="0, 0, 400,400" version="1.1"><g id="svgg"><path id="path0" d="M159.480 17.188 C 172.806 66.053,157.300 122.300,136.295 101.295 C 118.465 83.465,98.298 92.094,102.720 115.662 C 106.082 133.585,103.790 141.560,90.126 159.474 C 45.531 217.940,104.542 309.406,195.096 322.175 C 213.262 324.737,224.381 328.137,219.804 329.731 C 215.228 331.326,188.509 327.811,160.429 321.921 C 92.752 307.725,78.125 309.938,78.125 334.375 C 78.125 345.081,73.092 357.313,66.394 362.888 C 29.305 393.753,71.411 406.887,158.893 391.740 C 194.375 385.597,212.133 385.913,257.578 393.499 C 317.664 403.528,334.204 399.890,334.577 376.565 C 334.688 369.618,338.419 359.548,342.869 354.186 C 362.975 329.960,349.747 315.581,307.943 316.222 C 270.665 316.794,269.735 316.443,286.054 307.977 C 339.828 280.079,350.249 235.991,315.259 184.430 C 301.635 164.355,300.066 157.951,305.725 145.530 C 316.992 120.803,313.531 106.031,291.250 83.750 C 266.105 58.605,256.250 56.917,256.250 77.756 C 256.250 86.147,253.258 94.861,249.601 97.121 C 245.116 99.893,244.279 94.159,247.030 79.499 C 254.903 37.530,219.176 0.000,171.347 0.000 C 156.318 0.000,155.225 1.584,159.480 17.188 M212.252 40.361 C 224.415 53.308,226.030 59.799,222.531 81.684 C 216.035 122.303,249.125 143.083,270.868 112.041 C 283.665 93.771,288.771 106.163,283.822 143.475 C 280.139 171.233,281.555 177.345,296.079 196.387 C 321.400 229.584,314.909 269.486,281.259 287.495 C 270.560 293.221,269.476 291.555,270.102 270.356 C 271.101 236.492,254.010 200.000,237.150 200.000 C 228.441 200.000,224.802 202.969,226.878 208.379 C 228.647 212.988,227.694 220.641,224.762 225.386 C 214.819 241.473,212.063 226.813,219.678 198.342 C 226.242 173.799,225.831 167.824,216.610 153.751 C 203.425 133.629,187.522 132.436,187.439 151.563 C 187.406 159.297,177.562 177.974,165.564 193.067 C 144.580 219.464,141.031 230.386,143.505 260.938 C 145.253 282.512,133.228 277.721,114.464 249.366 C 93.462 217.630,92.273 187.155,111.250 166.956 C 118.813 158.906,125.061 149.688,125.135 146.472 C 125.210 143.256,134.350 136.406,145.448 131.250 C 172.066 118.882,195.773 73.776,190.615 45.313 C 186.218 21.049,192.713 19.563,212.252 40.361 M189.023 215.661 C 185.392 234.655,196.804 249.929,214.828 250.199 C 251.852 250.752,257.479 287.380,221.912 296.307 C 178.497 307.204,146.855 252.826,175.454 216.468 C 191.463 196.116,192.774 196.038,189.023 215.661 M125.842 342.483 C 117.711 343.762,108.482 342.232,105.333 339.083 C 101.865 335.615,107.696 334.698,120.116 336.757 C 137.472 339.635,138.352 340.515,125.842 342.483 M318.750 337.838 C 296.592 345.780,86.369 382.203,82.871 378.705 C 81.277 377.110,89.401 374.107,100.924 372.030 C 112.447 369.953,165.469 360.257,218.750 350.484 C 321.576 331.622,344.003 328.786,318.750 337.838 M303.125 375.000 L 315.625 380.371 303.125 380.371 C 296.250 380.371,285.000 377.954,278.125 375.000 L 265.625 369.629 278.125 369.629 C 285.000 369.629,296.250 372.046,303.125 375.000 " stroke="none"   fill-rule="evenodd"></path></g></svg>
