<svg id="svg" xmlns="http://www.w3.org/2000/svg" xmlns:xlink="http://www.w3.org/1999/xlink" width="400" height="400" viewBox="0, 0, 400,400" version="1.1"><g id="svgg"><path id="path0" d="M179.174 51.434 C 127.975 64.738,117.073 74.216,133.768 90.911 C 149.518 106.661,145.461 120.627,120.235 137.500 C 87.379 159.477,88.361 159.413,68.945 140.812 C 58.043 130.367,41.661 122.692,25.697 120.551 C -4.895 116.448,-6.341 121.576,13.050 165.412 C 25.587 193.755,25.692 196.055,15.738 224.019 C -1.413 272.197,-2.401 280.721,8.675 284.971 C 24.671 291.110,47.991 282.632,71.223 262.234 L 92.676 243.398 115.341 258.779 C 127.806 267.238,150.425 278.902,165.604 284.699 C 191.703 294.666,193.134 296.474,191.914 317.932 C 189.720 356.553,251.357 354.690,276.587 315.374 C 284.308 303.342,297.656 291.816,306.250 289.760 C 415.872 263.532,427.458 161.827,326.033 116.091 C 310.290 108.992,298.224 97.671,291.604 83.788 C 282.045 63.744,248.309 36.829,234.375 38.131 C 230.938 38.452,206.097 44.439,179.174 51.434 M250.675 70.313 C 277.819 93.081,279.362 102.192,255.311 97.689 C 242.763 95.340,219.095 96.421,202.715 100.092 C 173.789 106.574,162.950 102.801,162.596 86.127 C 162.310 72.713,237.453 59.222,250.675 70.313 M316.674 140.864 C 339.047 151.811,356.192 165.874,366.913 182.075 L 383.188 206.668 365.031 225.782 C 305.584 288.362,206.141 291.542,123.343 233.511 C 89.384 209.709,83.572 207.494,78.125 216.276 C 53.072 256.673,25.109 273.215,37.655 240.218 C 45.497 219.592,45.465 180.324,37.589 159.610 C 29.643 138.711,50.365 147.708,66.344 172.095 C 77.850 189.656,94.707 192.033,106.549 177.765 C 116.840 165.365,163.121 138.165,192.776 127.087 C 224.611 115.196,275.856 120.894,316.674 140.864 M291.853 183.429 C 289.931 188.437,292.219 197.730,296.938 204.080 C 307.420 218.184,328.125 208.799,328.125 189.944 C 328.125 175.171,297.156 169.609,291.853 183.429 M244.620 312.708 C 227.600 326.887,212.500 328.748,212.500 316.667 C 212.500 303.895,219.065 299.981,240.104 300.208 L 259.375 300.416 244.620 312.708 " stroke="none"   fill-rule="evenodd"></path></g></svg>
