<svg id="svg" xmlns="http://www.w3.org/2000/svg" xmlns:xlink="http://www.w3.org/1999/xlink" width="400" height="400" viewBox="0, 0, 400,400" version="1.1"><g id="svgg"><path id="path0" d="M120.313 54.139 C 100.787 62.018,119.556 93.837,154.277 111.719 C 173.516 121.628,219.557 120.450,252.690 109.201 C 290.522 96.356,321.119 107.936,334.600 140.199 C 346.742 169.259,346.968 168.750,321.875 168.750 C 309.844 168.750,300.000 166.138,300.000 162.946 C 300.000 129.360,224.454 127.729,206.966 160.938 C 202.608 169.212,193.724 175.000,185.382 175.000 C 135.487 175.000,-0.000 298.144,-0.000 343.495 C -0.000 348.130,60.754 349.670,198.438 348.525 L 396.875 346.875 398.764 256.250 C 402.640 70.318,383.646 49.471,211.295 50.493 C 165.551 50.765,124.609 52.405,120.313 54.139 M329.899 81.176 C 365.757 97.451,399.932 168.750,371.875 168.750 C 366.719 168.750,362.500 164.419,362.500 159.126 C 362.500 112.311,309.153 74.098,262.711 87.647 C 202.916 105.090,137.500 98.399,137.500 74.839 C 137.500 62.372,300.279 67.733,329.899 81.176 M275.000 162.500 C 275.000 165.938,263.584 168.750,249.631 168.750 C 234.310 168.750,225.792 166.275,228.125 162.500 C 230.249 159.063,241.665 156.250,253.494 156.250 C 265.322 156.250,275.000 159.063,275.000 162.500 M381.250 243.750 L 381.250 293.750 218.750 293.750 C 38.302 293.750,42.874 295.221,86.796 251.299 C 139.612 198.483,155.186 193.761,276.563 193.755 L 381.250 193.750 381.250 243.750 M184.638 233.410 C 171.725 242.852,175.120 262.500,189.664 262.500 C 205.836 262.500,215.841 244.413,205.429 234.000 C 197.676 226.247,194.555 226.158,184.638 233.410 M233.517 240.607 C 227.749 255.638,241.350 267.075,254.860 258.553 C 270.040 248.978,268.232 234.745,251.535 232.374 C 242.883 231.146,235.928 234.323,233.517 240.607 M289.599 241.045 C 287.532 246.432,288.837 253.837,292.500 257.500 C 302.222 267.222,318.750 258.687,318.750 243.946 C 318.750 228.532,295.296 226.198,289.599 241.045 M381.250 321.875 C 381.250 329.990,357.207 331.250,202.360 331.250 C 44.055 331.250,24.365 330.171,31.250 321.875 C 37.819 313.959,65.667 312.500,210.140 312.500 C 358.071 312.500,381.250 313.770,381.250 321.875 " stroke="none"   fill-rule="evenodd"></path></g></svg>
