<svg id="svg" xmlns="http://www.w3.org/2000/svg" xmlns:xlink="http://www.w3.org/1999/xlink" width="400" height="400" viewBox="0, 0, 400,400" version="1.1"><g id="svgg"><path id="path0" d="M183.192 4.521 C 168.341 7.233,128.470 48.045,117.806 71.451 C 112.796 82.447,104.308 86.924,82.907 89.857 C -3.650 101.721,-28.376 177.092,33.007 241.961 C 50.815 260.781,51.925 264.780,50.609 305.354 C 48.058 384.016,103.810 417.568,175.932 380.774 L 201.367 367.799 231.530 380.774 C 308.651 413.951,351.885 384.981,350.899 300.788 C 350.468 263.949,352.135 258.874,373.031 233.373 C 426.644 167.945,400.433 103.961,314.381 90.201 C 293.504 86.863,287.967 82.317,274.745 57.666 C 252.506 16.203,220.608 -2.313,183.192 4.521 M231.722 41.981 C 242.821 51.321,257.231 71.008,263.744 85.731 C 273.487 107.757,278.585 112.500,292.521 112.500 C 382.253 112.500,407.081 181.915,336.941 236.690 C 321.458 248.781,321.023 250.795,326.894 283.189 C 341.202 362.122,301.222 390.445,227.896 353.323 C 201.265 339.841,196.177 339.023,187.545 346.834 C 123.213 405.054,51.207 361.409,74.201 278.132 C 80.758 254.383,80.321 253.303,53.410 226.773 C -2.642 171.512,20.432 112.863,98.332 112.592 C 123.702 112.504,125.428 111.241,140.313 81.867 C 168.682 25.883,197.596 13.266,231.722 41.981 M191.797 141.536 C 189.434 143.900,187.500 155.398,187.500 167.088 C 187.500 186.291,186.143 187.910,173.438 183.860 C 150.093 176.418,141.212 177.604,138.959 188.465 C 137.467 195.656,143.725 201.085,159.516 206.297 L 182.218 213.789 169.234 227.610 C 154.546 243.244,152.020 262.500,164.656 262.500 C 175.309 262.500,193.728 242.452,193.819 230.758 C 193.857 225.872,201.093 231.016,209.897 242.188 C 218.702 253.359,229.921 262.500,234.828 262.500 C 248.112 262.500,245.612 241.122,230.756 227.677 L 217.761 215.918 243.979 204.783 C 266.619 195.167,269.091 192.317,262.097 183.890 C 254.343 174.546,247.047 174.601,223.845 184.178 C 215.232 187.733,212.957 184.253,211.345 165.058 C 209.460 142.608,200.957 132.376,191.797 141.536 " stroke="none"   fill-rule="evenodd"></path></g></svg>
