<svg id="svg" xmlns="http://www.w3.org/2000/svg" xmlns:xlink="http://www.w3.org/1999/xlink" width="400" height="400" viewBox="0, 0, 400,400" version="1.1"><g id="svgg"><path id="path0" d="M144.045 6.954 C 53.220 34.563,-6.443 126.024,1.849 224.935 C 18.349 421.745,293.707 469.398,381.694 290.671 C 458.093 135.482,308.549 -43.051,144.045 6.954 M227.155 24.166 C 237.375 28.189,236.726 29.596,221.441 36.560 C 207.882 42.738,200.322 42.811,186.052 36.900 C 155.160 24.104,195.356 11.651,227.155 24.166 M159.202 49.926 L 188.191 62.352 186.283 91.437 C 183.539 133.264,126.413 176.266,95.102 160.074 C 55.462 139.575,60.104 75.314,103.125 49.010 C 126.209 34.897,124.059 34.862,159.202 49.926 M289.473 44.531 C 337.481 69.256,351.215 139.354,312.024 159.621 C 290.588 170.706,285.980 168.890,235.616 129.516 C 199.356 101.167,203.060 64.459,243.750 48.920 C 278.302 35.726,273.307 36.205,289.473 44.531 M35.220 173.871 L 19.622 189.468 24.898 166.079 C 27.799 153.215,33.931 133.787,38.524 122.907 L 46.875 103.125 48.846 130.699 C 50.462 153.304,48.007 161.084,35.220 173.871 M367.573 135.938 C 371.197 145.391,376.106 160.156,378.482 168.750 L 382.803 184.375 366.401 169.223 C 356.144 159.747,350.000 147.455,350.000 136.411 C 350.000 113.920,359.038 113.676,367.573 135.938 M239.183 162.540 L 274.152 187.580 259.934 229.728 L 245.717 271.875 202.572 271.875 L 159.426 271.875 145.710 234.375 C 127.365 184.221,126.760 186.653,164.063 160.561 C 204.017 132.614,197.139 132.433,239.183 162.540 M377.194 240.625 C 366.764 293.492,309.714 324.992,279.364 294.642 L 266.212 281.490 280.186 238.104 C 291.250 203.750,298.345 192.064,314.267 181.967 L 334.375 169.215 357.634 195.545 C 376.903 217.359,380.258 225.091,377.194 240.625 M90.062 182.131 C 114.988 193.488,140.198 273.601,125.132 293.575 C 114.782 307.296,112.871 307.586,81.838 300.141 C 26.312 286.821,7.265 234.518,44.100 196.514 C 67.441 172.432,68.232 172.184,90.062 182.131 M259.904 306.835 C 271.567 319.722,271.500 320.358,255.497 349.022 L 239.249 378.125 202.705 378.125 L 166.160 378.125 147.777 348.392 C 129.961 319.576,129.742 318.275,140.666 306.205 C 157.624 287.466,242.783 287.916,259.904 306.835 M113.924 339.819 C 136.472 367.603,105.190 361.156,79.450 332.714 C 68.586 320.710,68.745 320.476,85.715 323.455 C 95.290 325.137,107.984 332.501,113.924 339.819 M327.546 331.890 C 316.498 344.098,286.761 362.500,278.082 362.500 C 266.297 362.500,298.492 325.231,312.106 323.114 C 320.917 321.744,330.670 320.201,333.781 319.686 C 336.892 319.171,334.086 324.663,327.546 331.890 " stroke="none"   fill-rule="evenodd"></path></g></svg>
