<svg id="svg" xmlns="http://www.w3.org/2000/svg" xmlns:xlink="http://www.w3.org/1999/xlink" width="400" height="400" viewBox="0, 0, 400,400" version="1.1"><g id="svgg"><path id="path0" d="M56.533 11.970 C 52.454 19.594,50.000 87.281,50.000 192.213 L 50.000 360.249 67.745 380.124 C 87.622 402.388,128.298 408.716,135.240 390.625 C 138.085 383.209,151.148 381.250,197.740 381.250 C 244.332 381.250,257.394 383.209,260.240 390.625 C 267.016 408.284,313.420 402.103,329.784 381.362 C 343.848 363.535,343.932 362.206,342.284 183.270 L 340.625 3.125 201.846 1.444 C 69.654 -0.158,62.757 0.342,56.533 11.970 M325.000 81.250 L 325.000 143.750 200.000 143.750 L 75.000 143.750 75.000 81.250 L 75.000 18.750 200.000 18.750 L 325.000 18.750 325.000 81.250 M104.167 47.917 C 98.773 53.310,98.727 115.394,104.112 120.779 C 112.810 129.477,125.000 109.907,125.000 87.246 C 125.000 51.589,116.514 35.569,104.167 47.917 M325.000 259.375 L 325.000 356.250 200.000 356.250 L 75.000 356.250 75.000 259.375 L 75.000 162.500 200.000 162.500 L 325.000 162.500 325.000 259.375 M104.167 185.417 C 93.776 195.808,99.743 257.215,110.938 255.095 C 118.258 253.708,122.544 246.035,123.898 231.896 C 127.360 195.746,117.370 172.213,104.167 185.417 " stroke="none"   fill-rule="evenodd"></path></g></svg>
