<svg id="svg" xmlns="http://www.w3.org/2000/svg" xmlns:xlink="http://www.w3.org/1999/xlink" width="400" height="400" viewBox="0, 0, 400,400" version="1.1"><g id="svgg"><path id="path0" d="M339.897 16.301 C 336.643 29.267,325.420 37.377,285.035 55.947 C 232.013 80.327,193.750 114.684,193.750 137.914 C 193.750 155.280,179.557 158.928,157.124 147.327 C 86.760 110.940,6.975 199.192,1.063 319.951 C -3.295 408.972,44.950 424.981,133.868 364.021 C 200.970 318.018,203.720 318.048,265.834 365.460 C 376.399 449.857,441.808 362.142,372.652 222.215 C 335.173 146.381,290.396 120.210,243.750 146.875 C 220.218 160.327,210.897 158.757,215.922 142.188 C 223.362 117.655,245.433 99.305,297.235 74.583 C 348.054 50.329,368.076 29.795,360.402 9.797 C 354.670 -5.139,344.466 -1.903,339.897 16.301 M150.000 168.750 C 190.105 184.558,210.104 184.476,251.056 168.334 C 299.534 149.225,323.072 165.823,359.101 244.521 C 413.752 363.895,370.998 408.740,268.014 340.063 C 204.714 297.849,186.936 297.292,135.686 335.918 C 38.617 409.077,-6.193 379.896,31.482 268.061 C 62.925 174.723,95.629 147.319,150.000 168.750 M284.821 216.071 C 272.252 228.641,279.196 243.750,297.544 243.750 C 309.152 243.750,312.500 240.402,312.500 228.794 C 312.500 210.446,297.391 203.502,284.821 216.071 M93.750 228.710 C 93.750 234.188,88.125 240.141,81.250 241.939 C 74.332 243.748,68.750 250.464,68.750 256.979 C 68.750 264.583,73.175 268.750,81.250 268.750 C 89.583 268.750,93.750 272.917,93.750 281.250 C 93.750 289.770,97.917 293.750,106.835 293.750 C 114.664 293.750,121.233 288.729,123.189 281.250 C 124.987 274.375,130.349 268.750,135.104 268.750 C 139.859 268.750,143.750 263.125,143.750 256.250 C 143.750 249.375,139.859 243.750,135.104 243.750 C 130.349 243.750,124.987 238.125,123.189 231.250 C 119.226 216.094,93.750 213.897,93.750 228.710 M245.663 254.029 C 239.644 269.715,262.126 284.303,274.008 272.421 C 278.931 267.497,281.257 259.032,279.176 253.610 C 274.196 240.633,250.691 240.927,245.663 254.029 M310.436 252.614 C 308.426 257.852,310.962 266.319,316.071 271.429 C 328.485 283.842,344.900 276.837,342.518 260.142 C 340.252 244.263,315.839 238.534,310.436 252.614 M279.350 283.437 C 274.135 297.027,289.925 315.305,302.660 310.418 C 317.986 304.537,313.024 278.646,296.108 276.232 C 288.811 275.191,281.270 278.433,279.350 283.437 " stroke="none"   fill-rule="evenodd"></path></g></svg>
