<svg id="svg" xmlns="http://www.w3.org/2000/svg" xmlns:xlink="http://www.w3.org/1999/xlink" width="400" height="400" viewBox="0, 0, 400,400" version="1.1"><g id="svgg"><path id="path0" d="M40.979 13.891 C 32.799 25.570,31.250 52.829,31.250 185.097 C 31.250 309.107,29.515 343.078,23.054 345.558 C 17.657 347.629,15.756 356.394,17.488 371.226 L 20.118 393.750 156.934 393.750 L 293.750 393.750 293.750 372.244 C 293.750 360.415,290.938 348.999,287.500 346.875 C 284.003 344.714,281.250 315.305,281.250 280.116 C 281.250 224.917,282.397 218.172,290.625 225.000 C 296.809 230.132,300.000 244.101,300.000 266.042 C 300.000 327.175,350.461 356.895,385.364 316.318 C 399.053 300.404,400.000 294.159,400.000 219.817 L 400.000 140.332 350.649 91.271 C 300.576 41.491,261.836 25.881,308.175 74.156 C 327.863 94.667,330.224 100.975,332.475 139.065 C 334.762 177.778,336.875 183.208,358.109 204.953 C 396.365 244.131,389.080 312.500,346.648 312.500 C 327.129 312.500,318.750 295.802,318.750 256.904 C 318.750 226.961,303.386 200.000,286.321 200.000 C 283.532 200.000,281.250 162.411,281.250 116.468 C 281.250 41.424,279.934 31.262,268.296 16.468 L 255.343 0.000 153.026 0.000 C 54.379 0.000,50.360 0.498,40.979 13.891 M255.000 26.250 C 260.430 31.680,262.500 76.528,262.500 188.750 L 262.500 343.750 156.250 343.750 L 50.000 343.750 50.000 188.750 C 50.000 76.528,52.070 31.680,57.500 26.250 C 67.968 15.782,244.532 15.782,255.000 26.250 M70.000 38.750 C 58.277 50.473,60.111 140.468,72.321 152.679 C 86.650 167.007,225.850 167.007,240.179 152.679 C 252.389 140.468,254.223 50.473,242.500 38.750 C 232.109 28.359,80.391 28.359,70.000 38.750 M229.960 91.196 C 232.433 142.514,229.100 144.624,149.088 142.413 L 84.375 140.625 82.535 95.112 L 80.694 49.599 154.410 51.362 L 228.125 53.125 229.960 91.196 M381.250 169.839 C 381.250 182.990,378.597 193.750,375.354 193.750 C 363.667 193.750,350.000 165.462,350.000 141.270 L 350.000 116.571 365.625 131.250 C 377.011 141.946,381.250 152.416,381.250 169.839 M275.000 375.000 C 275.000 383.479,39.615 383.479,34.375 375.000 C 31.850 370.915,72.852 368.750,152.756 368.750 C 230.085 368.750,275.000 371.046,275.000 375.000 " stroke="none"   fill-rule="evenodd"></path></g></svg>
