<svg id="svg" xmlns="http://www.w3.org/2000/svg" xmlns:xlink="http://www.w3.org/1999/xlink" width="400" height="400" viewBox="0, 0, 400,400" version="1.1"><g id="svgg"><path id="path0" d="M66.594 17.680 C 52.131 33.661,53.386 69.569,68.993 86.321 L 81.737 100.000 43.993 100.000 L 6.250 100.000 6.250 146.875 C 6.250 173.144,8.928 193.750,12.341 193.750 C 15.966 193.750,19.130 233.616,20.154 292.188 L 21.875 390.625 201.563 392.283 L 381.250 393.942 381.250 293.846 C 381.250 231.282,383.594 193.750,387.500 193.750 C 391.111 193.750,393.750 173.958,393.750 146.875 L 393.750 100.000 356.250 100.000 L 318.750 100.000 331.250 87.500 C 347.590 71.160,348.197 30.962,332.320 16.594 C 305.601 -7.587,260.564 11.041,237.782 55.696 C 213.711 102.880,192.130 104.038,166.056 59.546 C 136.769 9.573,91.265 -9.582,66.594 17.680 M116.847 34.370 C 129.340 43.121,156.250 80.976,156.250 89.800 C 156.250 110.382,83.242 81.988,77.518 59.180 C 70.358 30.652,92.025 16.984,116.847 34.370 M318.683 34.294 C 338.236 57.854,304.503 93.750,262.810 93.750 C 240.201 93.750,239.864 92.137,256.763 64.796 C 278.932 28.925,303.985 16.584,318.683 34.294 M150.000 150.000 L 150.000 175.000 87.500 175.000 L 25.000 175.000 25.000 150.000 L 25.000 125.000 87.500 125.000 L 150.000 125.000 150.000 150.000 M231.250 250.000 L 231.250 375.000 200.000 375.000 L 168.750 375.000 168.750 250.000 L 168.750 125.000 200.000 125.000 L 231.250 125.000 231.250 250.000 M375.000 150.000 L 375.000 175.000 312.500 175.000 L 250.000 175.000 250.000 150.000 L 250.000 125.000 312.500 125.000 L 375.000 125.000 375.000 150.000 M150.000 284.375 L 150.000 375.000 96.875 375.000 L 43.750 375.000 43.750 284.375 L 43.750 193.750 96.875 193.750 L 150.000 193.750 150.000 284.375 M356.250 284.375 L 356.250 375.000 303.125 375.000 L 250.000 375.000 250.000 284.375 L 250.000 193.750 303.125 193.750 L 356.250 193.750 356.250 284.375 " stroke="none"   fill-rule="evenodd"></path></g></svg>
