<svg id="svg" xmlns="http://www.w3.org/2000/svg" xmlns:xlink="http://www.w3.org/1999/xlink" width="400" height="400" viewBox="0, 0, 400,400" version="1.1"><g id="svgg"><path id="path0" d="M221.591 46.591 C 213.153 55.028,206.250 66.278,206.250 71.591 C 206.250 76.903,201.815 81.250,196.394 81.250 C 158.393 81.250,137.163 146.824,165.327 177.212 C 195.210 209.457,262.500 187.639,262.500 145.706 C 262.500 137.755,264.782 131.250,267.571 131.250 C 290.541 131.250,310.272 75.045,295.217 52.498 C 279.255 28.594,242.534 25.647,221.591 46.591 M274.714 65.281 C 284.658 77.262,280.637 102.519,268.417 104.845 C 260.752 106.304,259.251 102.042,261.288 84.597 C 263.297 67.386,261.644 62.500,253.809 62.500 C 247.917 62.500,243.750 67.678,243.750 75.000 C 243.750 88.332,234.634 91.781,227.956 80.976 C 216.249 62.035,259.869 47.393,274.714 65.281 M231.250 112.500 C 253.657 134.907,237.619 175.000,206.250 175.000 C 199.375 175.000,188.125 169.375,181.250 162.500 C 174.375 155.625,168.750 144.375,168.750 137.500 C 168.750 130.625,174.375 119.375,181.250 112.500 C 188.125 105.625,199.375 100.000,206.250 100.000 C 213.125 100.000,224.375 105.625,231.250 112.500 M195.642 119.358 C 190.665 124.335,190.486 131.700,195.025 144.720 C 203.320 168.517,215.625 164.205,215.625 137.500 C 215.625 115.392,207.230 107.770,195.642 119.358 M39.137 211.170 C 17.694 220.495,0.116 231.641,0.075 235.938 C -0.037 247.596,13.764 245.494,50.942 228.186 C 93.794 208.238,124.804 207.929,147.958 227.220 C 166.282 242.487,192.586 252.379,232.813 259.132 C 280.282 267.101,257.532 276.283,195.836 274.056 C 134.408 271.838,108.644 281.327,147.994 291.676 C 206.188 306.980,257.000 298.128,307.530 263.884 C 354.322 232.174,378.494 223.105,373.690 239.063 C 370.866 248.441,219.035 349.840,207.674 349.934 C 203.301 349.970,177.347 338.750,150.000 325.000 C 122.653 311.250,95.857 300.000,90.453 300.000 C 74.183 300.000,43.750 318.431,43.750 328.286 C 43.750 340.192,52.927 339.965,71.809 327.594 C 86.189 318.171,89.419 318.934,137.938 343.219 C 210.604 379.590,227.200 374.433,373.108 270.150 C 408.043 245.181,399.460 197.644,362.155 209.485 C 356.048 211.423,349.448 210.413,347.488 207.242 C 336.431 189.351,262.481 192.459,231.871 212.102 C 198.968 233.215,190.103 232.745,160.458 208.311 C 135.598 187.821,90.378 188.887,39.137 211.170 M268.750 225.000 C 260.156 231.722,247.500 237.266,240.625 237.320 C 230.264 237.401,231.333 235.293,246.875 225.000 C 271.791 208.499,289.845 208.499,268.750 225.000 M331.250 221.044 C 331.250 223.954,282.638 256.250,278.259 256.250 C 268.510 256.250,277.593 243.317,295.313 231.969 C 313.534 220.299,331.250 214.914,331.250 221.044 " stroke="none"   fill-rule="evenodd"></path></g></svg>
