<svg id="svg" xmlns="http://www.w3.org/2000/svg" xmlns:xlink="http://www.w3.org/1999/xlink" width="400" height="400" viewBox="0, 0, 400,400" version="1.1"><g id="svgg"><path id="path0" d="M218.750 6.696 C 218.750 10.379,222.969 17.612,228.125 22.768 C 239.894 34.537,239.854 55.739,228.032 71.362 C 222.448 78.743,221.124 85.955,224.589 90.130 C 228.012 94.254,227.236 100.986,222.608 107.315 C 216.105 116.209,215.000 114.501,215.000 95.555 C 215.000 35.491,126.623 34.074,114.648 93.945 C 111.550 109.436,107.923 112.500,92.685 112.500 C 49.692 112.500,28.575 166.643,59.504 197.572 L 75.258 213.326 62.629 229.381 C 41.452 256.303,58.136 306.250,88.305 306.250 C 92.585 306.250,89.968 312.595,82.339 320.715 C 65.044 339.126,64.528 370.778,81.250 387.500 C 109.075 415.325,168.750 393.984,168.750 356.208 C 168.750 347.605,173.924 345.488,193.684 346.006 C 225.667 346.845,246.250 328.017,246.250 297.923 C 246.250 276.969,246.433 276.837,271.563 279.572 C 303.772 283.078,325.000 265.579,325.000 235.522 C 325.000 212.663,310.077 187.500,296.521 187.500 C 284.478 187.500,285.135 183.104,300.000 164.205 C 326.539 130.466,301.461 83.773,259.436 88.679 C 221.323 93.129,272.143 45.688,325.969 26.571 C 342.624 20.656,356.250 12.257,356.250 7.908 C 356.250 -4.958,335.432 -1.227,296.193 18.671 C 253.100 40.524,256.250 39.702,256.250 29.094 C 256.250 19.090,236.447 -0.000,226.070 -0.000 C 222.044 -0.000,218.750 3.013,218.750 6.696 M188.858 84.860 C 197.795 104.475,189.576 120.914,169.330 123.917 C 151.662 126.538,137.500 114.722,137.500 97.360 C 137.500 66.534,176.215 57.112,188.858 84.860 M275.411 112.720 C 290.137 120.601,291.689 151.243,277.940 162.654 C 254.071 182.463,220.008 141.531,241.030 118.302 C 253.507 104.515,258.550 103.696,275.411 112.720 M212.500 140.181 C 212.500 153.339,209.794 155.233,192.188 154.396 C 181.016 153.865,165.547 155.660,157.813 158.386 C 146.943 162.217,143.750 161.023,143.750 153.125 C 143.750 146.215,147.312 144.038,154.753 146.400 C 160.805 148.321,175.570 144.636,187.565 138.212 C 199.561 131.788,210.078 126.187,210.938 125.766 C 211.797 125.345,212.500 131.831,212.500 140.181 M112.500 143.750 C 129.822 161.072,117.568 193.750,93.750 193.750 C 85.110 193.750,62.500 170.366,62.500 161.430 C 62.500 135.936,93.666 124.916,112.500 143.750 M206.794 188.517 C 222.373 217.627,186.932 243.986,162.248 221.647 C 146.817 207.682,146.760 196.990,162.036 181.714 C 176.194 167.556,197.293 170.763,206.794 188.517 M243.388 197.311 C 233.642 209.054,233.204 208.848,229.772 190.897 C 227.191 177.393,228.281 176.316,238.822 181.958 C 248.373 187.069,249.300 190.187,243.388 197.311 M296.429 216.071 C 315.306 234.949,304.445 262.500,278.125 262.500 C 261.372 262.500,250.000 251.128,250.000 234.375 C 250.000 208.055,277.551 197.194,296.429 216.071 M229.525 253.809 C 218.633 264.700,206.508 247.568,216.918 235.996 C 228.079 223.588,228.134 223.594,230.193 237.305 C 231.330 244.878,231.029 252.304,229.525 253.809 M125.126 243.986 C 139.472 270.791,114.541 295.722,87.736 281.376 C 75.326 274.735,69.751 244.833,79.167 235.417 C 88.583 226.001,118.485 231.576,125.126 243.986 M162.825 265.279 C 155.771 272.787,150.000 286.220,150.000 295.130 C 150.000 308.209,147.611 310.705,137.599 308.087 C 125.232 304.853,125.232 304.802,137.599 289.079 C 144.420 280.408,150.000 266.926,150.000 259.117 C 150.000 247.877,152.671 245.619,162.825 248.274 L 175.650 251.628 162.825 265.279 M218.436 277.747 C 222.543 282.695,224.997 294.649,223.889 304.310 C 220.216 336.344,168.750 329.857,168.750 297.360 C 168.750 271.114,202.029 257.978,218.436 277.747 M137.186 333.997 C 141.293 338.945,143.747 350.899,142.639 360.560 C 139.788 385.422,103.709 389.978,93.152 366.808 C 79.234 336.261,116.203 308.714,137.186 333.997 " stroke="none"   fill-rule="evenodd"></path></g></svg>
