<svg id="svg" xmlns="http://www.w3.org/2000/svg" xmlns:xlink="http://www.w3.org/1999/xlink" width="400" height="400" viewBox="0, 0, 400,400" version="1.1"><g id="svgg"><path id="path0" d="M312.586 15.533 C 305.601 22.969,301.525 30.692,303.529 32.695 C 309.492 38.658,290.119 70.383,266.875 92.719 C 245.574 113.187,244.839 113.384,226.027 103.656 C 187.328 83.644,143.448 97.414,131.609 133.286 C 125.443 151.971,120.584 155.428,87.613 164.595 C -2.213 189.569,-25.823 258.302,30.811 329.950 C 109.171 429.082,209.630 423.301,238.375 318.005 C 246.257 289.131,250.886 282.725,271.102 272.708 C 307.721 254.564,318.286 226.780,303.933 186.369 L 292.696 154.731 316.096 130.768 C 328.965 117.588,348.187 104.961,358.810 102.707 C 388.968 96.308,400.000 82.891,400.000 52.610 C 400.000 5.871,343.984 -17.888,312.586 15.533 M351.025 58.317 C 340.028 69.663,332.433 80.349,334.147 82.064 C 342.522 90.438,218.486 201.311,209.285 193.675 C 199.813 185.814,305.531 68.984,322.268 68.817 C 325.922 68.780,336.967 60.342,346.813 50.065 C 356.658 39.789,366.133 32.799,367.867 34.534 C 369.602 36.268,362.023 46.971,351.025 58.317 M205.317 119.361 C 216.143 123.135,225.000 127.996,225.000 130.162 C 225.000 135.283,174.738 181.250,169.139 181.250 C 140.869 181.250,127.017 241.949,151.391 259.021 C 175.938 276.214,218.750 261.222,218.750 235.433 C 218.750 216.033,273.359 172.755,280.649 186.377 C 295.681 214.465,279.493 256.250,253.579 256.250 C 239.463 256.250,220.798 284.686,216.252 313.115 C 204.081 389.223,140.275 400.892,73.888 339.152 C -1.880 268.687,5.839 213.482,95.530 184.375 C 128.471 173.685,136.056 168.286,147.920 147.081 C 155.550 133.444,166.874 120.282,173.084 117.833 C 179.294 115.383,184.658 113.181,185.005 112.939 C 185.351 112.698,194.492 115.588,205.317 119.361 M193.093 214.833 C 203.426 227.284,194.763 243.750,177.877 243.750 C 163.019 243.750,151.765 224.813,159.340 212.556 C 164.959 203.466,184.768 204.802,193.093 214.833 M77.091 259.816 C 72.848 270.873,113.499 316.241,133.272 322.517 C 159.602 330.873,156.322 309.898,126.576 279.688 C 95.901 248.534,83.354 243.495,77.091 259.816 " stroke="none"   fill-rule="evenodd"></path></g></svg>
