<svg id="svg" xmlns="http://www.w3.org/2000/svg" xmlns:xlink="http://www.w3.org/1999/xlink" width="400" height="400" viewBox="0, 0, 400,400" version="1.1"><g id="svgg"><path id="path0" d="M262.521 75.068 C 205.814 115.731,158.007 147.590,156.283 145.866 C 154.559 144.142,160.893 137.089,170.360 130.193 L 187.572 117.655 174.610 99.453 C 158.190 76.392,150.493 76.592,127.732 100.667 C 117.636 111.346,94.609 128.489,76.563 138.763 C 36.178 161.754,34.419 164.488,47.334 184.198 C 59.484 202.741,72.324 204.218,89.630 189.063 C 101.640 178.545,101.922 178.605,96.982 190.625 C 94.157 197.500,90.544 212.404,88.953 223.746 C 86.635 240.271,77.413 251.266,42.521 279.105 C -6.207 317.985,-6.508 319.349,22.267 370.833 C 43.632 409.060,58.577 409.310,92.954 372.015 C 111.319 352.091,118.750 338.588,118.750 325.140 C 118.750 306.693,127.817 299.076,132.621 313.487 C 141.676 340.654,181.250 292.474,181.250 254.283 C 181.250 249.655,194.609 236.292,210.938 224.587 C 269.515 182.594,287.500 162.753,287.500 140.126 C 287.500 120.837,291.884 116.168,343.750 80.226 C 400.403 40.966,405.356 34.187,393.530 12.089 C 382.750 -8.054,369.677 -1.770,262.521 75.068 M362.500 38.232 C 329.369 65.336,198.404 156.738,196.059 154.393 C 193.698 152.031,207.309 141.922,321.464 61.250 C 372.316 25.315,391.323 14.653,362.500 38.232 M261.834 151.563 C 258.178 159.297,228.444 185.056,195.760 208.805 C 141.269 248.399,136.618 253.404,139.754 269.082 C 142.682 283.720,141.412 285.718,130.928 282.977 C 113.689 278.469,102.213 290.190,97.911 316.701 C 94.535 337.504,67.070 375.000,55.208 375.000 C 52.483 375.000,44.207 363.147,36.816 348.659 L 23.378 322.318 44.501 306.551 C 89.390 273.045,112.500 245.862,112.500 226.566 C 112.500 200.966,153.295 172.861,183.042 177.967 C 199.404 180.776,208.336 177.375,231.250 159.614 C 264.193 134.078,270.939 132.302,261.834 151.563 M137.500 161.831 C 137.500 164.901,133.281 169.032,128.125 171.010 C 118.598 174.666,115.325 168.008,122.917 160.417 C 128.890 154.444,137.500 155.279,137.500 161.831 " stroke="none"   fill-rule="evenodd"></path></g></svg>
