<svg id="svg" xmlns="http://www.w3.org/2000/svg" xmlns:xlink="http://www.w3.org/1999/xlink" width="400" height="400" viewBox="0, 0, 400,400" version="1.1"><g id="svgg"><path id="path0" d="M4.167 4.167 C -8.431 16.765,5.489 139.418,21.313 155.242 C 31.603 165.532,76.754 159.853,90.005 146.602 C 100.125 136.482,106.157 140.963,106.498 158.854 C 106.634 166.016,115.071 187.344,125.247 206.250 C 149.975 252.197,151.422 248.343,87.271 307.390 C -19.805 405.946,28.120 441.384,145.713 350.605 C 205.789 304.229,212.324 300.757,233.187 304.143 L 255.734 307.802 257.554 352.338 L 259.375 396.875 282.404 398.790 C 311.175 401.183,314.314 395.581,324.702 323.317 C 333.823 259.864,332.293 256.206,289.834 239.991 C 268.824 231.967,262.870 226.852,265.807 219.349 C 267.955 213.863,275.475 191.923,282.518 170.593 C 294.761 133.516,295.771 132.341,305.475 143.891 C 322.380 164.011,365.420 167.163,377.158 149.140 C 390.614 128.478,404.641 27.525,395.976 13.703 C 377.234 -16.193,312.500 0.763,312.500 35.570 C 312.500 44.230,308.751 50.000,303.125 50.000 C 297.969 50.000,293.750 47.188,293.750 43.750 C 293.750 35.607,258.158 35.607,253.125 43.750 C 248.087 51.902,145.663 51.902,140.625 43.750 C 138.501 40.313,130.063 37.500,121.875 37.500 C 113.687 37.500,105.249 40.312,103.125 43.750 C 96.167 55.008,87.815 50.321,83.632 32.813 C 81.374 23.359,76.757 12.109,73.373 7.813 C 67.005 -0.273,11.529 -3.195,4.167 4.167 M53.498 48.438 C 55.734 61.328,59.924 83.056,62.809 96.721 C 68.024 121.422,61.927 133.837,46.918 129.079 C 35.336 125.408,21.875 37.065,31.927 30.699 C 46.339 21.573,49.255 23.971,53.498 48.438 M368.350 31.250 C 372.415 31.250,357.718 123.905,352.645 130.258 C 351.708 131.431,345.580 130.689,339.026 128.609 C 327.550 124.967,327.463 122.981,336.661 74.717 C 343.838 37.060,348.363 25.433,354.867 27.929 C 359.627 29.755,365.695 31.250,368.350 31.250 M239.344 96.072 C 237.719 118.847,233.922 122.498,222.083 112.673 C 212.904 105.055,188.771 106.144,167.952 115.116 C 160.066 118.515,157.147 115.193,154.967 100.340 C 151.225 74.848,152.428 74.203,199.735 76.307 C 240.514 78.120,240.622 78.174,239.344 96.072 M212.500 153.990 C 212.500 165.759,194.725 172.225,186.095 163.595 C 181.175 158.675,181.419 154.203,186.972 147.511 C 195.900 136.753,212.500 140.966,212.500 153.990 M196.126 200.000 C 209.021 200.000,224.587 197.316,230.716 194.036 C 240.952 188.558,241.344 190.008,235.520 211.829 C 226.701 244.868,231.908 253.388,268.304 265.477 C 302.043 276.683,302.305 277.169,295.324 315.625 L 290.787 340.625 287.581 312.500 L 284.375 284.375 242.613 275.712 L 200.851 267.048 145.738 309.466 L 90.625 351.884 133.328 308.078 L 176.032 264.272 171.670 235.184 C 169.271 219.186,164.835 204.568,161.812 202.700 C 158.790 200.832,153.108 193.132,149.185 185.589 L 142.054 171.875 157.367 185.938 C 167.563 195.300,180.516 200.000,196.126 200.000 " stroke="none"   fill-rule="evenodd"></path></g></svg>
