<svg id="svg" xmlns="http://www.w3.org/2000/svg" xmlns:xlink="http://www.w3.org/1999/xlink" width="400" height="400" viewBox="0, 0, 400,400" version="1.1"><g id="svgg"><path id="path0" d="M234.305 56.645 C 202.536 87.799,171.338 122.955,164.975 134.770 C 150.736 161.211,142.373 161.899,133.122 137.391 C 110.521 77.513,-0.143 95.409,0.096 158.902 C 0.256 201.527,22.362 218.750,76.911 218.750 C 103.764 218.750,112.683 220.835,110.327 226.563 C 90.250 275.352,85.648 300.305,93.646 317.008 C 98.219 326.560,102.369 344.666,102.869 357.244 C 103.984 385.364,115.311 400.000,135.958 400.000 C 150.395 400.000,151.354 398.263,148.074 378.050 C 144.773 357.712,146.063 355.451,165.638 347.273 C 207.790 329.660,225.171 266.017,196.978 232.512 L 181.455 214.065 207.469 209.905 C 273.452 199.354,400.000 139.742,400.000 119.211 C 400.000 100.911,394.848 100.157,337.667 110.080 C 264.717 122.739,265.106 123.226,300.427 63.522 C 336.762 2.102,337.134 0.000,311.658 0.000 C 295.392 0.000,282.260 9.616,234.305 56.645 M280.612 51.563 C 237.029 135.203,196.287 185.959,178.280 179.049 C 162.477 172.985,181.616 142.308,236.370 85.938 C 287.110 33.698,291.833 30.029,280.612 51.563 M296.875 156.250 C 228.014 186.297,220.282 187.125,238.488 162.500 C 249.082 148.171,257.600 143.576,274.613 143.011 C 286.857 142.604,305.313 140.124,315.625 137.500 C 356.299 127.150,350.675 132.775,296.875 156.250 M91.057 156.949 C 96.940 166.467,81.449 175.459,62.553 173.494 C 53.528 172.556,46.110 167.277,44.908 160.938 C 42.493 148.205,83.464 144.664,91.057 156.949 M133.602 188.751 C 131.903 191.500,123.623 193.750,115.203 193.750 C 101.733 193.750,100.784 192.325,107.302 181.887 C 113.195 172.452,116.960 171.429,125.701 176.888 C 131.746 180.663,135.301 186.001,133.602 188.751 M162.239 206.738 C 158.415 213.882,156.822 223.726,158.698 228.613 C 160.887 234.318,157.976 237.500,150.566 237.500 C 144.218 237.500,134.399 243.828,128.747 251.563 C 116.099 268.867,132.781 231.957,148.521 207.813 C 160.050 190.126,171.614 189.220,162.239 206.738 M164.875 267.536 C 169.154 274.461,154.899 301.553,145.313 304.715 C 137.033 307.446,134.784 289.351,141.294 272.386 C 145.296 261.957,159.607 259.013,164.875 267.536 " stroke="none"   fill-rule="evenodd"></path></g></svg>
