<svg id="svg" xmlns="http://www.w3.org/2000/svg" xmlns:xlink="http://www.w3.org/1999/xlink" width="400" height="400" viewBox="0, 0, 400,400" version="1.1"><g id="svgg"><path id="path0" d="M61.960 49.877 C -32.308 77.547,-22.747 181.098,81.998 266.902 C 107.368 287.684,133.483 310.664,140.031 317.969 C 154.828 334.474,161.266 334.589,178.235 318.647 L 191.651 306.043 208.270 336.578 L 224.889 367.113 288.665 341.369 C 374.800 306.599,400.000 283.199,400.000 237.987 C 400.000 202.919,377.451 169.916,352.043 167.798 C 345.763 167.274,336.406 166.440,331.250 165.944 C 326.094 165.447,322.798 160.996,323.927 156.052 C 343.452 70.520,236.652 14.145,171.336 75.506 C 159.326 86.789,157.373 87.009,149.831 77.921 C 131.689 56.061,88.189 42.179,61.960 49.877 M108.013 77.320 C 119.075 82.033,134.830 93.162,143.025 102.052 L 157.925 118.214 186.045 95.172 C 237.514 52.997,300.153 75.478,299.904 136.036 C 299.758 171.717,292.302 178.315,276.412 156.823 C 215.733 74.751,121.126 158.688,163.441 257.052 C 175.149 284.268,175.720 289.459,167.869 297.310 C 155.177 310.001,28.506 188.856,22.009 157.813 C 12.166 110.792,35.871 76.467,83.013 69.475 C 85.702 69.076,96.952 72.606,108.013 77.320 M253.423 166.538 C 269.612 184.006,272.862 193.750,262.500 193.750 C 259.063 193.750,256.250 197.969,256.250 203.125 C 256.250 213.341,264.953 214.411,284.375 206.583 C 291.561 203.687,300.260 204.252,304.839 207.913 C 313.367 214.733,321.875 209.784,321.875 198.002 C 321.875 184.116,344.475 185.798,348.179 199.960 C 350.570 209.106,355.308 212.570,362.760 210.621 C 377.658 206.725,382.904 240.651,371.008 263.957 C 360.225 285.081,329.810 302.310,320.224 292.724 C 311.587 284.087,298.162 292.446,302.503 303.757 C 304.469 308.882,301.931 312.500,296.368 312.500 C 291.149 312.500,278.581 316.791,268.440 322.036 C 251.911 330.583,250.000 330.583,250.000 322.036 C 250.000 316.791,245.781 312.500,240.625 312.500 C 235.469 312.500,231.207 316.016,231.154 320.313 C 231.084 326.044,229.623 325.860,225.670 319.621 C 222.707 314.943,221.672 305.803,223.370 299.308 C 225.475 291.258,223.180 287.500,216.158 287.500 C 210.493 287.500,204.061 282.578,201.865 276.563 C 199.669 270.547,192.888 259.124,186.797 251.178 C 179.285 241.379,175.868 226.299,176.176 204.303 C 176.426 186.468,177.905 175.391,179.461 179.688 C 183.451 190.700,200.000 189.441,200.000 178.125 C 200.000 172.969,196.625 168.750,192.500 168.750 C 186.819 168.750,186.755 166.995,192.235 161.515 C 197.715 156.035,201.791 156.205,209.036 162.219 C 216.908 168.752,219.287 168.373,222.470 160.079 C 227.926 145.860,235.778 147.498,253.423 166.538 M231.250 178.125 C 231.250 183.281,235.469 187.500,240.625 187.500 C 245.781 187.500,250.000 183.281,250.000 178.125 C 250.000 172.969,245.781 168.750,240.625 168.750 C 235.469 168.750,231.250 172.969,231.250 178.125 M206.250 203.125 C 206.250 208.281,210.469 212.500,215.625 212.500 C 220.781 212.500,225.000 208.281,225.000 203.125 C 225.000 197.969,220.781 193.750,215.625 193.750 C 210.469 193.750,206.250 197.969,206.250 203.125 M185.247 216.837 C 177.777 224.306,181.211 237.500,190.625 237.500 C 195.781 237.500,200.000 233.447,200.000 228.494 C 200.000 218.052,191.080 211.004,185.247 216.837 M235.247 216.837 C 227.777 224.306,231.211 237.500,240.625 237.500 C 245.781 237.500,250.000 233.447,250.000 228.494 C 250.000 218.052,241.080 211.004,235.247 216.837 M279.067 221.675 C 274.659 233.161,286.377 241.123,295.000 232.500 C 301.671 225.829,296.873 212.500,287.800 212.500 C 284.933 212.500,281.003 216.629,279.067 221.675 M328.188 218.648 C 323.578 226.107,329.429 237.500,337.869 237.500 C 345.474 237.500,345.523 220.584,337.932 215.892 C 334.732 213.914,330.347 215.154,328.188 218.648 M209.438 243.648 C 204.828 251.107,210.679 262.500,219.119 262.500 C 226.724 262.500,226.773 245.584,219.182 240.892 C 215.982 238.914,211.597 240.154,209.438 243.648 M256.250 250.000 C 256.250 258.056,259.415 262.487,264.063 260.938 C 268.359 259.505,271.875 254.583,271.875 250.000 C 271.875 245.417,268.359 240.495,264.063 239.063 C 259.415 237.513,256.250 241.944,256.250 250.000 M302.788 244.295 C 296.348 254.716,310.833 266.667,319.455 258.045 C 326.667 250.833,322.154 237.500,312.500 237.500 C 309.468 237.500,305.098 240.558,302.788 244.295 M353.188 243.648 C 348.578 251.107,354.429 262.500,362.869 262.500 C 370.474 262.500,370.523 245.584,362.932 240.892 C 359.732 238.914,355.347 240.154,353.188 243.648 M232.216 271.485 C 233.403 277.219,237.188 281.762,240.625 281.580 C 249.902 281.090,248.198 267.108,238.466 263.864 C 233.209 262.111,230.866 264.968,232.216 271.485 M278.906 267.486 C 272.894 277.215,286.356 291.144,294.195 283.305 C 298.164 279.336,299.521 273.032,297.212 269.295 C 292.276 261.309,283.274 260.419,278.906 267.486 M328.125 268.750 C 323.028 276.997,330.501 288.700,337.932 284.108 C 345.523 279.416,345.474 262.500,337.869 262.500 C 334.634 262.500,330.249 265.313,328.125 268.750 M256.250 296.354 C 256.250 301.797,260.703 306.250,266.146 306.250 C 271.589 306.250,274.928 302.910,273.568 298.828 C 269.705 287.239,256.250 285.317,256.250 296.354 " stroke="none"   fill-rule="evenodd"></path></g></svg>
