<svg id="svg" xmlns="http://www.w3.org/2000/svg" xmlns:xlink="http://www.w3.org/1999/xlink" width="400" height="400" viewBox="0, 0, 400,400" version="1.1"><g id="svgg"><path id="path0" d="M16.094 26.563 C 11.375 42.851,-0.081 135.326,-0.041 156.812 C -0.019 169.153,8.438 203.601,18.750 233.363 C 29.062 263.125,37.531 295.216,37.569 304.676 C 37.768 354.521,44.180 368.750,66.443 368.750 L 87.500 368.750 87.500 303.125 C 87.500 228.610,89.719 226.087,119.111 267.188 C 184.473 358.586,203.130 368.750,305.538 368.750 C 436.428 368.750,437.943 341.932,313.585 226.289 C 232.878 151.239,210.993 120.695,195.875 62.009 L 184.731 18.750 101.545 18.750 C 40.369 18.750,17.759 20.817,16.094 26.563 M178.287 73.358 C 196.846 137.197,220.071 167.969,311.500 249.860 C 406.326 334.793,405.766 350.003,307.813 349.990 C 219.458 349.979,203.154 343.597,164.124 293.750 C 105.285 218.606,98.311 212.266,65.838 204.396 C 19.675 193.210,13.963 179.543,24.402 105.256 C 34.784 31.369,27.667 37.500,103.050 37.500 L 167.863 37.500 178.287 73.358 M63.011 225.000 C 66.168 225.000,68.459 253.828,68.104 289.063 C 67.439 355.013,67.174 354.846,50.742 278.125 C 47.061 260.938,42.123 240.072,39.770 231.758 C 36.197 219.135,37.287 217.331,46.382 220.821 C 52.371 223.119,59.855 225.000,63.011 225.000 " stroke="none"   fill-rule="evenodd"></path></g></svg>
