<svg id="svg" xmlns="http://www.w3.org/2000/svg" xmlns:xlink="http://www.w3.org/1999/xlink" width="400" height="400" viewBox="0, 0, 400,400" version="1.1"><g id="svgg"><path id="path0" d="M278.125 27.516 C 253.647 38.320,240.923 53.174,224.673 89.910 L 211.368 119.987 157.246 115.792 C 62.476 108.445,9.837 143.994,1.922 220.688 C -1.411 252.978,-0.924 254.338,16.424 261.145 C 55.266 276.386,59.094 274.681,62.500 240.625 C 66.075 204.872,74.757 221.047,74.915 263.755 C 75.034 296.217,87.029 350.420,97.888 367.565 C 111.728 389.418,140.729 384.545,140.339 360.432 C 140.106 345.991,141.326 344.479,146.975 352.205 C 172.524 387.146,201.239 365.163,185.134 322.993 C 167.453 276.695,177.030 259.034,221.875 255.244 L 246.875 253.132 254.780 309.378 C 268.844 409.438,302.180 412.117,304.913 313.407 C 306.442 258.171,308.097 249.371,316.361 252.543 C 321.675 254.582,326.786 256.250,327.719 256.250 C 328.652 256.250,328.077 270.172,326.442 287.189 C 323.623 316.530,324.331 318.344,340.151 322.314 C 361.565 327.689,361.756 327.434,372.934 278.432 C 383.776 230.901,381.535 225.527,342.606 205.666 C 320.511 194.394,318.750 191.498,318.750 166.431 L 318.750 139.367 351.156 144.489 C 403.121 152.704,415.249 130.427,381.803 88.198 C 367.935 70.689,365.041 62.655,369.641 54.436 C 384.115 28.573,319.075 9.440,278.125 27.516 M338.894 59.615 C 337.883 67.049,346.547 83.320,359.693 98.678 L 382.224 125.000 360.627 125.000 C 348.749 125.000,335.429 120.661,331.028 115.357 C 307.903 87.494,292.831 133.060,282.358 262.500 L 278.059 315.625 272.907 273.438 L 267.755 231.250 217.842 231.250 C 190.389 231.250,162.684 228.443,156.273 225.013 C 141.198 216.944,106.540 265.322,105.686 295.626 L 105.123 315.625 98.941 294.091 C 95.541 282.248,94.219 265.373,96.003 256.591 C 97.788 247.810,94.800 226.228,89.365 208.632 C 70.639 148.001,90.476 125.990,152.600 138.467 C 209.346 149.863,228.464 142.862,240.631 106.233 C 254.631 64.080,280.811 42.500,314.919 44.995 C 336.696 46.588,340.360 48.823,338.894 59.615 M46.556 177.924 C 41.575 189.845,37.500 209.533,37.500 221.674 C 37.500 242.810,29.952 250.569,21.964 237.644 C 16.888 229.431,28.560 187.761,40.824 170.313 C 54.956 150.208,57.002 152.925,46.556 177.924 M337.810 228.286 C 352.896 236.087,356.068 241.486,355.250 257.973 L 354.250 278.125 351.782 258.530 C 349.802 242.800,344.761 237.065,326.220 229.450 C 313.518 224.233,306.780 219.691,311.248 219.357 C 315.715 219.023,327.669 223.041,337.810 228.286 M162.686 262.152 C 152.670 280.867,145.227 282.591,148.506 265.436 C 150.129 256.946,155.447 250.000,160.324 250.000 C 167.168 250.000,167.707 252.770,162.686 262.152 " stroke="none"   fill-rule="evenodd"></path></g></svg>
