<svg id="svg" xmlns="http://www.w3.org/2000/svg" xmlns:xlink="http://www.w3.org/1999/xlink" width="400" height="400" viewBox="0, 0, 400,400" version="1.1"><g id="svgg"><path id="path0" d="M183.123 8.617 C 180.374 13.357,138.047 58.632,89.062 109.229 C 40.078 159.825,-0.000 205.166,-0.000 209.986 C 0.000 221.785,12.097 221.052,26.070 208.406 C 37.098 198.426,37.500 201.610,37.500 299.031 L 37.500 400.000 200.000 400.000 L 362.500 400.000 362.500 300.000 C 362.500 209.873,366.955 182.520,377.260 209.375 C 382.063 221.892,400.000 221.401,400.000 208.753 C 400.000 203.254,366.542 164.582,325.649 122.815 C 284.756 81.048,242.051 36.328,230.749 23.438 C 209.486 -0.814,191.787 -6.321,183.123 8.617 M273.438 100.006 L 343.750 173.424 343.750 277.337 L 343.750 381.250 303.306 381.250 L 262.863 381.250 261.119 298.437 L 259.375 215.625 201.563 213.828 L 143.750 212.031 143.750 296.640 L 143.750 381.250 103.125 381.250 L 62.500 381.250 62.500 273.725 L 62.500 166.200 129.688 96.469 C 166.641 58.117,198.281 26.705,200.000 26.664 C 201.719 26.623,234.766 59.627,273.438 100.006 M277.448 46.387 C 273.591 56.438,285.023 81.250,293.512 81.250 C 296.576 81.250,300.370 76.328,301.942 70.313 C 304.033 62.310,304.995 63.259,305.525 73.848 C 307.915 121.553,331.250 122.598,331.250 75.000 L 331.250 37.500 306.054 37.500 C 290.038 37.500,279.615 40.738,277.448 46.387 M237.500 309.375 L 237.500 381.250 200.000 381.250 L 162.500 381.250 162.500 309.375 L 162.500 237.500 200.000 237.500 L 237.500 237.500 237.500 309.375 " stroke="none"   fill-rule="evenodd"></path></g></svg>
