<svg id="svg" xmlns="http://www.w3.org/2000/svg" xmlns:xlink="http://www.w3.org/1999/xlink" width="400" height="400" viewBox="0, 0, 400,400" version="1.1"><g id="svgg"><path id="path0" d="M152.500 21.250 C 129.041 44.709,124.130 74.554,140.000 97.211 C 148.199 108.917,145.249 112.225,93.125 149.756 C 43.600 185.417,37.500 191.944,37.500 209.280 C 37.500 244.041,66.407 254.844,99.035 232.275 C 108.160 225.963,119.141 218.766,123.438 216.281 C 138.871 207.354,130.989 230.216,105.444 268.470 C 75.851 312.787,76.022 314.078,118.543 367.188 C 164.579 424.688,221.416 402.427,178.183 343.829 C 159.834 318.958,169.270 300.000,200.000 300.000 C 230.915 300.000,240.166 318.959,221.555 344.178 C 200.423 372.812,202.860 396.130,227.278 398.922 C 247.928 401.282,271.355 381.854,300.047 338.572 C 319.970 308.517,319.566 305.505,289.630 261.021 C 261.236 218.829,262.072 207.512,292.076 227.900 C 319.669 246.650,337.970 247.996,352.156 232.320 C 374.495 207.636,366.157 192.442,306.829 149.724 C 251.161 109.640,251.159 109.637,259.954 92.629 C 294.419 25.982,206.302 -32.552,152.500 21.250 M228.409 34.091 C 257.409 63.091,240.097 108.333,200.000 108.333 C 158.967 108.333,140.662 56.918,172.718 31.704 C 194.344 14.693,209.668 15.349,228.409 34.091 M289.842 166.054 C 333.842 198.187,343.708 210.459,333.638 220.529 C 331.514 222.653,313.525 212.931,293.664 198.924 C 255.823 172.238,243.750 171.831,243.750 197.244 C 243.750 211.966,242.218 212.500,200.000 212.500 C 157.782 212.500,156.250 211.966,156.250 197.244 C 156.250 172.000,144.771 172.473,106.536 199.293 C 65.392 228.154,36.728 223.141,71.253 193.122 C 159.187 116.665,213.075 109.992,289.842 166.054 M254.583 248.071 C 257.930 258.183,223.842 275.000,200.000 275.000 C 167.522 275.000,135.386 254.197,148.149 241.434 C 155.704 233.880,251.871 239.876,254.583 248.071 M146.875 285.117 C 159.304 294.781,159.296 294.890,145.313 304.430 C 127.323 316.704,127.533 318.604,150.000 346.875 C 168.661 370.357,174.671 385.647,162.214 377.948 C 133.550 360.233,106.652 311.102,115.864 293.288 C 126.648 272.434,129.573 271.663,146.875 285.117 M287.500 311.801 C 287.500 325.130,231.910 387.762,231.530 374.862 C 231.376 369.629,240.215 354.472,251.171 341.180 L 271.093 317.012 255.989 304.782 C 241.098 292.724,241.060 292.424,253.255 283.490 C 267.066 273.371,287.500 290.265,287.500 311.801 " stroke="none"   fill-rule="evenodd"></path></g></svg>
