<svg id="svg" xmlns="http://www.w3.org/2000/svg" xmlns:xlink="http://www.w3.org/1999/xlink" width="400" height="400" viewBox="0, 0, 400,400" version="1.1"><g id="svgg"><path id="path0" d="M50.000 6.250 C 50.000 9.688,44.190 12.500,37.089 12.500 C -0.610 12.500,0.000 9.460,-0.000 197.420 L -0.000 369.400 18.249 375.762 C 28.286 379.261,38.041 386.146,39.928 391.062 C 44.725 403.562,92.915 403.198,97.740 390.625 C 103.092 376.678,296.908 376.678,302.260 390.625 C 307.085 403.198,355.275 403.562,360.072 391.062 C 361.959 386.146,371.714 379.261,381.751 375.762 L 400.000 369.400 400.000 197.420 C 400.000 9.460,400.610 12.500,362.911 12.500 C 355.810 12.500,350.000 9.688,350.000 6.250 C 350.000 2.604,329.167 0.000,300.000 0.000 C 270.833 0.000,250.000 2.604,250.000 6.250 C 250.000 9.722,233.333 12.500,212.500 12.500 C 191.667 12.500,175.000 9.722,175.000 6.250 C 175.000 2.500,150.000 0.000,112.500 0.000 C 75.000 0.000,50.000 2.500,50.000 6.250 M381.250 65.625 L 381.250 93.750 200.000 93.750 L 18.750 93.750 18.750 65.625 L 18.750 37.500 200.000 37.500 L 381.250 37.500 381.250 65.625 M43.816 53.045 C 39.573 58.158,37.734 66.595,39.730 71.795 C 44.431 84.046,68.069 84.046,72.770 71.795 C 76.362 62.436,65.354 43.750,56.250 43.750 C 53.654 43.750,48.059 47.933,43.816 53.045 M94.361 49.623 C 82.953 56.673,88.465 77.538,102.448 80.231 C 113.056 82.274,124.663 72.415,124.904 61.157 C 125.079 53.024,102.595 44.533,94.361 49.623 M140.217 52.650 C 125.180 63.646,133.005 81.250,152.929 81.250 C 165.449 81.250,168.750 78.130,168.750 66.294 C 168.750 48.174,155.200 41.695,140.217 52.650 M187.566 53.045 C 177.181 65.559,184.099 81.250,200.000 81.250 C 215.901 81.250,222.819 65.559,212.434 53.045 C 202.718 41.339,197.282 41.339,187.566 53.045 M331.316 53.045 C 327.073 58.158,325.234 66.595,327.230 71.795 C 331.931 84.046,355.569 84.046,360.270 71.795 C 363.862 62.436,352.854 43.750,343.750 43.750 C 341.154 43.750,335.559 47.933,331.316 53.045 M381.250 237.500 L 381.250 356.250 200.000 356.250 L 18.750 356.250 18.750 237.500 L 18.750 118.750 200.000 118.750 L 381.250 118.750 381.250 237.500 M37.500 237.500 L 37.500 331.250 200.000 331.250 L 362.500 331.250 362.500 237.500 L 362.500 143.750 200.000 143.750 L 37.500 143.750 37.500 237.500 M337.500 234.375 L 337.500 306.250 200.000 306.250 L 62.500 306.250 62.500 234.375 L 62.500 162.500 200.000 162.500 L 337.500 162.500 337.500 234.375 " stroke="none"   fill-rule="evenodd"></path></g></svg>
