<svg id="svg" xmlns="http://www.w3.org/2000/svg" xmlns:xlink="http://www.w3.org/1999/xlink" width="400" height="400" viewBox="0, 0, 400,400" version="1.1"><g id="svgg"><path id="path0" d="M22.544 16.136 C 20.457 21.574,18.650 79.933,18.527 145.824 C 18.374 228.311,15.484 277.305,9.250 303.125 C 4.270 323.750,0.151 352.578,0.098 367.188 L 0.000 393.750 200.000 393.750 L 400.000 393.750 399.908 367.188 C 399.857 352.578,395.465 322.344,390.149 300.000 C 383.088 270.324,380.639 228.069,381.064 143.214 C 381.384 79.325,379.849 22.372,377.654 16.651 C 371.724 1.199,28.467 0.701,22.544 16.136 M356.250 131.250 L 356.250 237.500 200.000 237.500 L 43.750 237.500 43.750 131.250 L 43.750 25.000 200.000 25.000 L 356.250 25.000 356.250 131.250 M52.783 45.512 C 51.043 50.046,50.408 91.582,51.372 137.815 L 53.125 221.875 200.000 221.875 L 346.875 221.875 346.875 131.250 L 346.875 40.625 201.411 38.947 C 85.556 37.610,55.302 38.947,52.783 45.512 M325.000 131.250 L 325.000 206.250 200.000 206.250 L 75.000 206.250 75.000 131.250 L 75.000 56.250 200.000 56.250 L 325.000 56.250 325.000 131.250 M57.463 259.546 C 59.276 261.359,58.831 273.385,56.475 286.270 C 49.663 323.523,51.708 325.000,110.116 325.000 C 161.003 325.000,162.695 325.458,156.250 337.500 C 148.698 351.612,25.000 357.240,25.000 343.472 C 25.000 339.882,29.561 318.788,35.135 296.597 C 44.577 259.006,49.219 251.303,57.463 259.546 M112.500 262.500 C 112.500 265.938,106.875 268.750,100.000 268.750 C 93.125 268.750,87.500 265.938,87.500 262.500 C 87.500 259.063,93.125 256.250,100.000 256.250 C 106.875 256.250,112.500 259.063,112.500 262.500 M162.500 262.500 C 162.500 265.938,156.875 268.750,150.000 268.750 C 143.125 268.750,137.500 265.938,137.500 262.500 C 137.500 259.063,143.125 256.250,150.000 256.250 C 156.875 256.250,162.500 259.063,162.500 262.500 M212.500 262.500 C 212.500 265.938,206.875 268.750,200.000 268.750 C 193.125 268.750,187.500 265.938,187.500 262.500 C 187.500 259.063,193.125 256.250,200.000 256.250 C 206.875 256.250,212.500 259.063,212.500 262.500 M262.500 262.500 C 262.500 265.938,256.875 268.750,250.000 268.750 C 243.125 268.750,237.500 265.938,237.500 262.500 C 237.500 259.063,243.125 256.250,250.000 256.250 C 256.875 256.250,262.500 259.063,262.500 262.500 M312.500 262.500 C 312.500 265.938,306.875 268.750,300.000 268.750 C 293.125 268.750,287.500 265.938,287.500 262.500 C 287.500 259.063,293.125 256.250,300.000 256.250 C 306.875 256.250,312.500 259.063,312.500 262.500 M364.865 296.597 C 370.439 318.788,375.000 339.882,375.000 343.472 C 375.000 357.036,251.319 351.642,243.886 337.754 C 237.655 326.111,239.872 325.419,288.979 323.692 L 340.625 321.875 341.708 293.750 C 343.179 255.553,343.039 256.250,349.240 256.250 C 352.260 256.250,359.291 274.406,364.865 296.597 M289.062 373.423 C 240.078 374.479,159.922 374.479,110.937 373.423 C 61.953 372.367,102.031 371.503,200.000 371.503 C 297.969 371.503,338.047 372.367,289.062 373.423 " stroke="none"   fill-rule="evenodd"></path></g></svg>
