<svg id="svg" xmlns="http://www.w3.org/2000/svg" xmlns:xlink="http://www.w3.org/1999/xlink" width="400" height="400" viewBox="0, 0, 400,400" version="1.1"><g id="svgg"><path id="path0" d="M197.192 5.737 C 182.061 30.220,107.217 202.758,109.868 207.047 C 111.721 210.046,132.759 212.500,156.619 212.500 C 180.478 212.500,200.000 213.986,200.000 215.803 C 200.000 241.476,160.120 293.750,140.535 293.750 C 114.559 293.750,113.846 298.093,130.276 356.250 C 145.078 408.641,148.501 408.609,215.625 355.451 C 275.566 307.981,281.980 298.038,254.688 294.897 C 232.590 292.355,231.763 295.723,272.299 223.150 C 312.145 151.813,311.996 151.249,252.599 148.743 L 208.338 146.875 241.201 78.334 C 259.276 40.636,272.702 7.589,271.038 4.896 C 266.788 -1.982,201.503 -1.238,197.192 5.737 M243.750 21.226 C 243.750 22.588,229.688 53.817,212.500 90.625 C 173.546 174.047,172.486 168.750,228.125 168.750 C 253.906 168.750,275.000 170.438,275.000 172.502 C 275.000 174.565,259.531 203.815,240.625 237.500 C 202.343 305.708,202.491 305.247,215.735 314.936 C 223.681 320.749,219.676 326.204,191.060 348.551 L 156.900 375.226 150.360 351.676 C 142.292 322.625,141.989 310.674,149.436 315.276 C 162.249 323.196,176.107 308.612,203.474 258.408 C 239.640 192.058,238.224 187.500,181.446 187.500 C 157.276 187.500,137.500 186.486,137.500 185.246 C 137.500 184.006,151.869 152.365,169.432 114.933 C 186.994 77.501,203.800 40.547,206.777 32.813 C 211.311 21.036,243.750 10.870,243.750 21.226 " stroke="none"   fill-rule="evenodd"></path></g></svg>
