<svg id="svg" xmlns="http://www.w3.org/2000/svg" xmlns:xlink="http://www.w3.org/1999/xlink" width="400" height="400" viewBox="0, 0, 400,400" version="1.1"><g id="svgg"><path id="path0" d="M131.470 55.839 C 127.911 62.488,125.000 72.052,125.000 77.092 C 125.000 84.307,112.986 86.721,68.518 88.441 C 26.905 90.050,10.477 93.093,6.114 100.000 C -3.867 115.800,-1.644 353.355,8.565 361.828 C 14.649 366.877,72.113 368.456,207.002 367.280 L 396.875 365.625 398.569 234.387 C 400.572 79.215,404.613 87.500,326.930 87.500 C 276.909 87.500,275.000 86.972,275.000 73.125 C 275.000 41.405,147.418 26.040,131.470 55.839 M250.000 65.114 C 250.000 66.551,251.707 72.176,253.794 77.614 C 257.072 86.157,250.279 87.500,203.794 87.500 C 154.167 87.500,150.000 86.532,150.000 75.000 C 150.000 63.542,154.167 62.500,200.000 62.500 C 227.500 62.500,250.000 63.676,250.000 65.114 M381.250 134.375 C 381.250 158.434,369.047 163.690,352.232 146.875 C 347.076 141.719,333.415 137.500,321.875 137.500 C 310.335 137.500,296.674 141.719,291.518 146.875 C 277.853 160.540,123.841 160.540,112.500 146.875 C 108.112 141.587,94.487 137.500,81.250 137.500 C 68.013 137.500,54.388 141.587,50.000 146.875 C 35.001 164.948,18.750 158.448,18.750 134.375 L 18.750 112.500 200.000 112.500 L 381.250 112.500 381.250 134.375 M50.000 184.375 C 54.388 189.663,68.013 193.750,81.250 193.750 C 94.487 193.750,108.112 189.663,112.500 184.375 C 123.949 170.579,284.466 170.579,289.760 184.375 C 294.580 196.936,339.575 196.936,350.000 184.375 C 375.180 154.035,381.689 170.722,379.864 260.938 L 378.125 346.875 200.000 346.875 L 21.875 346.875 20.136 260.938 C 18.311 170.722,24.820 154.035,50.000 184.375 M181.250 221.875 C 181.250 234.375,178.125 237.500,165.625 237.500 C 152.431 237.500,150.000 240.417,150.000 256.250 C 150.000 272.083,152.431 275.000,165.625 275.000 C 178.125 275.000,181.250 278.125,181.250 290.625 C 181.250 303.819,184.167 306.250,200.000 306.250 C 215.833 306.250,218.750 303.819,218.750 290.625 C 218.750 278.125,221.875 275.000,234.375 275.000 C 247.569 275.000,250.000 272.083,250.000 256.250 C 250.000 240.417,247.569 237.500,234.375 237.500 C 221.875 237.500,218.750 234.375,218.750 221.875 C 218.750 208.681,215.833 206.250,200.000 206.250 C 184.167 206.250,181.250 208.681,181.250 221.875 " stroke="none"   fill-rule="evenodd"></path></g></svg>
