<svg id="svg" xmlns="http://www.w3.org/2000/svg" xmlns:xlink="http://www.w3.org/1999/xlink" width="400" height="400" viewBox="0, 0, 400,400" version="1.1"><g id="svgg"><path id="path0" d="M15.341 102.841 C -0.990 119.171,-8.277 246.565,5.577 273.522 C 8.645 279.491,14.174 292.032,17.865 301.390 C 27.198 325.057,52.546 330.658,71.165 313.167 L 85.387 299.806 96.787 312.403 C 117.455 335.240,161.786 315.595,154.288 286.922 C 151.418 275.947,155.033 275.000,199.804 275.000 C 248.348 275.000,248.438 275.031,248.438 291.700 C 248.438 322.243,282.617 335.161,303.213 312.403 L 314.613 299.806 328.835 313.167 C 347.454 330.658,372.802 325.057,382.135 301.390 C 385.826 292.032,391.355 279.491,394.423 273.522 C 408.277 246.565,400.990 119.171,384.659 102.841 L 369.318 87.500 200.000 87.500 L 30.682 87.500 15.341 102.841 M369.820 116.594 C 379.490 125.345,381.250 136.893,381.250 191.594 L 381.250 256.250 200.000 256.250 L 18.750 256.250 18.750 192.680 C 18.750 99.975,5.669 106.250,198.914 106.250 C 338.538 106.250,359.814 107.538,369.820 116.594 M38.750 126.250 C 29.019 135.981,29.019 195.269,38.750 205.000 C 65.986 232.236,106.250 208.749,106.250 165.625 C 106.250 122.501,65.986 99.014,38.750 126.250 M126.250 126.250 C 116.519 135.981,116.519 195.269,126.250 205.000 C 153.486 232.236,193.750 208.749,193.750 165.625 C 193.750 122.501,153.486 99.014,126.250 126.250 M213.750 126.250 C 209.625 130.375,206.250 148.094,206.250 165.625 C 206.250 203.390,213.538 212.500,243.750 212.500 C 273.962 212.500,281.250 203.390,281.250 165.625 C 281.250 122.501,240.986 99.014,213.750 126.250 M301.250 126.250 C 297.125 130.375,293.750 148.094,293.750 165.625 C 293.750 203.390,301.038 212.500,331.250 212.500 C 361.462 212.500,368.750 203.390,368.750 165.625 C 368.750 122.501,328.486 99.014,301.250 126.250 M84.375 165.625 C 84.375 205.128,54.036 203.287,51.181 163.611 C 49.288 137.306,49.699 136.649,66.806 138.611 C 82.801 140.444,84.375 142.865,84.375 165.625 M171.875 165.625 C 171.875 198.003,142.213 204.496,138.596 172.910 C 135.634 147.036,141.626 136.330,157.785 138.624 C 169.723 140.319,171.875 144.443,171.875 165.625 M259.375 165.625 C 259.375 198.003,229.713 204.496,226.096 172.910 C 223.134 147.036,229.126 136.330,245.285 138.624 C 257.223 140.319,259.375 144.443,259.375 165.625 M348.797 164.063 C 346.358 197.775,317.281 205.083,313.596 172.910 C 310.637 147.062,316.292 137.500,334.538 137.500 C 349.709 137.500,350.599 139.158,348.797 164.063 " stroke="none"   fill-rule="evenodd"></path></g></svg>
