<svg id="svg" xmlns="http://www.w3.org/2000/svg" xmlns:xlink="http://www.w3.org/1999/xlink" width="400" height="400" viewBox="0, 0, 400,400" version="1.1"><g id="svgg"><path id="path0" d="M148.306 81.824 C 142.218 85.369,131.286 89.414,124.013 90.815 C 116.739 92.216,105.951 96.965,100.039 101.368 C 94.127 105.772,69.181 124.380,44.604 142.719 C 5.881 171.613,-5.712 187.500,11.925 187.500 C 14.641 187.500,39.530 170.625,67.235 150.000 C 94.940 129.375,119.271 112.500,121.304 112.500 C 127.738 112.500,125.291 205.333,118.750 209.375 C 109.243 215.251,111.290 225.000,122.031 225.000 C 127.273 225.000,151.109 215.156,175.000 203.125 C 222.452 179.229,234.444 176.771,239.485 189.907 C 244.424 202.778,228.238 222.199,204.936 231.364 C 193.628 235.811,173.964 249.293,161.239 261.324 C 138.955 282.392,135.758 283.379,74.393 288.133 C 39.352 290.847,7.809 295.941,4.296 299.454 C -7.186 310.936,14.680 313.299,78.731 307.495 C 116.491 304.074,143.542 304.148,148.107 307.684 C 152.221 310.873,162.065 312.849,169.982 312.076 C 177.898 311.304,191.234 313.451,199.617 316.847 C 214.302 322.798,226.871 320.659,267.782 305.248 C 275.843 302.211,285.601 291.350,289.465 281.113 C 296.221 263.215,297.981 262.500,335.299 262.500 C 391.540 262.500,393.750 258.952,393.750 168.658 C 393.750 70.833,399.507 74.938,262.672 75.190 C 203.427 75.299,154.654 78.128,148.306 81.824 M365.993 102.926 C 376.806 111.105,365.721 112.124,264.063 112.301 C 159.911 112.483,141.951 110.132,154.167 97.917 C 163.244 88.839,353.311 93.334,365.993 102.926 M373.711 195.313 L 371.875 240.625 300.185 242.405 L 228.494 244.185 245.497 226.438 C 291.835 178.072,252.032 146.910,183.789 178.125 C 141.296 197.562,143.750 197.945,143.750 171.875 L 143.750 150.000 259.649 150.000 L 375.548 150.000 373.711 195.313 M230.126 279.779 C 231.352 288.373,228.163 295.327,221.893 297.733 C 207.805 303.139,199.667 293.248,204.138 276.152 C 208.879 258.023,227.391 260.607,230.126 279.779 M268.750 274.331 C 268.750 280.839,264.531 287.782,259.375 289.760 C 252.602 292.359,250.000 289.076,250.000 277.929 C 250.000 268.381,253.573 262.500,259.375 262.500 C 264.531 262.500,268.750 267.824,268.750 274.331 M175.807 289.193 C 165.402 299.598,159.509 289.260,169.193 277.591 C 175.051 270.533,178.438 269.690,180.162 274.862 C 181.534 278.977,179.574 285.426,175.807 289.193 " stroke="none"   fill-rule="evenodd"></path></g></svg>
