<svg id="svg" xmlns="http://www.w3.org/2000/svg" xmlns:xlink="http://www.w3.org/1999/xlink" width="400" height="400" viewBox="0, 0, 400,400" version="1.1"><g id="svgg"><path id="path0" d="M85.417 4.167 C 77.712 11.871,80.625 355.899,88.521 370.723 C 102.666 397.282,111.866 399.594,204.234 399.801 C 326.432 400.075,318.750 412.087,318.750 220.748 L 318.750 74.432 303.409 59.091 C 288.752 44.433,284.575 43.750,209.659 43.750 L 131.250 43.750 131.250 21.875 C 131.250 0.491,100.841 -11.258,85.417 4.167 M287.650 75.000 C 296.766 89.463,295.477 364.523,286.250 373.750 C 281.233 378.767,253.412 381.250,202.229 381.250 C 99.360 381.250,106.254 393.806,106.237 206.422 L 106.224 59.375 193.983 62.500 C 262.725 64.948,283.021 67.656,287.650 75.000 M126.250 95.000 C 116.980 104.270,116.205 183.567,125.220 200.411 C 134.018 216.850,255.375 218.733,271.429 202.679 C 283.579 190.528,285.387 106.637,273.750 95.000 C 263.465 84.715,136.535 84.715,126.250 95.000 M256.250 146.875 L 256.250 187.500 200.000 187.500 L 143.750 187.500 143.750 146.875 L 143.750 106.250 200.000 106.250 L 256.250 106.250 256.250 146.875 M135.417 229.167 C 133.125 231.458,131.250 239.896,131.250 247.917 C 131.250 265.044,160.295 269.268,166.520 253.045 C 172.998 236.165,147.779 216.804,135.417 229.167 M183.678 233.937 C 177.455 250.153,186.178 263.557,201.535 261.376 C 221.563 258.532,221.563 228.968,201.535 226.124 C 193.083 224.924,185.937 228.050,183.678 233.937 M237.566 234.295 C 226.573 247.542,234.444 262.500,252.408 262.500 C 269.840 262.500,275.915 251.938,267.686 235.938 C 260.801 222.552,247.896 221.848,237.566 234.295 M139.063 279.490 C 128.045 283.441,129.318 312.151,140.705 316.520 C 151.724 320.749,168.750 308.491,168.750 296.330 C 168.750 286.235,149.966 275.581,139.063 279.490 M188.750 282.500 C 170.185 301.065,189.502 328.993,209.455 312.434 C 221.664 302.301,221.336 283.580,208.864 278.794 C 196.277 273.964,197.515 273.735,188.750 282.500 M240.217 283.900 C 227.632 293.103,231.585 310.623,247.637 316.782 C 259.704 321.413,275.845 303.226,270.962 290.501 C 266.119 277.880,252.461 274.948,240.217 283.900 M133.510 340.625 C 128.559 353.528,135.272 368.750,145.914 368.750 C 158.425 368.750,170.813 351.891,166.520 340.705 C 161.835 328.494,138.187 328.437,133.510 340.625 M183.678 340.187 C 177.455 356.403,186.178 369.807,201.535 367.626 C 221.563 364.782,221.563 335.218,201.535 332.374 C 193.083 331.174,185.937 334.300,183.678 340.187 M234.393 343.694 C 229.335 359.629,235.070 368.750,250.149 368.750 C 263.148 368.750,274.972 351.509,270.510 339.063 C 265.920 326.263,238.822 329.738,234.393 343.694 " stroke="none"   fill-rule="evenodd"></path></g></svg>
