<svg id="svg" xmlns="http://www.w3.org/2000/svg" xmlns:xlink="http://www.w3.org/1999/xlink" width="400" height="400" viewBox="0, 0, 400,400" version="1.1"><g id="svgg"><path id="path0" d="M160.795 12.500 C 152.054 19.375,137.428 25.000,128.291 25.000 C 86.081 25.000,77.929 44.794,105.616 80.054 C 135.610 118.250,135.261 126.018,102.783 143.248 C 2.203 196.606,-19.828 339.246,65.625 383.831 C 108.456 406.178,298.248 403.416,338.314 379.863 C 405.596 340.310,403.718 248.875,334.160 177.630 C 302.329 145.026,296.889 133.749,322.243 152.926 C 338.706 165.378,343.750 164.739,343.750 150.200 C 343.750 143.239,336.288 133.795,326.563 128.446 L 309.375 118.994 329.352 120.434 C 354.502 122.248,357.135 112.040,334.411 100.823 C 317.697 92.572,301.580 94.744,264.063 110.302 C 251.913 115.340,254.785 98.750,271.883 65.122 C 291.933 25.688,288.956 18.799,251.759 18.551 C 235.323 18.442,216.416 14.223,209.743 9.176 C 193.274 -3.280,179.682 -2.357,160.795 12.500 M206.250 34.375 C 210.529 39.531,222.827 43.813,233.578 43.889 L 253.125 44.028 237.500 56.250 C 218.609 71.027,210.249 71.724,200.000 59.375 C 195.721 54.219,187.283 50.000,181.250 50.000 C 175.217 50.000,166.779 54.219,162.500 59.375 C 158.221 64.531,149.783 68.750,143.750 68.750 C 137.717 68.750,129.279 64.531,125.000 59.375 C 118.509 51.554,119.369 50.000,130.191 50.000 C 146.261 50.000,175.000 37.331,175.000 30.247 C 175.000 21.394,197.998 24.432,206.250 34.375 M194.167 84.878 C 198.948 90.638,208.384 93.604,216.807 91.994 C 238.558 87.836,238.349 129.230,216.592 134.691 C 162.672 148.224,122.684 112.647,162.307 86.394 C 182.451 73.047,184.277 72.960,194.167 84.878 M190.625 158.518 C 207.813 158.047,230.313 155.772,240.625 153.463 C 304.335 139.194,384.727 262.500,356.362 330.980 C 330.070 394.455,76.765 399.190,43.392 336.830 C 10.746 275.831,90.649 134.191,146.219 154.554 C 153.455 157.206,173.438 158.990,190.625 158.518 M187.500 206.250 C 187.500 209.687,183.346 212.500,178.269 212.500 C 149.626 212.500,144.347 265.524,172.292 272.538 C 184.016 275.481,187.500 280.495,187.500 294.428 C 187.500 315.355,178.413 318.056,168.750 300.000 C 160.178 283.984,150.000 283.906,150.000 299.856 C 150.000 306.652,157.734 317.134,167.188 323.149 C 176.641 329.165,186.484 336.964,189.063 340.481 C 192.258 344.840,195.242 344.840,198.438 340.481 C 201.016 336.964,210.859 329.165,220.313 323.149 C 246.479 306.498,237.054 262.500,207.320 262.500 C 203.294 262.500,200.000 255.469,200.000 246.875 C 200.000 238.281,202.813 231.250,206.250 231.250 C 209.687 231.250,212.500 234.063,212.500 237.500 C 212.500 240.937,218.224 243.750,225.220 243.750 C 241.591 243.750,230.438 219.002,211.880 214.149 C 205.346 212.440,200.000 208.558,200.000 205.521 C 200.000 202.484,197.188 200.000,193.750 200.000 C 190.313 200.000,187.500 202.813,187.500 206.250 M187.500 243.750 C 187.500 250.625,184.688 256.250,181.250 256.250 C 177.813 256.250,175.000 250.625,175.000 243.750 C 175.000 236.875,177.813 231.250,181.250 231.250 C 184.688 231.250,187.500 236.875,187.500 243.750 M215.625 296.875 C 215.625 303.177,212.109 309.505,207.813 310.938 C 202.865 312.587,200.000 307.431,200.000 296.875 C 200.000 286.319,202.865 281.163,207.813 282.813 C 212.109 284.245,215.625 290.573,215.625 296.875 " stroke="none"   fill-rule="evenodd"></path></g></svg>
