<svg id="svg" xmlns="http://www.w3.org/2000/svg" xmlns:xlink="http://www.w3.org/1999/xlink" width="400" height="400" viewBox="0, 0, 400,400" version="1.1"><g id="svgg"><path id="path0" d="M178.125 50.722 C -10.750 109.304,-2.368 104.717,3.063 146.511 C 5.323 163.899,9.074 227.344,11.398 287.500 L 15.625 396.875 206.250 396.875 L 396.875 396.875 398.570 273.438 L 400.264 150.000 251.695 149.650 L 103.125 149.300 239.115 107.098 C 394.522 58.870,390.660 61.058,379.177 27.734 C 367.178 -7.089,362.956 -6.606,178.125 50.722 M337.500 40.625 C 347.515 46.350,349.627 49.637,343.382 49.779 C 338.023 49.900,328.180 45.871,321.507 40.824 C 305.970 29.072,317.050 28.935,337.500 40.625 M290.257 53.324 C 296.930 58.371,299.269 62.500,295.456 62.500 C 283.600 62.500,268.750 55.178,268.750 49.331 C 268.750 41.351,276.274 42.748,290.257 53.324 M246.460 68.111 C 253.107 70.714,255.884 74.488,252.632 76.499 C 249.379 78.509,239.722 76.281,231.172 71.548 C 214.811 62.493,225.803 60.022,246.460 68.111 M203.493 84.176 C 212.657 91.108,213.331 93.352,206.250 93.352 C 201.094 93.352,191.416 89.223,184.743 84.176 C 175.579 77.245,174.904 75.000,181.986 75.000 C 187.142 75.000,196.820 79.129,203.493 84.176 M156.250 96.875 C 167.409 103.254,168.895 105.870,161.449 106.029 C 146.769 106.340,131.250 99.687,131.250 93.081 C 131.250 85.387,137.926 86.400,156.250 96.875 M116.122 117.211 C 111.708 121.625,87.500 112.112,87.500 105.963 C 87.500 102.831,94.543 103.477,103.151 107.399 C 111.760 111.321,117.597 115.737,116.122 117.211 M43.750 153.125 C 43.750 158.281,39.697 162.500,34.744 162.500 C 24.302 162.500,17.254 153.580,23.087 147.747 C 30.556 140.277,43.750 143.711,43.750 153.125 M71.507 184.176 C 55.635 196.182,46.351 196.302,56.250 184.375 C 60.529 179.219,68.442 175.000,73.835 175.000 C 81.684 175.000,81.219 176.830,71.507 184.176 M118.750 184.375 C 114.471 189.531,108.157 193.750,104.719 193.750 C 101.233 193.750,101.910 189.605,106.250 184.375 C 110.529 179.219,116.843 175.000,120.281 175.000 C 123.767 175.000,123.090 179.145,118.750 184.375 M168.750 184.375 C 164.471 189.531,156.751 193.750,151.594 193.750 C 143.970 193.750,143.672 192.000,150.000 184.375 C 154.279 179.219,161.999 175.000,167.156 175.000 C 174.780 175.000,175.078 176.750,168.750 184.375 M215.257 184.176 C 199.385 196.182,190.101 196.302,200.000 184.375 C 204.279 179.219,212.192 175.000,217.585 175.000 C 225.434 175.000,224.969 176.830,215.257 184.176 M262.500 184.375 C 258.221 189.531,251.907 193.750,248.469 193.750 C 244.983 193.750,245.660 189.605,250.000 184.375 C 254.279 179.219,260.593 175.000,264.031 175.000 C 267.517 175.000,266.840 179.145,262.500 184.375 M309.524 185.119 C 303.958 190.685,297.851 193.684,295.952 191.785 C 290.388 186.221,299.907 175.000,310.190 175.000 C 318.353 175.000,318.262 176.381,309.524 185.119 M356.250 184.375 C 351.971 189.531,345.657 193.750,342.219 193.750 C 338.733 193.750,339.410 189.605,343.750 184.375 C 348.029 179.219,354.343 175.000,357.781 175.000 C 361.267 175.000,360.590 179.145,356.250 184.375 M381.250 300.000 L 381.250 381.250 209.375 381.250 L 37.500 381.250 37.500 300.000 L 37.500 218.750 209.375 218.750 L 381.250 218.750 381.250 300.000 " stroke="none"   fill-rule="evenodd"></path></g></svg>
