<svg id="svg" xmlns="http://www.w3.org/2000/svg" xmlns:xlink="http://www.w3.org/1999/xlink" width="400" height="400" viewBox="0, 0, 400,400" version="1.1"><g id="svgg"><path id="path0" d="M36.751 46.472 C -23.568 87.460,-7.642 265.561,62.914 339.032 L 91.452 368.750 166.377 368.750 C 258.527 368.750,286.046 355.787,319.417 296.656 C 330.320 277.336,345.178 259.233,352.433 256.427 C 409.261 234.453,415.566 137.253,362.500 101.234 C 318.901 71.642,236.416 97.607,227.171 143.834 C 224.148 158.947,219.726 162.292,197.892 165.981 C 181.087 168.820,165.170 177.330,151.964 190.536 L 131.754 210.746 114.314 191.592 C 77.596 151.261,67.874 131.250,85.000 131.250 C 97.635 131.250,137.500 91.876,137.500 79.397 C 137.500 43.068,72.853 21.940,36.751 46.472 M98.089 65.644 L 115.625 81.288 100.532 94.042 C 92.232 101.057,81.685 105.356,77.095 103.595 C 44.703 91.165,41.591 130.521,71.628 172.731 C 83.524 189.448,102.047 216.484,112.789 232.813 C 136.526 268.890,141.371 269.545,149.910 237.835 C 158.783 204.882,181.767 187.500,216.468 187.500 C 242.500 187.500,243.750 186.657,243.750 169.099 C 243.750 113.260,340.568 89.045,366.136 138.489 C 386.831 178.508,373.419 225.915,337.899 238.298 C 328.315 241.639,317.082 251.967,312.939 261.249 C 297.154 296.606,272.654 325.021,247.422 337.235 C 212.588 354.098,106.348 351.432,86.190 333.189 C 50.400 300.800,24.130 222.792,22.778 144.889 L 21.875 92.902 45.221 71.451 C 73.112 45.823,75.569 45.554,98.089 65.644 " stroke="none"   fill-rule="evenodd"></path></g></svg>
