<svg id="svg" xmlns="http://www.w3.org/2000/svg" xmlns:xlink="http://www.w3.org/1999/xlink" width="400" height="400" viewBox="0, 0, 400,400" version="1.1"><g id="svgg"><path id="path0" d="M107.542 10.429 C 58.151 34.771,35.997 170.464,68.886 247.192 C 84.785 284.282,92.507 280.856,109.212 229.301 C 123.664 184.697,146.191 155.683,175.935 143.363 C 200.827 133.052,201.309 134.651,191.042 193.465 C 170.766 309.608,98.228 386.457,34.148 359.683 C 5.343 347.648,0.000 347.580,-0.000 359.248 C -0.000 394.779,133.365 412.236,213.669 387.217 C 270.904 369.385,313.215 369.202,352.583 386.616 C 388.532 402.518,400.000 403.403,400.000 390.274 C 400.000 370.954,345.525 353.253,285.868 353.186 C 241.150 353.136,231.736 351.498,234.518 344.250 C 242.454 323.569,249.554 279.715,256.354 209.375 C 264.819 121.820,262.577 126.494,288.765 141.789 C 316.107 157.757,335.579 194.027,340.756 238.626 C 346.020 283.984,354.011 284.649,379.929 241.884 C 425.417 166.830,396.969 102.798,306.559 76.734 L 278.125 68.536 305.011 71.894 C 319.799 73.740,343.219 82.744,357.057 91.901 C 388.621 112.789,396.357 104.518,384.005 63.089 C 366.736 5.170,318.139 -14.904,259.375 11.606 C 235.272 22.480,233.478 22.479,209.375 11.579 C 178.347 -2.451,134.677 -2.945,107.542 10.429 M210.310 38.907 C 234.659 50.814,237.142 50.958,250.935 41.264 C 288.456 14.895,341.353 18.450,352.733 48.107 C 356.434 57.751,354.997 57.817,319.495 49.632 C 286.871 42.111,254.702 50.549,240.905 70.247 C 228.327 88.205,233.822 93.727,264.431 93.887 C 338.944 94.278,393.113 148.243,374.772 203.815 L 367.311 226.423 356.377 194.124 C 315.792 74.240,158.026 73.392,97.376 192.731 L 83.007 221.004 78.589 191.542 C 70.073 134.755,102.200 96.904,165.625 88.997 C 209.752 83.496,215.045 71.763,181.250 54.360 C 159.738 43.282,130.914 42.969,103.125 53.510 C 91.886 57.773,92.122 56.608,105.464 41.959 C 129.135 15.969,161.476 15.028,210.310 38.907 M234.927 189.063 C 224.347 351.071,207.260 381.112,125.625 381.215 L 98.125 381.250 124.040 362.477 C 177.717 323.593,211.353 255.284,217.122 173.438 C 219.741 136.284,222.700 125.000,229.823 125.000 C 237.707 125.000,238.478 134.677,234.927 189.063 " stroke="none"   fill-rule="evenodd"></path></g></svg>
