<svg id="svg" xmlns="http://www.w3.org/2000/svg" xmlns:xlink="http://www.w3.org/1999/xlink" width="400" height="400" viewBox="0, 0, 400,400" version="1.1"><g id="svgg"><path id="path0" d="M31.583 29.026 C -24.881 82.317,1.452 151.867,124.793 275.207 C 248.141 398.556,316.716 424.524,370.419 368.220 C 410.892 325.786,408.935 317.778,347.846 275.832 L 298.817 242.167 267.915 256.641 L 237.013 271.115 184.132 218.508 C 129.671 164.331,124.725 154.766,140.426 134.007 C 156.218 113.129,151.274 91.671,120.259 46.469 C 82.573 -8.455,73.240 -10.291,31.583 29.026 M106.017 55.907 C 134.451 97.778,136.404 109.974,119.202 138.259 C 102.439 165.824,144.972 225.516,217.277 275.901 L 243.929 294.474 261.992 281.612 C 287.747 263.272,302.041 265.426,344.093 293.983 C 387.800 323.664,387.856 323.902,358.648 356.232 C 314.249 405.376,239.037 371.832,124.263 251.700 C 20.353 142.939,-2.519 83.170,43.768 41.352 C 76.098 12.144,76.336 12.200,106.017 55.907 " stroke="none"   fill-rule="evenodd"></path></g></svg>
