<svg id="svg" xmlns="http://www.w3.org/2000/svg" xmlns:xlink="http://www.w3.org/1999/xlink" width="400" height="400" viewBox="0, 0, 400,400" version="1.1"><g id="svgg"><path id="path0" d="M31.821 52.438 C 27.567 57.563,20.357 60.326,15.800 58.577 C 1.315 53.019,-1.780 69.159,11.064 83.275 C 34.571 109.111,38.951 123.540,30.791 148.265 C 14.955 196.249,33.747 341.197,59.258 367.830 C 69.920 378.961,93.750 371.314,93.750 356.761 C 93.750 308.179,117.246 295.042,133.491 334.542 C 153.695 383.670,190.079 388.348,186.392 341.344 C 183.538 304.957,213.221 298.684,224.633 333.262 C 241.785 385.234,279.317 387.695,276.752 336.680 L 275.379 309.375 288.290 338.624 C 310.650 389.279,337.500 386.568,337.500 333.656 C 337.500 299.999,337.576 299.869,362.987 289.701 C 399.494 275.094,416.583 222.018,386.194 217.622 C 363.523 214.343,361.479 187.552,382.547 169.825 C 396.728 157.892,400.000 150.039,400.000 127.938 C 400.000 93.765,391.398 88.148,370.724 108.821 C 350.233 129.312,349.408 129.236,316.076 103.794 C 243.867 48.675,124.395 44.410,70.515 95.028 C 62.696 102.373,54.221 106.304,51.681 103.764 C 49.140 101.224,53.608 94.207,61.610 88.172 C 81.597 73.095,78.117 47.601,55.715 44.997 C 46.827 43.963,36.075 47.312,31.821 52.438 M244.380 88.564 C 284.279 102.299,313.827 125.791,309.307 140.182 C 298.645 174.122,298.531 181.250,308.646 181.250 C 314.203 181.250,318.750 177.467,318.750 172.844 C 318.750 161.246,336.633 146.859,361.362 138.562 C 391.290 128.521,386.314 149.122,355.129 164.366 L 332.133 175.608 343.844 201.866 C 353.659 223.875,361.355 232.298,380.194 241.652 C 400.607 251.788,349.277 278.056,293.750 285.889 L 259.375 290.739 256.012 318.807 L 252.649 346.875 244.085 320.313 C 235.631 294.090,235.149 293.750,206.409 293.750 C 190.397 293.750,160.750 290.691,140.527 286.953 C 98.347 279.156,92.840 282.893,80.141 327.932 L 73.038 353.125 61.148 315.625 C 31.757 222.927,40.633 141.892,83.692 109.820 C 121.039 82.002,196.372 72.037,244.380 88.564 M329.167 216.667 C 321.975 223.858,324.615 231.250,334.375 231.250 C 339.531 231.250,343.750 227.031,343.750 221.875 C 343.750 212.115,336.358 209.475,329.167 216.667 M162.404 326.563 C 162.327 337.934,161.149 338.831,156.250 331.250 C 148.419 319.133,148.419 312.500,156.250 312.500 C 159.688 312.500,162.457 318.828,162.404 326.563 " stroke="none"   fill-rule="evenodd"></path></g></svg>
