<svg id="svg" xmlns="http://www.w3.org/2000/svg" xmlns:xlink="http://www.w3.org/1999/xlink" width="400" height="400" viewBox="0, 0, 400,400" version="1.1"><g id="svgg"><path id="path0" d="M111.016 16.034 C 82.501 31.506,66.139 76.333,80.647 99.238 C 89.318 112.928,100.000 101.205,100.000 78.000 C 100.000 52.472,119.860 31.250,143.750 31.250 C 161.831 31.250,187.500 51.561,187.500 65.868 C 187.500 70.891,193.125 75.000,200.000 75.000 C 214.973 75.000,215.648 67.967,203.019 43.545 C 185.722 10.097,144.613 -2.196,111.016 16.034 M284.375 52.573 C 274.063 57.156,259.203 67.874,251.354 76.391 C 238.844 89.964,233.192 91.501,205.554 88.845 C 152.968 83.793,103.117 102.544,64.301 141.978 C 33.191 173.583,31.413 174.483,24.741 162.015 C 19.236 151.729,19.848 146.646,27.627 138.050 C 41.050 123.218,40.040 112.500,25.220 112.500 C -2.587 112.500,-9.605 166.538,15.625 186.383 C 28.881 196.810,31.250 203.845,31.250 232.774 C 31.250 265.724,51.587 307.405,74.604 321.630 C 79.316 324.543,79.336 329.398,74.671 338.115 C 64.429 357.252,73.149 372.902,100.050 383.666 C 127.870 394.797,142.634 391.607,149.526 372.974 C 156.107 355.183,229.325 352.906,234.865 370.319 C 241.146 390.062,259.529 394.838,286.975 383.856 C 311.645 373.985,323.655 356.743,315.290 343.208 C 312.943 339.411,319.326 328.721,329.473 319.453 C 339.620 310.185,350.500 298.210,353.649 292.842 C 356.798 287.475,367.813 280.338,378.125 276.983 C 407.794 267.331,410.443 196.606,381.544 185.698 C 371.053 181.738,360.794 173.222,358.748 166.773 C 356.701 160.325,343.630 143.989,329.702 130.472 C 304.653 106.163,304.459 105.624,311.853 80.944 C 322.882 44.133,317.008 38.069,284.375 52.573 M282.572 101.965 C 280.496 119.741,283.357 125.124,302.734 139.903 C 315.153 149.375,330.165 167.361,336.094 179.872 C 342.974 194.388,352.529 203.930,362.500 206.244 C 384.198 211.278,389.913 256.250,368.854 256.250 C 348.434 256.250,285.749 323.424,290.078 340.669 C 295.714 363.126,264.679 374.120,255.085 353.065 C 251.185 344.504,246.336 337.319,244.309 337.097 C 180.433 330.104,140.401 335.206,132.673 351.325 C 119.462 378.878,93.913 363.900,98.303 331.176 C 100.893 311.867,99.143 306.231,88.849 300.722 C 67.996 289.562,48.218 241.542,52.947 213.551 C 63.856 148.981,112.103 115.871,196.036 115.355 C 248.861 115.031,252.020 114.227,263.745 98.132 C 280.063 75.730,285.505 76.838,282.572 101.965 M285.680 191.403 C 279.115 197.968,280.312 217.432,287.556 221.910 C 300.141 229.687,319.553 218.195,317.552 204.151 C 315.645 190.768,294.695 182.388,285.680 191.403 " stroke="none"   fill-rule="evenodd"></path></g></svg>
