<?xml version="1.0" standalone="no"?>
<!DOCTYPE svg PUBLIC "-//W3C//DTD SVG 20010904//EN"
 "http://www.w3.org/TR/2001/REC-SVG-20010904/DTD/svg10.dtd">
<svg version="1.0" xmlns="http://www.w3.org/2000/svg"
 width="64.000000pt" height="64.000000pt" viewBox="0 0 64.000000 64.000000"
 preserveAspectRatio="xMidYMid meet">

<g transform="translate(0.000000,64.000000) scale(0.100000,-0.100000)"
  stroke="none">
<path d="M431 443 c-78 -34 -86 -36 -125 -25 -88 26 -143 35 -169 28 -42 -10
-34 -40 18 -70 25 -15 45 -29 45 -32 0 -2 -21 -14 -46 -24 l-45 -20 -33 25
c-18 14 -43 25 -54 25 -18 0 -22 -6 -22 -35 0 -49 39 -124 68 -132 35 -8 106
4 163 28 27 12 52 19 55 16 3 -3 -1 -39 -8 -79 -16 -85 -14 -98 13 -98 32 0
62 42 109 150 l44 102 60 30 c75 37 126 75 126 92 0 22 -37 48 -77 52 -29 3
-59 -5 -122 -33z m153 -18 c0 -5 -37 -29 -80 -52 l-80 -42 -57 -122 c-32 -67
-60 -120 -62 -117 -3 3 1 37 10 77 8 40 15 83 15 95 l0 23 -84 -33 c-46 -19
-104 -37 -129 -40 l-45 -6 -21 47 c-12 27 -19 50 -17 53 3 2 17 -5 32 -17 15
-11 34 -21 43 -21 9 0 102 38 206 85 152 68 198 85 230 83 22 -2 40 -7 39 -13z
m-350 -24 c56 -17 58 -19 37 -30 -19 -10 -29 -8 -67 14 -68 40 -61 45 30 16z"/>
</g>
</svg>
