<svg id="svg" xmlns="http://www.w3.org/2000/svg" xmlns:xlink="http://www.w3.org/1999/xlink" width="400" height="400" viewBox="0, 0, 400,400" version="1.1"><g id="svgg"><path id="path0" d="M18.750 12.500 C 6.959 24.291,6.250 33.333,6.250 171.875 C 6.250 350.362,3.347 343.750,81.729 343.750 C 128.830 343.750,220.120 371.720,245.840 394.031 C 261.064 407.237,275.453 389.346,305.615 319.705 C 322.963 279.648,351.083 214.907,368.104 175.836 C 385.124 136.764,397.677 101.219,395.999 96.847 C 393.574 90.527,337.114 64.445,257.813 33.010 C 253.516 31.306,250.052 32.323,250.114 35.269 C 250.177 38.215,278.646 53.281,313.378 68.750 C 348.109 84.219,377.872 100.344,379.517 104.585 C 382.510 112.298,352.597 186.446,294.378 315.625 C 259.526 392.957,263.851 390.732,203.351 362.457 L 165.625 344.825 192.598 344.288 C 246.242 343.219,243.750 351.617,243.750 171.875 C 243.750 21.137,243.126 12.606,231.661 6.470 C 207.172 -6.636,32.952 -1.702,18.750 12.500 M231.250 171.875 L 231.250 325.000 128.125 325.000 L 25.000 325.000 25.000 171.875 L 25.000 18.750 128.125 18.750 L 231.250 18.750 231.250 171.875 M47.397 47.770 C 42.884 59.530,43.455 60.540,56.250 63.426 C 66.087 65.644,69.215 58.483,64.161 45.313 C 59.978 34.414,52.077 35.572,47.397 47.770 M325.000 109.150 C 325.000 121.905,342.433 128.817,351.566 119.684 C 359.729 111.521,358.021 109.308,339.063 103.480 C 328.541 100.246,325.000 101.673,325.000 109.150 M109.336 122.807 C 103.667 128.475,100.365 138.221,101.998 144.464 C 103.882 151.671,100.848 157.122,93.685 159.396 C 87.481 161.365,80.749 167.291,78.725 172.566 C 71.379 191.710,97.701 218.521,113.970 208.466 C 118.219 205.840,119.438 210.276,117.398 220.946 C 114.641 235.366,116.297 237.500,130.242 237.500 C 142.693 237.500,144.583 235.833,138.750 230.000 C 127.445 218.695,129.336 204.178,141.506 208.848 C 170.837 220.104,189.193 177.719,162.269 160.905 C 156.207 157.120,152.589 150.524,154.230 146.249 C 163.852 121.174,129.111 103.032,109.336 122.807 M250.000 193.292 C 250.000 213.255,253.563 215.992,267.802 206.968 C 279.142 199.782,274.412 178.785,260.866 176.176 C 252.448 174.555,250.000 178.411,250.000 193.292 M188.898 278.786 C 181.106 287.127,184.797 306.250,194.199 306.250 C 197.148 306.250,202.172 301.328,205.364 295.313 C 213.176 280.593,199.774 267.142,188.898 278.786 " stroke="none" fill-rule="evenodd"></path></g></svg>
