<svg id="svg" xmlns="http://www.w3.org/2000/svg" xmlns:xlink="http://www.w3.org/1999/xlink" width="400" height="400" viewBox="0, 0, 400,400" version="1.1"><g id="svgg"><path id="path0" d="M137.500 27.896 C 115.156 43.050,80.703 59.993,60.938 65.548 C 17.334 77.801,13.539 92.689,45.999 124.151 C 76.736 153.942,87.855 191.071,69.824 203.701 C 50.669 217.118,51.295 251.445,70.977 266.927 C 79.076 273.298,91.482 291.574,98.545 307.541 C 151.648 427.589,248.446 425.511,304.230 303.125 C 310.497 289.375,321.953 272.999,329.688 266.734 C 347.884 251.994,348.304 221.278,330.568 202.399 C 313.752 184.499,327.491 141.000,356.808 119.326 C 385.809 97.885,381.825 76.899,347.094 68.153 C 331.746 64.288,297.408 47.373,270.787 30.563 C 208.280 -8.908,192.239 -9.228,137.500 27.896 M260.575 50.000 C 286.272 67.187,309.691 81.250,312.617 81.250 C 315.542 81.250,325.512 84.130,334.772 87.651 L 351.607 94.052 329.365 115.653 L 307.123 137.254 280.124 127.479 C 243.902 114.365,155.653 114.529,119.030 127.778 L 91.184 137.851 69.396 116.063 C 49.525 96.192,48.676 93.931,59.742 90.358 C 90.739 80.349,121.771 64.865,154.736 42.956 C 200.717 12.396,204.753 12.665,260.575 50.000 M181.096 53.310 C 170.058 66.610,182.745 93.750,200.000 93.750 C 217.255 93.750,229.942 66.610,218.904 53.310 C 208.742 41.066,191.258 41.066,181.096 53.310 M283.237 150.619 C 305.048 160.557,304.375 166.038,279.688 179.527 C 237.826 202.398,100.000 189.797,100.000 163.098 C 100.000 140.502,240.093 130.961,283.237 150.619 M160.737 213.482 C 170.300 214.022,164.063 216.131,146.875 218.169 C 116.107 221.818,115.625 222.209,115.625 243.510 C 115.625 284.092,172.472 293.754,184.693 255.249 C 186.700 248.925,193.588 243.750,200.000 243.750 C 206.412 243.750,213.300 248.925,215.307 255.249 C 227.528 293.754,284.375 284.092,284.375 243.510 C 284.375 222.209,283.893 221.818,253.125 218.169 C 235.938 216.131,229.700 214.022,239.263 213.482 C 248.827 212.942,266.405 208.425,278.326 203.444 C 298.467 195.028,300.000 195.198,300.000 205.840 C 300.000 212.139,305.625 218.763,312.500 220.561 C 328.782 224.819,328.508 241.523,311.993 251.510 C 304.839 255.836,291.263 276.250,281.824 296.875 C 235.630 397.807,167.389 398.284,119.580 298.010 C 109.449 276.761,95.273 255.836,88.080 251.510 C 71.501 241.540,71.188 224.827,87.500 220.561 C 94.375 218.763,100.000 212.139,100.000 205.840 C 100.000 195.198,101.533 195.028,121.674 203.444 C 133.595 208.425,151.173 212.942,160.737 213.482 " stroke="none"   fill-rule="evenodd"></path></g></svg>
