<svg id="svg" xmlns="http://www.w3.org/2000/svg" xmlns:xlink="http://www.w3.org/1999/xlink" width="400" height="400" viewBox="0, 0, 400,400" version="1.1"><g id="svgg"><path id="path0" d="M257.048 39.063 C 250.856 53.672,238.053 86.016,228.598 110.938 L 211.407 156.250 156.462 156.250 C 101.604 156.250,101.504 156.221,93.936 137.949 C 89.767 127.884,82.394 118.128,77.553 116.270 C 72.711 114.412,68.750 109.021,68.750 104.290 C 68.750 79.167,28.152 66.752,10.344 86.430 C -15.927 115.458,3.806 147.737,43.903 141.325 C 71.788 136.867,81.250 148.732,81.250 188.156 C 81.250 211.272,101.001 250.877,122.445 270.761 L 138.647 285.785 122.449 301.983 C 96.203 328.229,100.846 368.652,131.953 384.739 C 166.147 402.421,206.213 375.662,206.284 335.095 L 206.319 315.625 246.307 315.355 L 286.295 315.085 283.132 334.575 C 275.369 382.412,340.499 410.195,372.685 372.776 C 397.504 343.923,381.843 287.500,349.016 287.500 C 344.724 287.500,351.668 276.793,364.447 263.707 C 429.918 196.658,405.146 69.076,318.028 24.632 C 281.146 5.816,270.023 8.448,257.048 39.063 M319.734 55.530 C 339.988 68.375,352.922 83.108,364.707 106.758 C 389.940 157.393,391.219 156.250,309.375 156.250 C 269.844 156.250,237.500 154.917,237.500 153.288 C 237.500 151.658,245.497 129.862,255.272 104.850 C 265.046 79.839,274.802 54.453,276.951 48.438 C 282.193 33.763,286.549 34.485,319.734 55.530 M43.750 108.333 C 43.750 112.917,41.899 118.517,39.638 120.779 C 33.985 126.431,18.059 112.424,22.313 105.542 C 27.638 96.925,43.750 99.023,43.750 108.333 M377.897 195.313 C 338.543 327.230,156.220 328.307,106.266 196.917 L 100.309 181.250 241.201 181.250 L 382.092 181.250 377.897 195.313 M180.167 336.998 C 184.346 365.012,157.986 377.915,136.430 358.406 C 121.088 344.523,122.013 327.801,138.773 316.062 C 155.655 304.237,176.882 314.972,180.167 336.998 M361.417 336.998 C 365.596 365.012,339.236 377.915,317.680 358.406 C 302.338 344.523,303.263 327.801,320.023 316.062 C 336.905 304.237,358.132 314.972,361.417 336.998 " stroke="none"   fill-rule="evenodd"></path></g></svg>
