<svg id="svg" xmlns="http://www.w3.org/2000/svg" xmlns:xlink="http://www.w3.org/1999/xlink" width="400" height="400" viewBox="0, 0, 400,400" version="1.1"><g id="svgg"><path id="path0" d="M46.591 15.341 C 12.837 49.095,39.940 105.245,86.397 97.808 C 129.728 90.872,145.993 45.424,115.909 15.341 C 95.613 -4.955,66.887 -4.955,46.591 15.341 M267.101 7.813 C 240.271 28.187,241.626 70.298,269.746 89.994 C 321.581 126.301,376.754 46.840,326.317 8.521 C 312.617 -1.888,280.383 -2.273,267.101 7.813 M103.123 33.494 C 119.655 58.726,95.218 89.165,69.485 75.394 C 44.045 61.778,52.982 18.750,81.250 18.750 C 87.967 18.750,97.809 25.385,103.123 33.494 M312.911 25.220 C 338.535 38.934,315.714 86.616,288.345 76.547 C 266.632 68.558,261.160 36.292,279.688 25.501 C 293.677 17.353,298.140 17.315,312.911 25.220 M162.500 70.906 C 162.500 98.521,184.773 110.991,203.190 93.688 C 225.361 72.860,219.731 43.532,197.158 62.265 C 191.284 67.140,187.347 67.309,184.563 62.803 C 177.004 50.574,162.500 55.901,162.500 70.906 M9.729 120.141 C -8.471 146.126,-4.021 265.827,15.625 278.700 C 30.048 288.150,31.250 292.632,31.250 336.969 C 31.250 394.832,35.350 400.000,81.250 400.000 C 130.408 400.000,131.186 398.460,131.650 300.313 C 132.038 217.970,132.329 216.188,142.159 235.938 C 150.309 252.314,156.287 256.432,173.009 257.188 C 184.417 257.703,197.266 258.406,201.563 258.750 C 205.859 259.094,210.781 267.813,212.500 278.125 C 215.123 293.862,218.848 297.187,235.681 298.814 L 255.738 300.754 257.556 348.814 L 259.375 396.875 296.875 396.875 L 334.375 396.875 336.194 348.814 L 338.012 300.754 358.069 298.814 C 373.155 297.356,378.605 293.503,380.063 283.266 C 381.128 275.782,386.050 266.297,391.000 262.189 C 403.751 251.606,402.296 235.155,383.564 178.146 C 360.651 108.409,358.125 106.250,299.478 106.250 C 244.075 106.250,243.967 106.319,212.500 161.503 C 186.068 207.856,184.935 208.069,171.992 169.104 C 152.765 111.216,145.341 106.250,78.026 106.250 C 24.589 106.250,18.606 107.467,9.729 120.141 M130.433 133.391 C 139.823 144.705,175.801 232.533,172.428 235.906 C 169.137 239.197,155.536 217.662,139.882 184.375 C 120.169 142.456,115.812 156.045,112.500 269.780 C 108.905 393.244,95.678 428.893,92.428 323.878 C 90.979 277.066,88.784 265.625,81.250 265.625 C 73.716 265.625,71.521 277.066,70.072 323.878 C 66.822 428.893,53.595 393.244,50.000 269.780 C 46.685 155.944,35.790 119.184,32.560 210.938 C 31.561 239.297,28.046 262.500,24.747 262.500 C 15.715 262.500,17.112 141.638,26.250 132.500 C 36.927 121.823,121.433 122.546,130.433 133.391 M342.153 132.813 C 345.554 137.109,354.747 160.313,362.583 184.375 C 370.418 208.438,378.125 231.641,379.708 235.938 C 381.292 240.234,379.919 243.750,376.658 243.750 C 373.397 243.750,365.620 226.875,359.375 206.250 C 352.848 184.692,344.456 168.750,339.635 168.750 C 327.902 168.750,329.037 178.804,346.605 230.455 C 364.849 284.096,366.801 282.414,289.166 279.937 L 232.394 278.125 247.363 231.250 C 271.157 156.742,260.488 143.650,224.442 203.125 C 212.984 222.031,201.067 237.500,197.961 237.500 C 194.854 237.500,196.388 231.172,201.370 223.438 C 206.352 215.703,220.980 190.391,233.877 167.188 L 257.326 125.000 296.648 125.000 C 320.641 125.000,338.380 128.046,342.153 132.813 M287.500 340.625 C 287.500 363.542,284.776 381.250,281.250 381.250 C 277.724 381.250,275.000 363.542,275.000 340.625 C 275.000 317.708,277.724 300.000,281.250 300.000 C 284.776 300.000,287.500 317.708,287.500 340.625 M318.750 340.625 C 318.750 363.542,316.026 381.250,312.500 381.250 C 308.974 381.250,306.250 363.542,306.250 340.625 C 306.250 317.708,308.974 300.000,312.500 300.000 C 316.026 300.000,318.750 317.708,318.750 340.625 " stroke="none"   fill-rule="evenodd"></path></g></svg>
