<svg id="svg" xmlns="http://www.w3.org/2000/svg" xmlns:xlink="http://www.w3.org/1999/xlink" width="400" height="400" viewBox="0, 0, 400,400" version="1.1"><g id="svgg"><path id="path0" d="M16.331 16.040 C 9.330 34.283,12.160 122.160,20.000 130.000 C 30.988 140.988,358.339 140.670,367.474 129.662 C 371.052 125.352,375.165 111.992,376.614 99.975 C 378.294 86.050,379.612 92.294,380.250 117.188 C 380.800 138.672,379.479 156.250,377.315 156.250 C 372.570 156.250,235.848 185.759,209.375 192.497 C 194.161 196.369,190.261 200.989,188.695 216.998 C 187.248 231.794,183.341 237.214,173.070 238.676 C 159.811 240.563,159.375 243.112,159.375 318.750 L 159.375 396.875 196.875 396.875 L 234.375 396.875 236.124 317.188 L 237.873 237.500 222.062 237.500 C 209.614 237.500,206.250 234.363,206.250 222.753 C 206.250 208.879,211.153 206.970,289.063 190.512 C 409.325 165.107,400.000 171.438,400.000 115.195 C 400.000 73.264,398.547 67.200,387.828 64.397 C 378.672 62.002,375.187 54.790,373.765 35.294 L 371.875 9.375 196.018 7.716 C 39.736 6.242,19.735 7.169,16.331 16.040 M356.250 68.750 L 356.250 118.750 193.750 118.750 L 31.250 118.750 31.250 68.750 L 31.250 18.750 193.750 18.750 L 356.250 18.750 356.250 68.750 M221.875 318.750 L 221.875 384.375 198.438 386.315 L 175.000 388.255 175.000 318.750 L 175.000 249.245 198.438 251.185 L 221.875 253.125 221.875 318.750 " stroke="none"   fill-rule="evenodd"></path></g></svg>
