<svg id="svg" xmlns="http://www.w3.org/2000/svg" xmlns:xlink="http://www.w3.org/1999/xlink" width="400" height="400" viewBox="0, 0, 400,400" version="1.1"><g id="svgg"><path id="path0" d="M225.702 9.568 C 99.913 44.557,8.685 154.765,1.523 280.388 C -4.150 379.876,20.723 403.780,124.475 398.554 C 275.879 390.926,392.021 273.500,398.130 121.875 C 402.536 12.483,346.480 -24.028,225.702 9.568 M346.762 31.835 C 350.756 35.782,340.394 50.108,317.074 72.877 C 297.371 92.115,281.250 110.307,281.250 113.303 C 281.250 126.533,299.497 116.043,332.741 83.702 L 368.607 48.809 375.521 66.592 C 422.568 187.584,277.662 369.145,125.739 379.558 C 47.784 384.902,40.716 376.922,84.000 332.433 C 115.242 300.321,126.511 281.250,114.244 281.250 C 111.765 281.250,93.510 297.308,73.677 316.934 C 29.868 360.286,22.370 357.110,22.548 295.276 C 22.928 163.819,124.549 48.413,262.500 22.773 C 284.517 18.681,339.426 24.586,346.762 31.835 M196.561 119.258 C 194.264 122.975,200.090 134.059,209.508 143.889 C 225.017 160.077,225.713 162.680,216.887 171.506 C 204.077 184.316,197.996 183.801,184.375 168.750 C 178.153 161.875,169.280 156.250,164.656 156.250 C 152.239 156.250,154.448 171.432,168.750 184.375 C 183.729 197.931,184.591 208.197,171.649 218.938 C 163.622 225.599,159.095 224.076,144.032 209.645 C 126.562 192.907,112.500 192.466,112.500 208.654 C 112.500 213.009,119.527 223.173,128.116 231.241 C 142.770 245.008,143.093 246.617,133.362 257.369 C 120.440 271.648,127.625 280.271,143.949 270.076 C 159.810 260.171,159.189 260.029,178.589 278.008 C 195.292 293.487,206.250 293.819,206.250 278.846 C 206.250 274.491,199.404 264.497,191.036 256.637 C 175.958 242.471,175.930 242.229,187.907 229.373 L 199.991 216.403 218.787 234.410 C 246.064 260.543,260.543 246.064,234.410 218.787 L 216.403 199.991 229.373 187.907 C 242.229 175.930,242.471 175.958,256.637 191.036 C 264.497 199.404,274.491 206.250,278.846 206.250 C 294.492 206.250,293.709 194.218,277.057 178.777 C 261.464 164.318,260.781 161.766,268.598 147.159 C 279.187 127.373,272.688 119.499,257.279 133.444 C 246.412 143.278,244.732 142.969,228.794 128.197 C 210.246 111.008,202.916 108.975,196.561 119.258 " stroke="none"   fill-rule="evenodd"></path></g></svg>
