<svg id="svg" xmlns="http://www.w3.org/2000/svg" xmlns:xlink="http://www.w3.org/1999/xlink" width="400" height="400" viewBox="0, 0, 400,400" version="1.1"><g id="svgg"><path id="path0" d="M262.500 29.414 C 257.344 31.299,247.500 37.921,240.625 44.129 C 233.750 50.338,220.319 58.375,210.777 61.990 C 176.964 74.801,187.445 111.208,222.419 102.430 C 245.913 96.533,252.132 186.381,229.522 205.063 C 192.517 235.640,157.366 218.072,161.274 170.954 C 165.285 122.585,159.144 118.750,77.696 118.750 C 1.577 118.750,2.139 118.270,1.120 184.158 C 0.463 226.595,2.265 235.980,13.330 247.758 C 20.469 255.357,24.409 264.650,22.085 268.410 C 13.873 281.698,31.761 318.693,51.280 328.787 C 84.700 346.069,137.500 322.474,137.500 290.258 C 137.500 273.449,237.098 275.842,264.063 293.298 C 276.953 301.643,287.500 310.711,287.500 313.450 C 287.500 324.589,326.830 338.548,347.363 334.696 C 412.131 322.545,418.665 202.171,355.247 189.487 C 338.145 186.067,312.221 153.200,293.126 110.732 C 286.125 95.160,286.730 92.341,298.903 83.815 C 333.662 59.469,303.517 14.420,262.500 29.414 M287.500 60.044 C 287.500 66.634,284.101 68.783,277.614 66.294 C 272.176 64.207,264.979 62.500,261.620 62.500 C 258.261 62.500,257.251 59.688,259.375 56.250 C 265.670 46.064,287.500 49.008,287.500 60.044 M300.473 186.301 C 286.437 190.979,256.379 219.902,248.419 236.388 L 240.338 253.125 165.482 252.652 C 51.827 251.934,13.503 237.664,23.310 199.712 L 28.888 178.125 83.746 176.311 L 138.604 174.497 134.656 192.472 C 128.130 222.186,147.507 240.019,185.694 239.443 C 240.750 238.613,268.684 209.688,268.727 153.464 L 268.750 122.553 288.204 153.229 C 300.379 172.427,304.970 184.802,300.473 186.301 M110.938 148.344 C 94.609 149.631,67.891 149.631,51.562 148.344 C 35.234 147.057,48.594 146.003,81.250 146.003 C 113.906 146.003,127.266 147.057,110.938 148.344 M354.888 216.566 C 373.834 224.977,375.817 227.373,365.625 229.540 C 323.458 238.508,304.678 245.880,287.784 260.095 L 268.750 276.111 268.750 261.321 C 268.750 218.876,310.837 197.009,354.888 216.566 " stroke="none"   fill-rule="evenodd"></path></g></svg>
