<svg id="svg" xmlns="http://www.w3.org/2000/svg" xmlns:xlink="http://www.w3.org/1999/xlink" width="400" height="400" viewBox="0, 0, 400,400" version="1.1"><g id="svgg"><path id="path0" d="M317.682 14.702 C 270.224 37.966,245.749 60.293,228.050 96.469 C 213.669 125.863,208.667 130.805,191.627 132.458 C 174.028 134.166,171.834 136.573,171.503 154.538 C 171.299 165.628,169.189 176.644,166.816 179.018 C 164.442 181.391,162.500 187.807,162.500 193.275 C 162.500 204.751,68.514 300.975,40.625 318.052 C 0.221 342.792,-8.484 400.000,28.156 400.000 C 39.731 400.000,87.500 363.389,87.500 354.518 C 87.500 343.760,198.509 233.926,203.917 239.333 C 206.286 241.703,212.224 240.322,217.113 236.265 C 222.001 232.208,234.916 228.717,245.813 228.507 C 263.443 228.167,265.969 225.796,268.750 206.974 C 271.472 188.552,276.308 183.715,306.250 169.474 C 371.236 138.566,419.238 44.028,384.930 14.517 C 364.069 -3.427,354.610 -3.401,317.682 14.702 M373.750 26.250 C 398.969 51.469,349.323 130.770,291.039 158.366 C 261.111 172.537,256.381 177.319,252.655 197.181 L 248.405 219.834 217.953 189.840 C 182.088 154.514,181.521 152.306,206.874 146.738 C 222.763 143.248,228.887 136.515,240.918 109.312 C 265.318 54.138,349.191 1.691,373.750 26.250 M203.160 200.038 C 219.869 218.502,210.924 221.405,193.727 203.100 C 185.666 194.520,181.938 187.500,185.442 187.500 C 188.946 187.500,196.919 193.142,203.160 200.038 M181.250 223.049 C 181.250 225.414,155.938 253.160,125.000 284.707 C 94.063 316.255,68.750 345.066,68.750 348.733 C 68.750 358.430,32.472 382.743,24.943 378.090 C 15.770 372.420,37.162 338.194,56.250 328.002 C 64.844 323.413,94.309 296.954,121.728 269.204 C 167.966 222.410,181.250 212.109,181.250 223.049 " stroke="none"   fill-rule="evenodd"></path></g></svg>
