<svg id="svg" xmlns="http://www.w3.org/2000/svg" xmlns:xlink="http://www.w3.org/1999/xlink" width="400" height="400" viewBox="0, 0, 400,400" version="1.1"><g id="svgg"><path id="path0" d="M118.699 9.436 C 101.436 30.237,87.931 113.975,87.713 201.563 C 87.509 283.900,86.965 287.500,74.716 287.500 C 37.038 287.500,14.981 358.731,43.750 387.500 C 84.952 428.702,131.198 392.785,131.346 319.470 C 131.412 286.433,133.295 274.743,137.500 281.250 C 140.832 286.406,143.602 309.609,143.654 332.813 C 143.800 396.863,191.950 426.208,230.161 385.535 C 259.072 354.760,238.574 287.500,200.284 287.500 C 188.081 287.500,187.500 283.917,187.500 208.708 C 187.500 50.839,157.192 -36.945,118.699 9.436 M216.667 4.167 C 205.961 14.872,215.657 18.750,253.125 18.750 C 304.805 18.750,306.493 30.039,255.184 32.514 C 199.712 35.191,197.527 50.000,252.604 50.000 C 275.868 50.000,293.750 52.716,293.750 56.250 C 293.750 59.715,277.206 62.500,256.619 62.500 C 193.810 62.500,199.202 86.320,262.500 88.483 L 296.875 89.657 256.250 93.266 C 225.909 95.961,215.625 99.248,215.625 106.250 C 215.625 113.252,225.909 116.539,256.250 119.234 L 296.875 122.843 262.500 124.017 C 198.165 126.215,194.451 149.383,258.181 150.953 L 296.875 151.906 258.326 155.641 C 196.155 161.664,194.849 181.250,256.619 181.250 C 306.011 181.250,304.412 192.646,254.688 195.014 C 233.203 196.038,215.625 199.688,215.625 203.125 C 215.625 206.562,233.203 210.212,254.688 211.236 C 304.988 213.632,305.325 223.845,255.184 226.264 C 199.712 228.941,197.527 243.750,252.604 243.750 L 293.750 243.750 293.750 312.054 C 293.750 388.865,298.792 400.000,333.571 400.000 C 368.900 400.000,368.750 400.839,368.750 202.844 C 368.750 -16.255,375.593 0.000,283.362 0.000 C 248.971 0.000,218.958 1.875,216.667 4.167 M149.517 51.563 C 162.034 113.298,168.502 171.878,168.626 224.616 L 168.750 277.357 156.007 263.679 C 148.998 256.155,139.355 250.000,134.578 250.000 C 99.811 250.000,96.667 177.746,125.807 48.438 C 134.469 9.997,141.271 10.893,149.517 51.563 M343.087 27.326 C 357.634 44.854,349.357 378.125,334.375 378.125 C 322.203 378.125,321.831 373.406,320.217 198.438 C 318.504 12.860,320.248 -0.193,343.087 27.326 M120.824 203.610 C 118.743 209.032,121.069 217.497,125.992 222.421 C 137.874 234.303,160.356 219.715,154.337 204.029 C 149.309 190.927,125.804 190.633,120.824 203.610 M104.953 343.750 C 102.937 381.658,82.706 394.313,60.161 371.768 C 35.886 347.493,54.146 309.375,90.050 309.375 C 106.384 309.375,106.737 310.189,104.953 343.750 M213.095 316.845 C 226.928 330.678,217.081 377.974,200.000 379.744 C 175.807 382.251,167.295 372.703,164.103 339.481 L 161.162 308.879 183.900 309.634 C 196.406 310.049,209.544 313.294,213.095 316.845 M70.313 322.889 C 66.016 324.623,62.500 335.417,62.500 346.875 C 62.500 369.383,71.719 376.605,89.063 367.686 C 101.603 361.236,103.585 337.335,92.500 326.250 C 84.506 318.256,82.534 317.958,70.313 322.889 M182.500 326.250 C 172.635 336.115,172.853 366.938,182.813 370.510 C 206.801 379.111,226.387 331.666,202.614 322.544 C 190.027 317.714,191.265 317.485,182.500 326.250 " stroke="none"   fill-rule="evenodd"></path></g></svg>
