<svg id="svg" xmlns="http://www.w3.org/2000/svg" xmlns:xlink="http://www.w3.org/1999/xlink" width="400" height="400" viewBox="0, 0, 400,400" version="1.1"><g id="svgg"><path id="path0" d="M325.000 16.946 C 319.844 19.008,306.922 27.288,296.285 35.347 C 285.648 43.406,274.398 50.017,271.285 50.039 C 268.172 50.060,257.365 54.384,247.270 59.649 C 223.576 72.004,182.229 81.185,131.250 85.409 C 62.207 91.129,38.527 132.634,93.795 151.057 C 119.435 159.603,70.620 206.250,36.036 206.250 C -7.218 206.250,-12.242 239.021,23.944 285.121 C 37.113 301.898,54.691 328.032,63.007 343.196 C 85.207 383.684,106.529 397.740,130.614 387.764 C 151.692 379.032,197.695 331.356,213.231 302.139 C 219.158 290.994,245.023 268.853,275.772 248.603 C 367.742 188.036,400.000 146.604,400.000 89.042 C 400.000 35.050,364.665 1.083,325.000 16.946 M356.250 61.945 C 356.250 95.170,334.417 125.073,302.403 135.696 C 282.294 142.369,274.348 149.406,265.986 167.949 C 254.251 193.974,192.826 243.839,138.748 271.243 C 121.361 280.053,105.373 290.113,103.219 293.598 C 89.191 316.295,76.566 312.147,47.646 275.335 C 14.031 232.549,13.647 231.250,34.624 231.250 C 59.093 231.250,98.687 208.169,109.246 187.749 C 121.314 164.413,121.838 131.250,110.140 131.250 C 91.441 131.250,85.331 113.283,102.559 108.958 C 119.073 104.814,125.496 106.482,146.116 120.273 C 155.671 126.663,158.430 126.539,160.935 119.605 C 163.328 112.981,165.080 112.812,168.808 118.844 C 171.769 123.636,176.856 124.563,182.114 121.269 C 186.795 118.336,195.547 116.747,201.563 117.736 C 207.578 118.726,212.500 116.635,212.500 113.089 C 212.500 109.543,216.350 108.120,221.055 109.925 C 225.760 111.731,239.553 107.623,251.706 100.797 C 263.859 93.971,275.400 89.983,277.351 91.935 C 279.303 93.887,283.596 88.393,286.891 79.726 C 295.194 57.889,338.605 28.261,351.563 35.587 C 354.141 37.045,356.250 48.906,356.250 61.945 M373.162 125.949 C 358.716 160.428,334.141 184.454,268.449 228.326 C 219.920 260.736,202.355 276.467,189.463 299.065 C 151.938 364.843,112.416 384.878,92.733 348.099 C 84.810 333.295,101.679 316.013,146.875 292.630 C 198.152 266.101,274.912 204.256,282.456 183.395 C 288.023 167.999,296.747 160.324,319.366 150.924 C 341.279 141.817,352.776 131.983,363.555 113.128 C 379.884 84.564,386.695 93.653,373.162 125.949 " stroke="none"   fill-rule="evenodd"></path></g></svg>
