<svg id="svg" xmlns="http://www.w3.org/2000/svg" xmlns:xlink="http://www.w3.org/1999/xlink" width="400" height="400" viewBox="0, 0, 400,400" version="1.1"><g id="svgg"><path id="path0" d="M317.333 10.938 C 312.050 16.953,305.840 28.077,303.532 35.657 C 299.849 47.753,297.275 48.648,282.480 42.972 C 257.985 33.575,221.236 41.439,190.353 62.687 C 157.629 85.202,162.885 85.217,125.965 62.500 C 94.283 43.006,72.071 38.088,76.562 51.563 C 77.994 55.859,95.034 68.790,114.428 80.297 L 149.691 101.219 140.074 119.815 C 126.602 145.868,133.884 171.688,160.530 192.345 C 211.307 231.709,208.837 224.565,183.081 257.588 L 160.101 287.052 112.863 261.266 C 86.882 247.084,55.207 229.619,42.474 222.454 C 24.903 212.566,17.575 211.175,12.068 216.682 C 3.162 225.588,18.388 235.565,143.750 302.976 C 193.594 329.778,254.422 362.573,278.924 375.854 C 328.070 402.491,353.856 405.878,375.302 388.512 C 396.445 371.392,385.534 359.274,361.639 373.338 L 342.889 384.375 283.387 353.125 C 209.615 314.381,211.998 320.066,250.258 274.092 C 277.480 241.381,282.011 232.305,279.946 214.620 C 277.067 189.957,275.325 190.473,306.979 206.622 C 363.567 235.491,384.684 202.093,331.718 167.496 C 310.119 153.389,301.305 143.914,303.814 137.500 C 305.831 132.344,308.981 117.578,310.814 104.688 C 312.646 91.797,314.999 81.250,316.041 81.250 C 317.083 81.250,325.309 84.053,334.319 87.479 C 377.555 103.917,414.170 45.420,381.250 12.500 C 365.540 -3.210,330.508 -4.066,317.333 10.938 M365.154 30.730 C 373.804 40.287,374.587 45.343,369.028 55.730 C 356.344 79.431,325.000 68.158,325.000 39.896 C 325.000 17.520,348.371 12.185,365.154 30.730 M289.891 76.529 C 294.561 83.932,293.376 96.027,285.638 119.957 C 273.932 156.158,273.729 155.665,310.196 179.512 C 321.320 186.785,321.281 186.960,309.375 183.182 C 281.004 174.180,262.500 155.711,262.500 136.397 C 262.500 119.379,260.909 117.794,247.267 121.218 C 232.228 124.993,187.500 104.547,187.500 93.898 C 187.500 65.479,273.697 50.857,289.891 76.529 M207.862 151.453 C 206.775 161.638,212.694 169.948,228.903 180.992 C 268.535 207.996,268.860 218.359,231.546 265.253 C 213.604 287.802,196.519 306.250,193.581 306.250 C 179.298 306.250,182.649 291.168,202.793 264.786 C 232.164 226.320,231.090 216.855,194.363 190.468 C 156.183 163.039,145.402 138.348,163.641 120.109 C 175.196 108.554,209.822 133.097,207.862 151.453 " stroke="none"   fill-rule="evenodd"></path></g></svg>
