<svg id="svg" xmlns="http://www.w3.org/2000/svg" xmlns:xlink="http://www.w3.org/1999/xlink" width="400" height="400" viewBox="0, 0, 400,400" version="1.1"><g id="svgg"><path id="path0" d="M135.547 4.036 C 133.184 6.400,131.250 18.438,131.250 30.788 C 131.250 46.474,127.482 55.596,118.750 61.050 C 101.821 71.622,103.035 88.970,122.306 111.872 L 138.362 130.954 104.794 163.915 C 46.879 220.780,-3.295 316.110,8.505 346.861 C 13.226 359.165,49.790 375.000,73.478 375.000 C 83.174 375.000,102.140 380.625,115.625 387.500 C 149.883 404.965,247.088 405.344,283.964 388.156 C 297.940 381.641,321.435 374.863,336.176 373.094 C 380.846 367.730,395.521 354.184,390.461 322.984 C 382.868 276.170,352.143 221.935,306.558 174.880 L 263.459 130.391 278.605 108.074 C 297.016 80.943,297.562 71.237,281.250 61.050 C 271.928 55.228,268.750 46.474,268.750 26.622 C 268.750 8.033,266.123 0.000,260.044 0.000 C 250.211 0.000,243.750 13.227,243.750 33.357 C 243.750 48.646,206.854 64.452,192.468 55.325 C 188.017 52.502,178.217 50.148,170.690 50.096 C 159.467 50.017,156.655 45.869,155.065 27.046 C 153.205 5.037,144.641 -5.058,135.547 4.036 M184.212 81.070 C 195.307 93.330,195.438 93.330,211.024 81.070 C 252.412 48.514,283.514 74.979,247.367 111.996 L 224.309 135.610 240.310 146.094 C 292.083 180.017,356.270 268.967,365.712 319.878 C 369.917 342.553,369.611 342.990,344.163 350.615 C 313.186 359.896,310.502 357.525,300.865 312.388 C 291.883 270.316,270.827 232.923,261.417 242.333 C 256.915 246.835,258.707 259.105,267.245 282.230 C 298.511 366.919,288.778 381.250,200.000 381.250 C 111.026 381.250,97.974 361.450,132.831 279.352 C 147.537 244.715,140.091 224.447,122.515 251.272 C 110.691 269.317,93.912 322.473,93.818 342.188 C 93.741 358.025,88.347 359.019,54.079 349.503 C 30.597 342.983,30.128 342.286,34.094 319.851 C 43.480 266.763,106.547 179.015,162.500 141.195 L 178.125 130.634 160.841 117.850 C 140.885 103.090,128.989 83.714,134.455 74.871 C 140.999 64.282,172.580 68.217,184.212 81.070 " stroke="none"   fill-rule="evenodd"></path></g></svg>
