<svg id="svg" xmlns="http://www.w3.org/2000/svg" xmlns:xlink="http://www.w3.org/1999/xlink" width="400" height="400" viewBox="0, 0, 400,400" version="1.1"><g id="svgg"><path id="path0" d="M93.277 16.129 L 78.125 32.257 78.125 200.000 L 78.125 367.743 93.277 383.871 C 114.338 406.290,284.560 409.190,306.250 387.500 C 327.208 366.542,325.458 33.480,304.285 13.589 C 280.161 -9.074,115.087 -7.087,93.277 16.129 M283.435 30.453 C 295.041 40.104,299.217 350.437,287.980 368.188 C 276.242 386.729,213.590 385.160,214.679 366.352 C 215.572 350.932,217.471 350.009,248.318 350.004 C 289.924 349.999,288.356 356.863,286.141 184.375 L 284.375 46.875 200.000 46.875 L 115.625 46.875 115.625 196.875 L 115.625 346.875 150.000 350.000 C 180.359 352.760,184.433 354.768,184.871 367.188 C 185.558 386.639,140.711 387.366,116.468 368.296 L 100.000 355.343 100.000 205.385 C 100.000 49.316,102.095 35.290,126.971 24.772 C 148.258 15.771,271.146 20.233,283.435 30.453 M256.250 196.875 L 256.250 325.000 196.875 325.000 L 137.500 325.000 137.500 196.875 L 137.500 68.750 196.875 68.750 L 256.250 68.750 256.250 196.875 " stroke="none"   fill-rule="evenodd"></path></g></svg>
