<svg id="svg" xmlns="http://www.w3.org/2000/svg" xmlns:xlink="http://www.w3.org/1999/xlink" width="400" height="400" viewBox="0, 0, 400,400" version="1.1"><g id="svgg"><path id="path0" d="M215.306 84.174 C 197.369 127.103,218.314 157.266,271.609 165.258 C 293.810 168.588,306.999 174.920,319.416 188.213 C 337.357 207.419,347.740 203.669,340.426 180.624 C 335.800 166.049,309.801 153.526,270.869 147.119 C 227.709 140.016,219.738 124.511,234.599 76.563 C 241.741 53.520,225.425 59.957,215.306 84.174 M276.560 76.563 C 277.990 80.859,284.553 85.368,291.143 86.583 C 306.244 89.365,325.000 105.705,325.000 116.079 C 325.000 120.419,335.547 129.124,348.438 135.423 C 369.926 145.923,371.875 149.036,371.875 172.860 C 371.875 205.160,378.847 213.384,387.325 191.085 C 399.999 157.750,383.798 118.750,357.276 118.750 C 353.127 118.750,346.432 111.508,342.399 102.656 C 331.053 77.753,268.732 53.054,276.560 76.563 M4.167 222.917 C 1.875 225.208,-0.000 243.490,-0.000 263.542 L 0.000 300.000 200.000 300.000 L 400.000 300.000 400.000 259.375 L 400.000 218.750 204.167 218.750 C 96.458 218.750,6.458 220.625,4.167 222.917 M305.083 260.938 L 307.042 281.250 162.896 281.250 L 18.750 281.250 18.750 259.258 L 18.750 237.265 160.938 238.945 L 303.125 240.625 305.083 260.938 M343.750 259.375 C 343.750 277.083,341.369 281.250,331.250 281.250 C 321.131 281.250,318.750 277.083,318.750 259.375 C 318.750 241.667,321.131 237.500,331.250 237.500 C 341.369 237.500,343.750 241.667,343.750 259.375 M381.250 259.375 C 381.250 274.653,378.423 281.250,371.875 281.250 C 365.327 281.250,362.500 274.653,362.500 259.375 C 362.500 244.097,365.327 237.500,371.875 237.500 C 378.423 237.500,381.250 244.097,381.250 259.375 " stroke="none"   fill-rule="evenodd"></path></g></svg>
