<svg id="svg" xmlns="http://www.w3.org/2000/svg" xmlns:xlink="http://www.w3.org/1999/xlink" width="400" height="400" viewBox="0, 0, 400,400" version="1.1"><g id="svgg"><path id="path0" d="M211.083 10.938 C 196.667 27.355,192.225 47.972,199.981 62.465 C 206.201 74.087,205.442 75.048,192.515 71.917 C 168.550 66.111,43.252 85.320,32.056 96.515 C 11.079 117.493,29.939 127.943,92.335 129.915 L 148.972 131.705 118.236 197.361 C 79.401 280.318,79.555 314.689,118.717 304.448 C 133.800 300.503,134.136 304.066,121.526 334.246 C 106.510 370.184,111.392 396.391,133.574 398.926 C 158.456 401.770,158.782 401.263,209.928 280.043 C 235.030 220.551,257.831 172.449,260.596 173.150 C 263.362 173.852,274.611 177.926,285.593 182.203 C 309.491 191.511,324.365 185.206,363.294 149.267 C 405.313 110.475,376.560 78.458,332.783 115.294 C 311.447 133.247,298.659 135.321,288.058 122.547 C 284.086 117.761,272.382 110.343,262.051 106.064 L 243.266 98.283 262.414 86.639 C 293.891 67.496,299.298 37.824,276.206 10.937 C 263.703 -3.621,223.867 -3.621,211.083 10.938 M264.955 32.812 C 269.930 40.749,269.930 46.751,264.955 54.687 C 247.432 82.641,209.621 59.987,225.203 30.871 C 233.368 15.614,254.831 16.662,264.955 32.812 M243.993 122.394 C 300.023 154.712,313.602 167.841,275.040 152.412 C 241.414 138.957,245.238 132.817,162.401 333.283 C 130.712 409.974,128.662 380.389,159.737 294.823 C 175.110 252.493,186.073 215.248,184.100 212.055 C 176.160 199.207,164.472 208.037,142.149 243.750 C 129.256 264.375,115.604 281.250,111.810 281.250 C 103.757 281.250,102.235 285.269,144.123 195.918 C 184.431 109.937,183.665 106.550,123.634 105.311 C 82.048 104.454,80.550 103.996,106.250 100.000 C 174.860 89.333,191.313 92.008,243.993 122.394 M240.625 313.316 C 194.482 339.112,207.652 400.000,259.375 400.000 C 286.380 400.000,306.250 381.748,306.250 356.942 C 306.250 322.798,268.524 297.719,240.625 313.316 M273.750 338.750 C 294.351 359.351,268.802 393.198,246.575 374.751 C 230.647 361.532,239.557 331.250,259.375 331.250 C 263.156 331.250,269.625 334.625,273.750 338.750 " stroke="none"   fill-rule="evenodd"></path></g></svg>
