<svg id="svg" xmlns="http://www.w3.org/2000/svg" xmlns:xlink="http://www.w3.org/1999/xlink" width="400" height="400" viewBox="0, 0, 400,400" version="1.1"><g id="svgg"><path id="path0" d="M4.837 53.888 C 3.155 80.089,3.184 167.276,4.900 247.638 L 8.021 393.750 199.969 393.750 L 391.918 393.750 395.193 244.708 C 396.994 162.735,397.029 75.548,395.269 50.958 L 392.070 6.250 199.982 6.250 L 7.894 6.250 4.837 53.888 M368.750 40.625 C 368.750 48.727,345.833 50.000,200.000 50.000 C 54.167 50.000,31.250 48.727,31.250 40.625 C 31.250 32.523,54.167 31.250,200.000 31.250 C 345.833 31.250,368.750 32.523,368.750 40.625 M56.250 115.625 C 56.250 154.792,55.689 156.250,40.625 156.250 C 25.147 156.250,15.691 92.642,29.167 79.167 C 46.094 62.239,56.250 75.910,56.250 115.625 M125.000 115.625 L 125.000 156.250 106.250 156.250 L 87.500 156.250 87.500 115.625 L 87.500 75.000 106.250 75.000 L 125.000 75.000 125.000 115.625 M187.500 115.625 L 187.500 156.250 168.750 156.250 L 150.000 156.250 150.000 115.625 L 150.000 75.000 168.750 75.000 L 187.500 75.000 187.500 115.625 M250.000 115.625 L 250.000 156.250 231.250 156.250 L 212.500 156.250 212.500 115.625 L 212.500 75.000 231.250 75.000 L 250.000 75.000 250.000 115.625 M312.500 115.104 C 312.500 156.295,308.080 163.372,285.938 157.629 C 276.959 155.300,275.000 147.645,275.000 114.896 L 275.000 75.000 293.750 75.000 L 312.500 75.000 312.500 115.104 M373.736 117.188 C 375.555 155.370,375.238 156.250,359.673 156.250 C 344.225 156.250,343.750 155.026,343.750 115.190 C 343.750 53.732,370.799 55.533,373.736 117.188 M120.039 181.737 C 132.479 177.401,142.691 177.633,153.363 182.495 C 164.772 187.694,172.789 187.666,184.375 182.387 C 196.063 177.062,203.937 177.062,215.625 182.387 C 227.211 187.666,235.228 187.694,246.637 182.495 C 257.280 177.646,267.530 177.404,279.881 181.709 C 290.646 185.462,303.644 185.749,312.609 182.433 C 321.597 179.108,335.645 179.437,348.115 183.264 L 368.750 189.597 368.750 279.174 C 368.750 354.630,367.272 368.750,359.375 368.750 C 351.522 368.750,350.000 355.556,350.000 287.500 L 350.000 206.250 296.875 206.250 L 243.750 206.250 243.750 287.500 L 243.750 368.750 137.500 368.750 L 31.250 368.750 31.250 279.029 L 31.250 189.308 51.563 183.201 C 63.599 179.582,78.033 179.313,86.989 182.542 C 96.049 185.808,109.286 185.486,120.039 181.737 M51.358 276.563 L 53.125 346.875 135.938 348.619 L 218.750 350.363 218.750 278.306 L 218.750 206.250 134.170 206.250 L 49.591 206.250 51.358 276.563 M193.750 278.125 L 193.750 325.000 134.375 325.000 L 75.000 325.000 75.000 278.125 L 75.000 231.250 134.375 231.250 L 193.750 231.250 193.750 278.125 M325.000 300.000 L 325.000 368.750 296.875 368.750 L 268.750 368.750 268.750 300.000 L 268.750 231.250 296.875 231.250 L 325.000 231.250 325.000 300.000 " stroke="none"   fill-rule="evenodd"></path></g></svg>
