<svg id="svg" xmlns="http://www.w3.org/2000/svg" xmlns:xlink="http://www.w3.org/1999/xlink" width="400" height="400" viewBox="0, 0, 400,400" version="1.1"><g id="svgg"><path id="path0" d="M225.000 19.587 C 225.000 35.455,214.169 84.795,208.999 92.478 C 208.313 93.498,196.032 88.223,181.708 80.757 C 94.626 35.368,-0.243 152.502,0.092 304.995 C 0.263 382.638,24.937 402.518,115.625 398.080 C 260.328 390.999,354.180 303.746,316.004 211.791 C 312.688 203.804,316.988 200.880,336.675 197.732 C 399.976 187.610,423.376 135.248,361.719 141.693 L 323.438 145.694 334.933 128.150 C 350.176 104.887,350.380 51.675,335.316 28.684 C 320.409 5.933,312.084 10.403,303.043 46.010 C 292.348 88.131,283.771 94.022,279.500 62.179 C 273.370 16.480,225.000 -21.322,225.000 19.587 M265.458 116.426 C 278.406 121.394,299.230 107.811,312.811 85.539 C 330.918 55.842,329.717 86.780,311.505 119.185 C 295.778 147.167,301.002 158.761,333.599 168.211 L 353.125 173.873 328.863 174.436 C 266.739 175.880,221.301 112.749,245.216 58.219 C 252.607 41.368,253.017 42.157,254.913 76.882 C 256.194 100.337,259.917 114.300,265.458 116.426 M185.065 110.099 C 198.436 119.091,210.530 127.511,211.941 128.810 C 213.352 130.110,209.836 136.334,204.128 142.641 C 198.420 148.949,193.750 157.403,193.750 161.430 C 193.750 173.314,211.058 169.796,220.764 155.939 C 235.080 135.500,306.303 222.488,306.227 260.320 C 306.096 324.802,150.241 398.659,63.590 375.301 C 15.886 362.442,6.197 300.359,37.634 208.985 C 73.933 103.479,124.646 69.465,185.065 110.099 M135.417 110.417 C 127.187 118.647,131.472 131.250,142.500 131.250 C 154.092 131.250,168.750 120.082,168.750 111.250 C 168.750 105.219,141.301 104.532,135.417 110.417 M85.223 165.670 C 71.949 178.944,71.976 195.262,85.268 192.646 C 100.263 189.694,110.825 170.825,102.270 162.270 C 97.338 157.338,92.612 158.281,85.223 165.670 M143.188 180.557 C 131.032 190.488,129.646 194.409,136.007 200.876 C 142.404 207.379,146.480 206.298,157.639 195.139 C 176.876 175.902,164.353 163.266,143.188 180.557 M201.250 213.750 C 192.401 222.599,191.205 243.750,199.554 243.750 C 208.468 243.750,225.000 225.188,225.000 215.179 C 225.000 204.305,211.506 203.494,201.250 213.750 M70.000 226.250 C 57.527 238.723,61.108 251.067,76.563 248.872 C 85.600 247.589,91.339 241.850,92.622 232.813 C 94.817 217.358,82.473 213.777,70.000 226.250 M260.274 250.613 C 255.142 257.940,252.418 267.779,254.221 272.478 C 258.977 284.872,281.250 271.622,281.250 256.399 C 281.250 238.486,270.789 235.600,260.274 250.613 M124.950 268.843 C 119.551 278.932,120.308 282.240,128.759 285.483 C 138.683 289.291,156.250 273.841,156.250 261.305 C 156.250 250.802,131.403 256.786,124.950 268.843 M43.681 300.129 C 36.157 314.187,40.133 325.000,52.825 325.000 C 61.441 325.000,68.750 311.856,68.750 296.364 C 68.750 283.085,51.409 285.689,43.681 300.129 M183.349 303.545 C 181.282 308.932,182.188 315.938,185.362 319.112 C 192.482 326.232,220.542 307.955,215.361 299.572 C 209.543 290.159,187.433 292.903,183.349 303.545 M103.228 337.386 C 89.190 352.898,93.977 359.117,115.749 353.652 C 126.361 350.989,131.388 345.982,130.103 339.357 C 127.124 323.999,116.076 323.189,103.228 337.386 " stroke="none"   fill-rule="evenodd"></path></g></svg>
