<svg id="svg" xmlns="http://www.w3.org/2000/svg" xmlns:xlink="http://www.w3.org/1999/xlink" width="400" height="400" viewBox="0, 0, 400,400" version="1.1"><g id="svgg"><path id="path0" d="M125.000 100.613 C 92.344 110.866,50.700 123.605,32.459 128.923 C -10.143 141.344,-8.687 153.868,37.512 172.394 L 71.875 186.173 75.000 223.690 C 80.132 285.298,107.626 302.670,200.000 302.670 C 292.842 302.670,319.909 285.373,325.000 222.790 C 326.719 201.662,330.938 185.041,334.375 185.855 C 342.954 187.888,345.975 249.163,337.972 258.806 C 333.808 263.823,333.510 273.587,337.133 286.220 C 353.803 344.344,369.242 313.209,364.392 231.250 L 360.878 171.875 380.439 164.605 C 395.706 158.932,409.245 137.500,397.562 137.500 C 396.222 137.500,353.570 124.844,302.782 109.375 C 194.572 76.417,201.051 76.737,125.000 100.613 M280.195 125.973 C 318.554 137.469,349.952 149.150,349.969 151.931 C 349.986 154.712,347.764 155.606,345.031 153.916 C 335.844 148.239,199.014 131.122,192.920 134.888 C 178.670 143.695,203.227 154.717,253.894 162.255 L 307.947 170.297 253.843 191.214 L 199.739 212.131 124.869 182.789 C 83.691 166.650,50.019 151.968,50.042 150.161 C 50.102 145.423,195.563 100.949,203.664 103.192 C 207.397 104.226,241.837 114.478,280.195 125.973 M154.688 218.508 L 200.000 236.973 245.313 218.508 C 302.410 195.241,300.000 194.823,300.000 227.981 C 300.000 270.165,284.126 278.125,200.000 278.125 C 115.874 278.125,100.000 270.165,100.000 227.981 C 100.000 194.823,97.590 195.241,154.688 218.508 " stroke="none"   fill-rule="evenodd"></path></g></svg>
