<svg id="svg" xmlns="http://www.w3.org/2000/svg" xmlns:xlink="http://www.w3.org/1999/xlink" width="400" height="400" viewBox="0, 0, 400,400" version="1.1"><g id="svgg"><path id="path0" d="M271.875 77.332 C 205.348 114.966,188.003 122.317,176.156 117.898 C 108.367 92.610,31.250 126.828,31.250 182.195 C 31.250 207.474,28.734 213.860,15.311 222.655 C -4.483 235.625,-3.377 258.452,17.188 261.372 C 36.304 264.087,35.326 283.636,15.625 292.613 C -16.882 307.424,1.527 338.365,35.859 326.621 C 47.916 322.497,58.782 323.162,71.875 328.826 C 133.496 355.480,220.458 327.240,226.040 278.762 C 228.012 261.634,232.373 259.130,306.250 232.718 C 393.786 201.422,400.000 197.836,400.000 178.610 C 400.000 142.793,382.920 142.712,297.220 178.125 C 259.785 193.594,228.221 206.250,227.078 206.250 C 225.935 206.250,225.000 196.430,225.000 184.427 C 225.000 162.870,225.857 162.177,295.313 127.501 C 391.841 79.308,405.997 63.665,373.609 40.979 C 355.421 28.240,364.203 25.102,271.875 77.332 M361.022 63.810 C 357.900 73.174,219.139 146.222,214.080 141.164 C 209.259 136.343,206.096 138.521,281.250 94.916 C 346.703 56.940,365.793 49.496,361.022 63.810 M148.549 135.716 C 139.158 137.142,122.283 137.171,111.049 135.780 C 99.816 134.389,107.500 133.222,128.125 133.187 C 148.750 133.152,157.941 134.290,148.549 135.716 M57.665 168.195 C 53.756 194.829,78.644 209.375,128.125 209.375 C 177.337 209.375,202.490 194.802,198.634 168.525 C 197.192 158.699,198.315 152.084,201.131 153.824 C 203.946 155.564,206.187 170.181,206.110 186.306 L 205.970 215.625 138.922 241.842 C 102.046 256.262,66.953 269.922,60.938 272.198 C 49.702 276.450,43.310 165.023,54.167 154.167 C 60.407 147.926,60.553 148.513,57.665 168.195 M171.871 164.849 C 183.024 173.005,182.618 173.971,164.001 183.599 C 129.455 201.463,57.377 184.901,84.007 165.217 C 99.497 153.768,156.391 153.530,171.871 164.849 M107.440 173.438 C 108.883 180.929,115.400 184.375,128.125 184.375 C 140.850 184.375,147.367 180.929,148.810 173.438 C 150.505 164.635,146.467 162.500,128.125 162.500 C 109.783 162.500,105.745 164.635,107.440 173.438 M381.250 181.325 C 381.250 184.398,372.109 189.565,360.938 192.807 C 349.766 196.048,291.638 215.865,231.765 236.844 C 86.808 287.636,91.502 282.099,245.455 220.694 C 365.554 172.791,381.250 168.241,381.250 181.325 M205.122 282.111 C 202.231 301.453,165.681 318.750,127.702 318.750 C 78.545 318.750,82.025 311.603,141.886 289.619 C 208.075 265.312,207.625 265.365,205.122 282.111 " stroke="none"   fill-rule="evenodd"></path></g></svg>
