<svg id="svg" xmlns="http://www.w3.org/2000/svg" xmlns:xlink="http://www.w3.org/1999/xlink" width="400" height="400" viewBox="0, 0, 400,400" version="1.1"><g id="svgg"><path id="path0" d="M157.500 38.750 C 153.375 42.875,150.000 50.652,150.000 56.033 C 150.000 62.148,138.081 70.049,118.207 77.108 C 89.223 87.402,85.089 91.397,71.411 122.325 C 59.548 149.148,53.411 156.250,42.094 156.250 C 5.019 156.250,-17.652 206.424,17.187 211.372 C 30.732 213.296,31.250 215.742,31.250 277.794 C 31.250 352.918,34.349 357.911,79.202 355.050 C 103.481 353.501,110.580 350.378,115.545 339.063 C 125.132 317.210,274.868 317.210,284.455 339.063 C 289.420 350.378,296.519 353.501,320.798 355.050 C 365.651 357.911,368.750 352.918,368.750 277.794 C 368.750 215.742,369.268 213.296,382.813 211.372 C 417.292 206.475,395.087 156.250,358.443 156.250 C 347.841 156.250,341.088 148.434,329.137 122.329 C 315.059 91.580,310.632 87.351,281.803 77.112 C 261.922 70.050,250.000 62.149,250.000 56.033 C 250.000 32.752,177.116 19.134,157.500 38.750 M231.250 62.500 C 231.250 65.938,217.188 68.750,200.000 68.750 C 182.813 68.750,168.750 65.938,168.750 62.500 C 168.750 59.062,182.813 56.250,200.000 56.250 C 217.188 56.250,231.250 59.062,231.250 62.500 M281.907 99.595 C 308.594 112.439,334.366 182.569,315.114 189.956 C 302.228 194.901,97.772 194.901,84.886 189.956 C 71.704 184.898,84.124 129.612,103.470 107.236 C 120.125 87.973,246.513 82.561,281.907 99.595 M46.875 187.500 C 44.751 190.938,37.387 193.750,30.512 193.750 C 23.637 193.750,19.751 190.938,21.875 187.500 C 23.999 184.063,31.363 181.250,38.238 181.250 C 45.113 181.250,48.999 184.063,46.875 187.500 M378.125 187.500 C 380.249 190.938,376.197 193.750,369.119 193.750 C 362.041 193.750,356.250 190.938,356.250 187.500 C 356.250 184.063,360.303 181.250,365.256 181.250 C 370.210 181.250,376.001 184.063,378.125 187.500 M345.372 226.078 C 348.235 233.816,349.744 252.912,348.726 268.511 L 346.875 296.875 201.563 298.553 L 56.250 300.230 56.743 276.678 C 57.015 263.724,58.675 256.700,60.433 261.069 C 68.923 282.169,126.946 295.554,142.500 280.000 C 168.655 253.845,146.094 218.750,103.125 218.750 C 85.594 218.750,67.875 222.125,63.750 226.250 C 55.756 234.244,54.246 231.245,59.444 217.699 C 65.957 200.723,338.952 208.723,345.372 226.078 M257.500 226.250 C 219.996 263.754,275.092 304.546,323.438 275.069 C 362.784 251.079,347.536 218.750,296.875 218.750 C 279.344 218.750,261.625 222.125,257.500 226.250 M129.151 247.295 C 135.764 264.528,120.543 272.952,101.843 262.408 C 76.197 247.949,76.599 237.500,102.800 237.500 C 117.547 237.500,126.698 240.901,129.151 247.295 M318.750 243.396 C 318.750 250.641,293.682 268.750,283.653 268.750 C 274.993 268.750,267.199 251.316,272.224 243.186 C 276.884 235.646,318.750 235.834,318.750 243.396 M92.260 329.294 C 86.285 330.859,75.035 330.915,67.260 329.420 C 59.486 327.925,64.375 326.646,78.125 326.576 C 91.875 326.507,98.236 327.730,92.260 329.294 M335.938 329.308 C 329.922 330.880,320.078 330.880,314.063 329.308 C 308.047 327.736,312.969 326.450,325.000 326.450 C 337.031 326.450,341.953 327.736,335.938 329.308 " stroke="none"   fill-rule="evenodd"></path></g></svg>
