<svg id="svg" xmlns="http://www.w3.org/2000/svg" xmlns:xlink="http://www.w3.org/1999/xlink" width="400" height="400" viewBox="0, 0, 400,400" version="1.1"><g id="svgg"><path id="path0" d="M256.053 5.882 C 232.105 13.157,212.500 26.988,212.500 36.607 C 212.500 45.762,215.479 45.251,262.500 28.025 C 307.080 11.693,358.712 35.436,375.735 80.094 C 411.459 173.817,242.444 315.560,166.343 255.698 C 131.755 228.491,115.642 156.250,144.161 156.250 C 174.267 156.250,210.638 125.655,216.280 95.584 C 218.464 83.942,221.667 75.834,223.399 77.566 C 225.131 79.298,237.337 75.210,250.525 68.482 C 311.009 37.625,363.525 75.304,341.255 133.578 C 304.067 230.889,168.890 274.471,165.960 190.094 C 164.604 151.061,146.747 156.952,147.326 196.242 C 148.788 295.530,297.855 265.321,354.094 154.339 C 396.673 70.313,318.877 -1.332,240.725 49.934 L 222.836 61.669 200.481 36.631 C 148.398 -21.702,57.247 21.099,71.521 97.185 C 75.636 119.123,102.367 150.000,117.243 150.000 C 124.354 150.000,124.881 151.987,119.493 158.480 C 115.622 163.144,111.023 183.535,109.272 203.792 C 103.889 266.078,100.700 274.533,79.161 283.616 C 56.094 293.343,-0.000 351.266,0.000 365.357 C 0.000 378.926,22.642 400.000,37.221 400.000 C 52.135 400.000,118.750 336.349,118.750 322.097 C 118.750 307.202,156.462 293.751,198.237 293.745 C 267.965 293.736,353.527 235.803,387.519 165.587 C 433.033 71.567,354.372 -23.990,256.053 5.882 M156.981 78.834 C 165.173 86.099,176.953 94.735,183.159 98.026 C 193.864 103.703,193.764 104.788,181.195 119.192 C 171.867 129.882,166.964 131.995,164.626 126.332 C 158.439 111.350,128.751 79.547,110.709 68.574 L 92.760 57.659 106.823 44.557 L 120.886 31.456 131.487 48.540 C 137.317 57.937,148.789 71.569,156.981 78.834 M179.285 44.839 C 193.469 58.165,198.708 75.000,188.669 75.000 C 182.585 75.000,150.000 41.795,150.000 35.596 C 150.000 26.818,165.214 31.620,179.285 44.839 M119.971 104.294 C 138.693 122.232,142.079 131.250,130.090 131.250 C 119.785 131.250,93.750 105.843,93.750 95.786 C 93.750 83.441,100.485 85.626,119.971 104.294 M123.108 288.802 C 109.898 297.200,105.932 294.090,113.795 281.499 C 119.162 272.905,122.810 271.457,126.018 276.647 C 128.533 280.716,127.223 286.186,123.108 288.802 M92.800 314.480 C 101.065 324.440,43.022 385.400,31.848 378.495 C 19.829 371.067,24.346 360.514,51.301 333.049 C 80.184 303.619,82.811 302.444,92.800 314.480 " stroke="none"   fill-rule="evenodd"></path></g></svg>
