<svg id="svg" xmlns="http://www.w3.org/2000/svg" xmlns:xlink="http://www.w3.org/1999/xlink" width="400" height="400" viewBox="0, 0, 400,400" version="1.1"><g id="svgg"><path id="path0" d="M303.125 7.427 C 296.250 11.303,242.398 62.682,183.454 121.602 C 79.052 225.962,62.732 247.963,62.535 284.610 C 62.516 288.177,48.438 304.946,31.250 321.875 C -0.701 353.345,-8.490 376.510,7.500 392.500 C 22.960 407.960,46.675 400.736,74.910 371.966 C 95.183 351.310,111.562 341.317,137.149 333.993 C 169.454 324.746,179.826 316.122,285.938 210.276 L 400.000 96.500 400.000 66.519 C 400.000 13.885,347.968 -17.854,303.125 7.427 M365.909 34.091 C 394.261 62.442,389.482 70.068,267.188 191.638 C 204.453 254.000,146.797 306.706,139.063 308.762 C 131.328 310.818,118.672 314.185,110.938 316.244 C 102.439 318.506,135.127 281.461,193.556 222.612 C 270.398 145.218,288.649 123.649,282.500 117.500 C 276.351 111.351,254.982 129.513,178.366 206.009 L 81.970 302.255 89.825 271.463 C 95.836 247.900,100.521 240.665,109.778 240.648 C 116.431 240.635,121.949 236.406,122.040 231.250 C 122.368 212.641,130.843 205.890,143.756 213.954 C 159.020 223.486,167.326 215.413,157.856 200.249 C 149.690 187.174,162.455 170.372,174.770 177.983 C 178.383 180.216,182.725 177.645,184.419 172.271 C 186.114 166.897,188.998 157.811,190.830 152.080 C 193.368 144.138,195.895 143.395,201.455 148.955 C 215.701 163.201,225.898 157.270,223.837 135.938 C 222.219 119.182,224.049 115.623,234.292 115.614 C 241.781 115.607,247.602 110.647,248.961 103.114 C 252.419 83.939,260.747 78.265,271.875 87.500 C 285.975 99.202,299.202 85.975,287.500 71.875 C 278.303 60.793,283.824 52.596,303.125 48.673 C 310.000 47.276,314.773 42.339,313.733 37.702 C 308.770 15.593,344.910 13.092,365.909 34.091 M59.777 344.400 C 66.681 355.572,33.077 385.577,23.918 376.418 C 18.081 370.581,19.692 365.428,31.172 353.208 C 47.441 335.891,53.386 334.060,59.777 344.400 " stroke="none"   fill-rule="evenodd"></path></g></svg>
