<svg id="svg" xmlns="http://www.w3.org/2000/svg" xmlns:xlink="http://www.w3.org/1999/xlink" width="400" height="400" viewBox="0, 0, 400,400" version="1.1"><g id="svgg"><path id="path0" d="M103.977 16.477 C 93.170 27.285,87.500 39.709,87.500 52.582 C 87.500 63.377,67.813 131.122,43.750 203.125 C -5.925 351.768,-6.269 353.852,17.187 363.827 C 26.641 367.847,40.801 376.806,48.654 383.736 C 71.852 404.206,219.518 403.712,237.437 383.104 C 244.301 375.209,254.155 368.750,259.334 368.750 C 297.335 368.750,296.136 353.646,246.514 207.241 C 220.931 131.764,200.000 61.161,200.000 50.346 C 200.000 3.877,138.330 -17.875,103.977 16.477 M223.438 6.751 C 217.422 10.254,212.500 18.606,212.500 25.311 C 212.500 39.740,217.572 40.357,234.007 27.926 C 290.002 -14.426,324.324 123.237,269.237 169.226 C 251.468 184.060,249.623 187.748,258.305 191.079 C 273.824 197.035,286.673 189.973,298.666 168.898 C 304.556 158.548,311.239 150.061,313.518 150.040 C 317.282 150.004,383.024 339.199,379.594 340.197 C 378.786 340.433,366.650 346.762,352.625 354.263 L 327.124 367.901 319.020 326.138 C 309.430 276.714,296.946 243.750,287.819 243.750 C 278.782 243.750,279.478 251.617,293.794 311.333 C 309.805 378.120,310.445 375.000,280.729 375.000 C 242.453 375.000,253.080 389.466,296.471 396.429 C 329.714 401.764,333.465 401.152,342.881 388.861 C 348.515 381.507,363.672 371.123,376.563 365.786 C 407.535 352.962,407.487 352.522,359.375 210.076 C 337.031 143.922,318.750 82.667,318.750 73.955 C 318.750 17.830,267.028 -18.639,223.438 6.751 M167.359 28.479 C 187.431 42.538,188.085 133.374,168.296 158.532 C 137.553 197.616,106.311 162.623,106.273 89.063 C 106.241 26.383,130.300 2.522,167.359 28.479 M266.111 332.813 C 268.322 339.759,266.326 343.750,260.639 343.750 C 255.715 343.750,244.268 349.585,235.201 356.717 C 222.737 366.521,218.023 367.665,215.873 361.404 C 213.217 353.670,200.013 299.992,191.158 260.938 C 189.015 251.484,183.097 243.750,178.006 243.750 C 166.220 243.750,166.294 245.232,181.250 309.375 C 188.125 338.860,193.750 365.190,193.750 367.886 C 193.750 370.583,171.250 372.601,143.750 372.371 C 113.998 372.123,93.750 369.356,93.750 365.539 C 93.750 362.010,99.375 338.825,106.250 314.016 C 120.008 264.368,121.907 243.750,112.720 243.750 C 102.988 243.750,95.721 262.310,83.907 317.342 C 77.801 345.787,71.189 368.214,69.215 367.179 C 67.240 366.145,54.993 359.889,41.998 353.276 C 25.435 344.849,19.492 338.357,22.122 331.564 C 24.185 326.235,38.852 283.203,54.715 235.938 C 86.574 141.010,85.513 142.453,103.125 170.113 C 128.437 209.867,170.870 204.589,193.233 158.906 C 202.200 140.588,213.540 167.649,266.111 332.813 " stroke="none"   fill-rule="evenodd"></path></g></svg>
