<svg id="svg" xmlns="http://www.w3.org/2000/svg" xmlns:xlink="http://www.w3.org/1999/xlink" width="400" height="400" viewBox="0, 0, 400,400" version="1.1"><g id="svgg"><path id="path0" d="M97.431 19.230 C 78.764 41.414,76.877 59.809,91.600 76.077 C 97.958 83.103,102.519 100.356,103.425 120.811 L 104.899 154.107 66.512 174.862 C 15.400 202.496,6.250 211.183,6.250 232.075 C 6.250 261.287,30.633 273.071,64.397 260.176 C 107.228 243.819,110.744 248.215,81.250 281.250 C 52.266 313.715,58.909 375.103,93.404 393.565 C 114.064 404.622,153.097 401.344,165.625 387.500 C 173.044 379.302,184.875 375.000,200.000 375.000 C 215.125 375.000,226.956 379.302,234.375 387.500 C 249.779 404.521,292.633 404.469,314.330 387.402 C 347.296 361.471,350.889 308.507,321.551 280.945 C 303.440 263.931,300.695 246.411,317.188 253.096 C 357.638 269.490,362.735 270.034,378.587 259.647 C 411.944 237.791,398.686 207.769,342.674 178.329 L 294.723 153.125 298.290 121.875 C 300.251 104.688,305.657 85.077,310.303 78.297 C 339.917 35.076,289.040 -17.988,242.082 7.143 C 234.741 11.071,217.211 14.286,203.125 14.286 C 189.039 14.286,171.509 11.071,164.168 7.143 C 139.594 -6.009,114.905 -1.538,97.431 19.230 M145.011 22.094 C 148.505 25.589,116.515 62.500,109.992 62.500 C 102.280 62.500,106.633 41.186,116.594 30.180 C 126.801 18.901,138.491 15.575,145.011 22.094 M287.065 33.912 C 308.145 56.350,296.762 67.724,274.537 46.431 C 264.723 37.029,258.167 26.955,259.966 24.044 C 265.295 15.421,271.981 17.855,287.065 33.912 M236.882 46.556 C 267.264 62.267,284.392 100.479,274.844 131.250 C 270.535 145.137,269.927 145.405,269.373 133.655 C 269.030 126.385,263.125 113.285,256.250 104.545 C 249.375 95.804,243.750 82.769,243.750 75.577 C 243.750 61.797,223.031 56.767,215.625 68.750 C 210.452 77.119,187.500 76.765,187.500 68.315 C 187.500 55.491,159.395 65.123,158.879 78.125 C 158.605 85.000,151.574 101.875,143.254 115.625 L 128.125 140.625 126.111 119.571 C 120.317 58.996,182.138 18.246,236.882 46.556 M192.192 104.307 C 178.124 107.984,171.273 134.853,181.317 146.956 C 198.976 168.233,228.900 150.280,223.435 121.688 C 220.537 106.532,220.933 106.288,232.074 116.371 C 260.049 141.688,238.787 187.500,199.063 187.500 C 180.701 187.500,156.250 162.514,156.250 143.750 C 156.250 128.261,180.265 99.869,192.641 100.725 C 201.971 101.370,201.921 101.765,192.192 104.307 M128.180 181.339 C 148.836 214.760,221.834 219.683,260.414 190.256 L 283.408 172.718 323.425 194.099 C 389.663 229.489,395.316 259.054,330.711 232.206 C 286.260 213.733,281.250 214.585,281.250 240.625 C 281.250 268.144,270.063 269.101,244.712 243.750 C 230.140 229.179,220.401 225.000,201.011 225.000 C 181.387 225.000,172.281 229.003,158.363 243.750 C 134.404 269.134,115.837 269.254,120.889 243.992 C 126.068 218.098,118.113 216.032,74.482 231.941 C 36.607 245.750,13.325 240.425,31.615 222.135 C 55.768 197.982,121.344 170.278,128.180 181.339 M215.287 247.610 C 235.298 255.289,238.692 273.161,225.172 299.662 C 218.203 313.324,212.500 331.177,212.500 339.334 C 212.500 357.338,207.876 362.732,196.264 358.276 C 191.023 356.264,187.420 345.761,187.301 332.144 C 187.192 319.621,182.973 303.916,177.926 297.243 C 154.760 266.615,179.425 233.849,215.287 247.610 M150.000 300.000 C 165.394 315.394,166.960 357.147,152.679 371.429 C 120.892 403.215,72.018 352.616,90.969 307.542 C 101.133 283.371,129.719 279.719,150.000 300.000 M305.448 295.908 C 328.386 323.547,309.974 381.250,278.217 381.250 C 237.199 381.250,222.959 316.180,258.748 292.283 C 270.058 284.731,297.970 286.898,305.448 295.908 " stroke="none"   fill-rule="evenodd"></path></g></svg>
