<svg id="svg" xmlns="http://www.w3.org/2000/svg" xmlns:xlink="http://www.w3.org/1999/xlink" width="400" height="400" viewBox="0, 0, 400,400" version="1.1"><g id="svgg"><path id="path0" d="M133.123 8.491 C 130.374 13.161,117.587 20.408,104.707 24.594 C 63.732 37.914,62.500 42.863,62.500 194.172 C 62.500 321.920,63.192 329.939,75.153 340.763 C 87.789 352.199,87.781 352.240,68.903 371.717 C 36.391 405.261,55.218 413.176,91.580 381.250 L 112.935 362.500 200.000 362.500 L 287.065 362.500 308.420 381.250 C 329.774 399.999,350.000 405.883,350.000 393.346 C 350.000 389.687,341.420 379.473,330.933 370.649 L 311.866 354.605 324.683 340.962 C 336.776 328.090,337.500 319.812,337.500 194.499 C 337.500 45.893,336.576 42.018,297.124 25.107 C 282.276 18.742,268.245 10.489,265.945 6.767 C 259.618 -3.470,225.172 -1.471,221.010 9.375 C 216.365 21.480,191.297 21.480,181.250 9.375 C 171.544 -2.321,139.830 -2.903,133.123 8.491 M162.500 28.125 C 162.500 33.281,159.688 37.500,156.250 37.500 C 152.813 37.500,150.000 33.281,150.000 28.125 C 150.000 22.969,152.813 18.750,156.250 18.750 C 159.688 18.750,162.500 22.969,162.500 28.125 M250.938 28.125 C 250.938 31.391,247.914 35.070,244.219 36.302 C 240.523 37.534,237.500 33.854,237.500 28.125 C 237.500 22.396,240.523 18.716,244.219 19.948 C 247.914 21.180,250.938 24.859,250.938 28.125 M140.845 53.844 C 155.026 63.136,157.474 63.136,171.655 53.844 C 191.197 41.039,208.803 41.039,228.345 53.844 C 242.526 63.136,244.974 63.136,259.155 53.844 C 308.496 21.515,318.750 44.931,318.750 189.933 C 318.750 350.567,326.533 340.625,200.775 340.625 C 74.843 340.625,84.375 352.969,84.375 189.898 C 84.375 40.247,92.012 21.847,140.845 53.844 M138.965 76.035 C 134.722 80.278,131.250 86.790,131.250 90.505 C 131.250 94.220,122.812 100.444,112.500 104.337 C 91.869 112.124,83.325 193.325,101.250 211.250 C 111.718 221.718,288.282 221.718,298.750 211.250 C 316.019 193.981,308.194 112.148,288.565 104.739 C 278.839 101.068,268.292 92.171,265.128 84.969 C 258.149 69.083,153.339 61.661,138.965 76.035 M223.438 98.303 C 210.547 99.651,189.453 99.651,176.563 98.303 C 163.672 96.955,174.219 95.851,200.000 95.851 C 225.781 95.851,236.328 96.955,223.438 98.303 M284.375 162.500 L 284.375 196.875 201.563 198.619 L 118.750 200.363 118.750 162.500 L 118.750 124.637 201.563 126.381 L 284.375 128.125 284.375 162.500 M99.688 269.332 C 82.118 302.163,116.187 336.307,146.619 316.367 C 163.891 305.050,168.344 277.094,155.000 263.750 C 142.276 251.026,107.613 254.524,99.688 269.332 M243.577 269.072 C 225.650 302.569,259.051 336.888,289.905 316.672 C 307.115 305.395,310.568 288.496,299.780 268.339 C 290.591 251.169,252.896 251.661,243.577 269.072 M137.500 287.500 C 137.500 294.444,133.333 300.000,128.125 300.000 C 122.917 300.000,118.750 294.444,118.750 287.500 C 118.750 280.556,122.917 275.000,128.125 275.000 C 133.333 275.000,137.500 280.556,137.500 287.500 M281.250 287.500 C 281.250 294.444,277.083 300.000,271.875 300.000 C 266.667 300.000,262.500 294.444,262.500 287.500 C 262.500 280.556,266.667 275.000,271.875 275.000 C 277.083 275.000,281.250 280.556,281.250 287.500 " stroke="none"   fill-rule="evenodd"></path></g></svg>
