<svg id="svg" xmlns="http://www.w3.org/2000/svg" xmlns:xlink="http://www.w3.org/1999/xlink" width="400" height="400" viewBox="0, 0, 400,400" version="1.1"><g id="svgg"><path id="path0" d="M373.884 89.635 C 369.342 94.247,358.832 106.962,350.529 117.889 C 318.454 160.104,240.148 182.755,244.920 148.438 C 246.498 137.083,243.866 134.375,231.250 134.375 C 218.772 134.375,215.925 137.207,217.114 148.438 C 218.069 157.459,215.226 162.500,209.182 162.500 C 202.255 162.500,200.800 158.365,203.683 146.875 C 207.146 133.080,205.616 131.250,190.625 131.250 C 175.634 131.250,174.104 133.080,177.567 146.875 C 180.546 158.748,179.045 162.500,171.317 162.500 C 163.514 162.500,162.084 158.759,165.176 146.438 C 168.854 131.783,167.682 130.551,151.791 132.375 C 137.763 133.986,134.755 137.111,136.330 148.438 C 138.869 166.698,60.583 169.722,34.124 152.386 C 11.008 137.240,-1.139 150.017,1.262 186.953 C 3.204 216.843,22.493 230.007,39.471 213.029 C 56.773 195.727,68.649 205.241,64.800 233.322 C 55.469 301.401,90.859 326.612,191.974 323.916 C 281.759 321.523,303.696 309.156,310.693 256.993 C 315.042 224.569,321.307 226.164,352.441 267.621 C 391.655 319.839,393.750 315.935,393.750 190.625 C 393.750 83.393,391.466 71.784,373.884 89.635 M375.000 190.842 L 375.000 256.685 355.679 234.680 C 332.892 208.727,305.843 200.071,243.961 198.928 C 219.545 198.477,198.009 195.585,196.103 192.501 C 194.197 189.416,188.440 190.376,183.311 194.633 C 176.218 200.519,171.241 200.659,162.525 195.216 C 153.566 189.621,149.419 190.044,143.518 197.155 C 139.366 202.157,130.848 206.250,124.589 206.250 C 80.391 206.250,88.411 292.261,132.813 294.440 C 220.214 298.731,241.592 295.974,268.128 276.993 C 269.505 276.008,274.237 261.797,278.644 245.414 L 286.656 215.625 287.078 248.529 C 287.686 295.919,269.588 306.195,185.457 306.227 C 110.701 306.255,87.500 291.474,87.500 243.820 C 87.500 189.774,105.550 181.250,219.993 181.250 C 308.051 181.250,321.049 177.633,352.732 144.308 C 362.828 133.689,371.969 125.000,373.044 125.000 C 374.120 125.000,375.000 154.629,375.000 190.842 M180.047 248.923 C 181.540 269.186,179.799 275.000,172.234 275.000 C 164.838 275.000,162.500 268.120,162.500 246.354 C 162.500 209.467,177.299 211.633,180.047 248.923 M217.547 248.923 C 219.040 269.186,217.299 275.000,209.734 275.000 C 202.338 275.000,200.000 268.120,200.000 246.354 C 200.000 209.467,214.799 211.633,217.547 248.923 M256.250 243.750 C 256.250 253.657,253.437 263.501,250.000 265.625 C 246.220 267.961,243.750 259.317,243.750 243.750 C 243.750 228.183,246.220 219.539,250.000 221.875 C 253.437 223.999,256.250 233.843,256.250 243.750 M137.500 249.804 C 137.500 268.685,135.377 273.793,128.608 271.196 C 109.807 263.981,109.754 225.000,128.546 225.000 C 134.814 225.000,137.500 232.441,137.500 249.804 " stroke="none"   fill-rule="evenodd"></path></g></svg>
