<svg id="svg" xmlns="http://www.w3.org/2000/svg" xmlns:xlink="http://www.w3.org/1999/xlink" width="400" height="400" viewBox="0, 0, 400,400" version="1.1"><g id="svgg"><path id="path0" d="M356.996 9.137 C 345.375 13.343,332.719 22.439,328.871 29.350 C 325.023 36.262,318.359 40.689,314.063 39.188 C 309.766 37.687,306.250 40.911,306.250 46.354 C 306.250 51.797,302.031 56.250,296.875 56.250 C 291.719 56.250,287.500 61.385,287.500 67.661 C 287.500 91.155,260.649 107.798,240.064 97.062 C 200.592 76.478,125.648 108.080,134.098 141.746 C 142.128 173.742,97.755 204.968,74.352 183.788 C 59.256 170.127,9.266 218.195,2.816 252.574 C -9.923 320.478,57.728 400.000,128.235 400.000 C 174.922 400.000,236.105 347.630,215.726 325.112 C 194.550 301.713,233.531 253.246,261.491 268.210 C 291.219 284.120,325.772 190.480,302.457 157.192 C 290.895 140.686,309.741 112.500,332.339 112.500 C 338.615 112.500,343.750 108.281,343.750 103.125 C 343.750 97.969,347.266 94.453,351.563 95.312 C 355.859 96.172,359.021 92.170,358.587 86.421 C 358.138 80.458,363.737 74.476,371.619 72.498 C 389.397 68.036,404.879 22.785,393.372 8.920 C 384.980 -1.193,385.551 -1.196,356.996 9.137 M370.864 42.592 C 367.988 53.590,365.415 55.012,358.612 49.366 C 346.950 39.688,347.783 32.660,360.938 29.734 C 375.213 26.558,375.096 26.407,370.864 42.592 M315.340 88.979 C 256.998 158.314,212.656 201.429,209.133 192.247 C 206.647 185.770,216.410 172.445,238.469 152.207 C 256.653 135.524,284.264 109.987,299.828 95.457 C 333.849 63.696,338.112 61.916,315.340 88.979 M228.171 114.885 C 239.311 123.032,238.083 125.265,206.501 154.305 L 173.022 185.089 192.388 206.607 L 211.754 228.125 245.886 194.572 C 278.260 162.747,280.371 161.680,286.884 173.849 C 302.194 202.456,281.994 243.750,252.689 243.750 C 220.951 243.750,186.283 285.597,188.591 321.122 C 191.840 371.140,127.319 402.250,87.391 369.918 L 73.397 358.586 108.573 328.534 C 149.003 293.994,150.182 289.751,125.831 266.421 L 107.913 249.254 73.348 288.057 L 38.783 326.861 28.767 307.491 C 5.238 261.992,38.154 197.303,77.267 212.174 C 108.251 223.954,156.250 184.349,156.250 147.003 C 156.250 118.494,203.965 97.186,228.171 114.885 M115.178 286.776 C 119.183 293.257,63.250 346.584,57.978 341.311 C 54.278 337.611,99.800 282.881,107.444 281.839 C 109.819 281.515,113.299 283.737,115.178 286.776 " stroke="none"   fill-rule="evenodd"></path></g></svg>
