<svg id="svg" xmlns="http://www.w3.org/2000/svg" xmlns:xlink="http://www.w3.org/1999/xlink" width="400" height="400" viewBox="0, 0, 400,400" version="1.1"><g id="svgg"><path id="path0" d="M50.000 4.337 C 26.251 12.825,25.000 22.809,25.000 203.873 C 25.000 355.980,26.357 381.714,34.821 390.179 C 50.866 406.223,350.001 404.764,364.656 388.570 C 383.240 368.036,380.009 22.967,361.109 9.729 C 347.291 0.050,75.191 -4.665,50.000 4.337 M349.337 27.326 C 354.370 33.391,355.967 85.997,354.789 207.013 L 353.125 378.125 200.000 378.125 L 46.875 378.125 45.212 203.556 C 43.921 68.062,45.320 27.863,51.462 23.964 C 66.285 14.555,341.314 17.659,349.337 27.326 M239.767 59.357 C 237.607 64.985,238.727 72.477,242.256 76.006 C 252.444 86.194,271.875 79.328,271.875 65.539 C 271.875 49.641,245.448 44.553,239.767 59.357 M297.466 60.090 C 295.197 66.002,295.946 73.446,299.131 76.631 C 308.807 86.307,328.125 78.917,328.125 65.539 C 328.125 49.425,303.255 45.004,297.466 60.090 M153.139 116.096 C 66.402 161.322,65.970 280.044,152.399 319.293 C 229.539 354.323,312.500 300.365,312.500 215.162 C 312.500 135.816,222.555 79.902,153.139 116.096 M247.851 138.103 C 265.141 148.789,287.500 177.768,287.500 189.492 C 287.500 194.397,234.437 201.871,203.125 201.377 C 109.063 199.891,100.008 195.616,122.604 163.355 C 149.268 125.288,207.966 113.453,247.851 138.103 M200.000 220.934 C 218.906 220.934,244.219 218.934,256.250 216.490 C 300.584 207.485,305.448 244.136,265.253 284.331 C 217.142 332.441,133.694 311.093,111.915 245.101 C 103.023 218.159,112.046 210.050,143.750 216.490 C 155.781 218.934,181.094 220.934,200.000 220.934 " stroke="none"   fill-rule="evenodd"></path></g></svg>
