<svg id="svg" xmlns="http://www.w3.org/2000/svg" xmlns:xlink="http://www.w3.org/1999/xlink" width="400" height="400" viewBox="0, 0, 400,400" version="1.1"><g id="svgg"><path id="path0" d="M143.750 5.477 C 80.991 26.111,6.250 100.172,6.250 141.726 C 6.250 161.607,19.898 153.569,34.258 125.231 C 52.026 90.167,50.643 90.913,78.935 101.144 C 96.173 107.377,99.675 112.036,101.253 130.831 C 103.461 157.122,114.759 160.651,117.603 135.938 C 120.227 113.129,179.876 109.023,185.689 131.250 C 189.915 147.412,206.463 147.412,210.689 131.250 C 216.734 108.136,271.929 113.450,280.477 137.969 C 288.951 162.279,302.755 155.962,297.590 130.137 C 294.311 113.742,296.216 110.832,315.510 102.770 C 345.528 90.228,346.707 90.658,359.391 118.786 C 372.552 147.972,384.411 160.055,390.393 150.376 C 404.521 127.516,341.112 46.302,289.370 20.987 C 252.672 3.033,176.018 -5.132,143.750 5.477 M187.500 59.375 L 187.500 100.000 162.869 100.000 C 149.322 100.000,136.448 97.103,134.259 93.563 C 126.890 81.639,168.873 21.016,185.938 18.940 C 186.797 18.836,187.500 37.031,187.500 59.375 M235.679 39.063 C 272.527 79.360,272.791 100.000,236.458 100.000 L 212.500 100.000 212.500 62.500 C 212.500 21.567,216.232 17.794,235.679 39.063 M123.673 59.375 C 109.465 88.620,98.198 93.576,78.561 79.217 C 68.123 71.584,69.587 69.374,97.188 51.092 C 136.664 24.944,139.908 25.959,123.673 59.375 M318.496 65.319 C 328.284 77.113,327.046 78.930,305.545 84.326 C 290.979 87.982,262.500 54.722,262.500 34.056 C 262.500 28.558,309.995 55.075,318.496 65.319 M6.219 173.438 C 5.922 218.453,43.468 252.377,54.641 217.188 L 61.090 196.875 69.415 217.188 C 83.376 251.250,97.666 240.544,115.297 182.813 C 122.304 159.872,102.410 165.597,93.577 189.063 L 85.932 209.375 79.562 189.063 C 75.636 176.544,69.089 168.750,62.500 168.750 C 55.911 168.750,49.364 176.544,45.438 189.063 L 39.068 209.375 31.423 189.063 C 24.810 171.494,6.308 160.024,6.219 173.438 M143.750 173.887 C 143.750 222.249,178.921 251.036,191.318 212.819 L 198.260 191.415 205.865 214.458 C 218.219 251.891,231.744 246.111,246.496 197.095 C 253.843 172.683,253.783 168.750,246.067 168.750 C 241.139 168.750,235.790 172.969,234.179 178.125 C 224.581 208.847,223.325 209.646,216.966 189.063 C 213.003 176.231,206.646 168.750,199.707 168.750 C 193.033 168.750,185.754 176.721,181.157 189.063 L 173.592 209.375 167.867 189.063 C 162.918 171.501,143.750 159.439,143.750 173.887 M281.250 177.999 C 281.250 224.389,315.329 250.539,327.736 213.668 L 334.704 192.961 342.756 215.231 C 356.298 252.679,374.740 240.073,385.611 185.938 C 390.528 161.451,376.052 163.867,367.293 188.994 L 360.235 209.239 351.975 188.994 C 341.429 163.150,328.320 163.177,318.577 189.063 L 310.932 209.375 304.562 189.063 C 298.173 168.689,281.250 160.657,281.250 177.999 M6.250 261.788 C 6.250 282.668,54.176 345.967,85.593 366.580 C 196.800 439.546,353.799 386.741,390.397 264.063 C 398.378 237.309,376.118 248.795,363.144 278.125 C 349.650 308.629,341.224 311.729,312.360 296.803 C 296.626 288.666,294.610 284.764,297.827 268.678 C 302.804 243.791,283.924 242.338,278.473 267.188 C 273.653 289.159,216.110 289.969,209.189 268.163 C 204.181 252.384,187.500 252.836,187.500 268.750 C 187.500 279.398,183.333 281.250,159.375 281.250 C 143.906 281.250,129.141 281.416,126.563 281.619 C 123.984 281.822,120.391 275.702,118.578 268.020 C 113.016 244.462,100.000 246.370,100.000 270.743 C 100.000 289.558,97.317 293.462,80.317 299.389 C 51.858 309.309,51.161 308.973,36.173 278.125 C 22.200 249.363,6.250 240.655,6.250 261.788 M187.500 341.387 L 187.500 382.775 173.438 373.574 C 156.377 362.411,128.879 315.142,134.322 306.335 C 136.476 302.851,149.322 300.000,162.869 300.000 L 187.500 300.000 187.500 341.387 M258.685 303.725 C 270.947 308.430,254.214 344.494,228.733 368.277 L 212.500 383.429 212.500 341.714 L 212.500 300.000 230.739 300.000 C 240.770 300.000,253.346 301.676,258.685 303.725 M123.191 340.933 C 138.998 372.760,138.866 372.890,107.145 356.707 C 71.700 338.624,63.663 326.591,82.099 319.209 C 105.481 309.846,108.559 311.474,123.191 340.933 M314.869 319.543 L 330.325 326.585 313.600 340.489 C 270.688 376.163,257.611 375.551,275.833 338.721 C 289.977 310.133,292.017 309.131,314.869 319.543 " stroke="none"   fill-rule="evenodd"></path></g></svg>
