<svg id="svg" xmlns="http://www.w3.org/2000/svg" xmlns:xlink="http://www.w3.org/1999/xlink" width="400" height="400" viewBox="0, 0, 400,400" version="1.1"><g id="svgg"><path id="path0" d="M104.425 13.354 C 91.390 19.949,79.028 29.767,76.954 35.172 C 74.881 40.576,66.561 51.621,58.467 59.715 C 50.373 67.809,43.750 78.346,43.750 83.131 C 43.750 87.915,39.465 100.419,34.228 110.916 C 28.991 121.414,24.805 138.018,24.927 147.814 C 25.048 157.610,23.395 176.211,21.254 189.149 C 19.046 202.498,20.211 216.104,23.949 220.608 C 27.571 224.973,28.308 232.147,25.586 236.551 C 19.795 245.922,24.025 273.660,31.996 278.586 C 35.023 280.457,37.500 288.474,37.500 296.401 C 37.500 304.328,42.422 317.554,48.437 325.791 C 54.453 334.029,62.464 346.361,66.238 353.197 C 70.013 360.032,78.670 368.455,85.475 371.915 C 92.280 375.374,102.751 383.108,108.745 389.102 C 140.296 420.653,289.949 400.780,327.197 360.093 C 413.418 265.911,393.272 62.010,292.498 8.895 C 265.577 -5.294,135.169 -2.202,104.425 13.354 M175.180 39.063 C 124.117 90.785,92.378 238.628,125.275 271.525 C 128.561 274.811,131.250 283.589,131.250 291.032 C 131.250 298.475,136.875 311.715,143.750 320.455 C 150.625 329.196,156.250 339.215,156.250 342.720 C 156.250 346.226,165.391 356.298,176.563 365.103 L 196.875 381.111 165.566 381.181 C 140.979 381.235,132.581 378.566,126.450 368.750 C 122.157 361.875,112.973 356.250,106.042 356.250 C 98.658 356.250,91.187 350.322,87.996 341.931 C 85.002 334.055,78.040 323.867,72.526 319.290 C 67.012 314.714,62.500 304.908,62.500 297.500 C 62.500 290.092,58.073 277.711,52.662 269.986 C 46.039 260.531,44.178 249.781,46.965 237.089 C 49.544 225.347,48.123 214.644,43.196 208.708 C 36.858 201.071,36.830 194.907,43.057 177.689 C 47.330 165.871,48.981 150.385,46.725 143.278 C 44.103 135.016,46.588 125.974,53.613 118.211 C 59.657 111.532,65.301 99.781,66.155 92.096 C 67.010 84.412,67.943 76.016,68.229 73.438 C 68.516 70.859,73.029 68.750,78.259 68.750 C 83.489 68.750,90.699 62.422,94.282 54.688 C 103.073 35.710,134.733 20.624,167.929 19.596 L 195.233 18.750 175.180 39.063 M279.158 28.018 C 300.665 38.748,337.500 82.128,337.500 96.728 C 337.500 102.207,341.736 113.154,346.913 121.056 C 353.038 130.403,356.643 152.705,357.234 184.898 C 358.513 254.560,356.565 269.238,343.105 291.363 C 336.585 302.081,331.250 314.250,331.250 318.406 C 331.250 338.072,273.194 381.250,246.752 381.250 C 224.249 381.250,172.757 334.573,160.568 303.125 C 159.235 299.688,154.367 287.031,149.748 275.000 C 137.536 243.185,139.359 135.758,152.450 115.778 C 157.978 107.342,162.514 96.825,162.532 92.407 C 162.549 87.990,171.690 75.173,182.844 63.925 C 230.677 15.694,244.285 10.621,279.158 28.018 M213.332 84.634 C 138.067 147.966,167.176 331.250,252.500 331.250 C 321.148 331.250,361.614 202.193,319.672 117.017 C 295.712 68.357,249.426 54.263,213.332 84.634 M281.741 101.563 C 347.724 170.406,303.218 354.674,233.229 302.419 C 205.731 281.889,192.647 249.392,192.647 201.623 C 192.647 112.878,240.778 58.823,281.741 101.563 " stroke="none"   fill-rule="evenodd"></path></g></svg>
